SplineFontDB: 3.0
FontName: AnkaCoder-C87-SkelBI
FullName: Anna Shugol/Coder Condensed Bold Italic
FamilyName: Anka/Coder Condensed
Weight: Bold
Copyright: Copyright (c) 2010, Andrey Makarov (makarov@bmstu.ru, mka-at-mailru@mail.ru),\nwith Reserved Font Name Anka/Coder Condensed.\n---------------------------------\nThe Anka/* are members of Anna Shugol name font family; March 2010
Version: 001.000
StrokeWidth: 100
ItalicAngle: -12
UnderlinePosition: -292
UnderlineWidth: 50
Ascent: 1638
Descent: 410
LayerCount: 2
Layer: 0 0 "Back"  1
Layer: 1 0 "Fore"  0
StrokedFont: 1
NeedsXUIDChange: 1
XUID: [1021 77 1780377344 9172785]
UseXUID: 1
BaseHoriz: 0
FSType: 8
OS2Version: 1
OS2_WeightWidthSlopeOnly: 0
OS2_UseTypoMetrics: 1
CreationTime: 1260467214
ModificationTime: 1267187229
PfmFamily: 49
TTFWeight: 700
TTFWidth: 4
LineGap: 0
VLineGap: 0
Panose: 2 11 8 9 2 5 2 2 2 4
OS2TypoAscent: 0
OS2TypoAOffset: 1
OS2TypoDescent: 0
OS2TypoDOffset: 1
OS2TypoLinegap: 0
OS2WinAscent: 0
OS2WinAOffset: 1
OS2WinDescent: 0
OS2WinDOffset: 1
HheadAscent: 0
HheadAOffset: 1
HheadDescent: 0
HheadDOffset: 1
OS2SubXSize: 553
OS2SubYSize: 1229
OS2SubXOff: 0
OS2SubYOff: 283
OS2SupXSize: 553
OS2SupYSize: 1229
OS2SupXOff: 0
OS2SupYOff: 977
OS2StrikeYSize: 102
OS2StrikeYPos: 530
OS2FamilyClass: 1285
OS2Vendor: 'AVM1'
OS2CodePages: 40000097.cfd60000
OS2UnicodeRanges: 800002ef.000079eb.00000000.00000000
MacStyle: 3
DEI: 91125
ShortTable: maxp 16
  0
  0
  0
  0
  0
  0
  0
  2
  1
  0
  9
  0
  256
  0
  0
  0
EndShort
TtTable: prep
PUSHW_1
 511
SCANCTRL
SVTCA[y-axis]
MPPEM
PUSHB_1
 8
LT
IF
PUSHB_2
 1
 1
INSTCTRL
EIF
PUSHB_2
 70
 6
CALL
IF
POP
PUSHB_1
 16
EIF
MPPEM
PUSHB_1
 20
GT
IF
POP
PUSHB_1
 128
EIF
SCVTCI
PUSHB_1
 6
CALL
NOT
IF
EIF
EndTTInstrs
TtTable: fpgm
PUSHB_1
 0
FDEF
PUSHB_1
 0
SZP0
MPPEM
PUSHB_1
 42
LT
IF
PUSHB_1
 74
SROUND
EIF
PUSHB_1
 0
SWAP
MIAP[rnd]
RTG
PUSHB_1
 6
CALL
IF
RTDG
EIF
MPPEM
PUSHB_1
 42
LT
IF
RDTG
EIF
DUP
MDRP[rp0,rnd,grey]
PUSHB_1
 1
SZP0
MDAP[no-rnd]
RTG
ENDF
PUSHB_1
 1
FDEF

StartChar: exclam
Encoding: 33 33 1
Width: 1075
VWidth: 1708
GlyphClass: 2
Flags: W
HStem: -23 236<363.831 557.094> 1398 20G<428.5 489>
VStem: 336 249<6.3129 184.037 1384.21 1392.37> 371 182<384 808.823>
LayerCount: 2
Fore
SplineSet
555 45 m 0xe0
 555 -24 496 -73 430 -73 c 0
 366 -73 306 -23 306 45 c 0
 306 107 360 163 430 163 c 0
 495 163 555 115 555 45 c 0xe0
716 1418 m 0
 790 1418 856 1366 833 1273 c 2
 613 384 l 1
 402 384 l 1xd0
 553 1274 l 2
 569 1371 651 1418 716 1418 c 0
EndSplineSet
EndChar

StartChar: quotedbl
Encoding: 34 34 2
Width: 1075
VWidth: 1708
GlyphClass: 2
Flags: W
HStem: 1043 382<367 502 817 952>
LayerCount: 2
Fore
SplineSet
435 1077 m 2
 414 1053 390 1043 367 1043 c 3
 325 1043 288 1078 288 1123 c 3
 288 1137 292 1153 300 1169 c 2
 402 1360 l 2
 427 1407 465 1425 502 1425 c 3
 559 1425 614 1381 614 1322 c 3
 614 1296 603 1268 578 1239 c 2
 435 1077 l 2
885 1077 m 2
 864 1053 840 1043 817 1043 c 3
 775 1043 738 1078 738 1123 c 3
 738 1137 742 1153 750 1169 c 2
 852 1360 l 2
 877 1407 915 1425 952 1425 c 3
 1009 1425 1064 1381 1064 1322 c 3
 1064 1296 1053 1268 1028 1239 c 2
 885 1077 l 2
EndSplineSet
EndChar

StartChar: numbersign
Encoding: 35 35 3
Width: 1075
VWidth: 1708
GlyphClass: 2
Flags: MW
LayerCount: 2
Back
SplineSet
-72 0 m 5
 216 1320 l 5
 1132 1320 l 5
 843 0 l 5
 -72 0 l 5
EndSplineSet
Fore
SplineSet
14 943 m 25
 1080 943 l 25
-18 416 m 25
 1047 416 l 25
908 1425 m 25
 575 -99 l 25
480 1425 m 25
 148 -99 l 25
EndSplineSet
EndChar

StartChar: dollar
Encoding: 36 36 4
Width: 1075
VWidth: 2334
GlyphClass: 2
Flags: MW
LayerCount: 2
Back
SplineSet
-127 -93 m 5
 204 1491 l 5
 1270 1491 l 5
 939 -93 l 5
 -127 -93 l 5
EndSplineSet
Fore
SplineSet
775 1674 m 25
 377 -216 l 25
124 308 m 0
 129 175 259 80 422 80 c 10
 453 80 l 18
 631 80 810 183 842 337 c 10
 848 367 l 18
 872.517 479.779 833.667 623.474 709 684 c 2
 433 818 l 2
 397.803 834.894 290.565 891.259 326 1033 c 2
 332 1063 l 2
 364 1218 508 1320 687 1320 c 10
 715 1320 l 18
 869 1320 974 1260 991 1145 c 1
EndSplineSet
EndChar

StartChar: percent
Encoding: 37 37 5
Width: 1075
VWidth: 1708
GlyphClass: 2
Flags: MW
LayerCount: 2
Fore
SplineSet
20 106 m 25
 1124 1295 l 25
465 957 m 3
 363 957 306 1043 305 1145 c 3
 305 1248 362 1333 465 1333 c 3
 570 1333 625 1249 625 1145 c 3
 625 1049 571 957 465 957 c 3
730 64 m 3
 628 64 570 144 570 252 c 3
 570 356 626 439 729 439 c 3
 833 439 889 355 890 252 c 3
 890 154 836 64 730 64 c 3
EndSplineSet
EndChar

StartChar: ampersand
Encoding: 38 38 6
Width: 1075
VWidth: 2334
GlyphClass: 2
Flags: MW
LayerCount: 2
Fore
SplineSet
843 10 m 1
 515 779 l 2
 444.932 943.275 427.945 1048.93 436 1108 c 2
 439 1130 l 2
 464 1246 556 1320 690 1320 c 10
 712 1320 l 18
 864.988 1320 920.464 1230.59 897 1125 c 2
 891 1098 l 2
 875 1017 788 943 739 909 c 2
 332 639 l 2
 214.492 561.046 152 471 130 367 c 10
 124 337 l 18
 93.6419 154.851 253.388 80 406 80 c 10
 427 80 l 18
 572 80 688 153 767 272 c 2
 977 590 l 0
EndSplineSet
EndChar

StartChar: quotesingle
Encoding: 39 39 7
Width: 1075
VWidth: 1708
GlyphClass: 2
Flags: HW
HStem: 1043 382<637 772>
LayerCount: 2
Fore
SplineSet
705 1077 m 6
 684 1053 660 1043 637 1043 c 7
 595 1043 558 1078 558 1123 c 7
 558 1137 562 1153 570 1169 c 6
 672 1360 l 6
 697 1407 735 1425 772 1425 c 7
 829 1425 884 1381 884 1322 c 7
 884 1296 873 1268 848 1239 c 6
 705 1077 l 6
EndSplineSet
EndChar

StartChar: parenleft
Encoding: 40 40 8
Width: 1075
VWidth: 1708
GlyphClass: 2
Flags: MW
LayerCount: 2
Fore
SplineSet
919 1480 m 17
 651 1320 376 1040 305 700 c 16
 232.18 351.503 398.553 74.8376 593 -80 c 12
EndSplineSet
EndChar

StartChar: parenright
Encoding: 41 41 9
Width: 1075
VWidth: 1708
GlyphClass: 2
Flags: MW
LayerCount: 2
Fore
SplineSet
528 1480 m 16
 722.421 1325.18 888.792 1048.36 816 700 c 12
 745 360 470 80 202 -80 c 9
EndSplineSet
EndChar

StartChar: asterisk
Encoding: 42 42 10
Width: 1075
VWidth: 1708
GlyphClass: 2
Flags: MW
LayerCount: 2
Fore
SplineSet
276 305 m 25
 554 600 l 25
 631.757 978 l 25
554 600 m 25
 705 305 l 25
925 723 m 25
 554 600 l 25
 230 723 l 25
EndSplineSet
EndChar

StartChar: plus
Encoding: 43 43 11
Width: 1075
VWidth: 1708
GlyphClass: 2
Flags: MW
LayerCount: 2
Back
SplineSet
55 189 m 5
 232 1011 l 5
 1052 1011 l 5
 875 189 l 5
 55 189 l 5
EndSplineSet
Fore
SplineSet
433 33 m 25
 665 1124 l 25
63 600 m 25
 1065 600 l 25
EndSplineSet
EndChar

StartChar: comma
Encoding: 44 44 12
Width: 1075
VWidth: 1947
GlyphClass: 2
Flags: MW
LayerCount: 2
Fore
SplineSet
183.545 -218.925 m 17
 242.83 -210.592 328.32 -177.299 328.32 -114.204 c 3
 328.32 -95.1652 320.536 -73.4131 301.9 -48.8145 c 9
 532.744 2.30762 l 17
 505.355 -125.798 450 -289 187.458 -295.409 c 9
 183.545 -218.925 l 17
406.604 159 m 3
 491.905 159 534.587 93.8977 534.587 28.8467 c 3
 534.587 -36.1022 492.036 -101 406.869 -101 c 3
 333.283 -101 277.237 -42.7695 277.237 28.7653 c 24
 277.236 100.356 328.984 159 406.604 159 c 3
EndSplineSet
EndChar

StartChar: hyphen
Encoding: 45 45 13
Width: 1075
VWidth: 1708
GlyphClass: 2
Flags: MW
LayerCount: 2
Fore
SplineSet
127 600 m 25
 949 600 l 25
EndSplineSet
EndChar

StartChar: period
Encoding: 46 46 14
Width: 1075
VWidth: 1708
GlyphClass: 2
Flags: MW
LayerCount: 2
Fore
SplineSet
555 29 m 4
 555 -40 502 -101 425 -101 c 4
 351 -101 296 -41 296 29 c 4
 296 97 347 159 425 159 c 4
 501 159 555 99 555 29 c 4
EndSplineSet
EndChar

StartChar: slash
Encoding: 47 47 15
Width: 1075
VWidth: 1708
GlyphClass: 2
Flags: MW
LayerCount: 2
Fore
SplineSet
99 -25 m 25
 1046 1425 l 25
EndSplineSet
EndChar

StartChar: zero
Encoding: 48 48 16
Width: 1075
VWidth: 1708
GlyphClass: 2
Flags: MW
LayerCount: 2
Back
SplineSet
201 1476 m 5
 1162 1476 l 5
 1206 1186 l 5
 948 -51 l 5
 -9 -51 l 5
 -61 219 l 5
 201 1476 l 5
EndSplineSet
Fore
SplineSet
716 1320 m 2
 936 1312 990.679 1133.06 916 749 c 1
 894 645 l 2
 824.622 344.037 712 80 461 80 c 2
 426 80 l 2
 207 89 156.441 271.739 228 651 c 1
 248 747 l 2
 315.733 1048.36 426 1310 685 1320 c 2
 716 1320 l 2
-136 -25 m 25
 1279 1425 l 25
EndSplineSet
EndChar

StartChar: one
Encoding: 49 49 17
Width: 1075
VWidth: 1708
GlyphClass: 2
Flags: MW
LayerCount: 2
Back
SplineSet
-37 335 m 1
 411 735 l 1
 448 908 l 1
 381 1024 l 1
 801 1425 l 1
 1256 1425 l 1
 960 0 l 1
 -106 0 l 1
 -37 335 l 1
EndSplineSet
Fore
SplineSet
510 -138 m 25
 815 1320 l 25
 262 953 l 25
EndSplineSet
EndChar

StartChar: two
Encoding: 50 50 18
Width: 1075
VWidth: 2334
GlyphClass: 2
Flags: MW
LayerCount: 2
Back
SplineSet
-8 -25 m 5
 305 1479 l 5
 1267 1479 l 5
 1016 273 l 5
 912 273 l 5
 850 -25 l 5
 -8 -25 l 5
EndSplineSet
Fore
SplineSet
355 1149 m 1
 431 1258 512 1320 690 1320 c 10
 711 1320 l 18
 915.614 1320 1010.26 1242.28 970 1064 c 10
 962 1024 l 18
 949 966 895 897 814 822 c 2
 340 384 l 2
 247 299 181 209 126 105 c 1
 1039 105 l 9
EndSplineSet
EndChar

StartChar: three
Encoding: 51 51 19
Width: 1075
VWidth: 2334
GlyphClass: 2
Flags: MW
LayerCount: 2
Fore
SplineSet
366 1158 m 1
 434 1264 567 1320 690 1320 c 10
 711 1320 l 18
 892.365 1320 947.014 1193.56 918 1063 c 10
 909 1022 l 18
 887 912 724 777 569 777 c 2
 404 777 l 9
 598 777 l 18
 812.193 777 881.028 637.635 836 417 c 10
 831 397 l 18
 786 177 661 80 453 80 c 10
 432 80 l 18
 309 80 173 136 168 274 c 0
EndSplineSet
EndChar

StartChar: four
Encoding: 52 52 20
Width: 1075
VWidth: 1708
GlyphClass: 2
Flags: MW
LayerCount: 2
Back
SplineSet
294 1425 m 5
 1152 1425 l 5
 855 0 l 5
 -3 0 l 5
 294 1425 l 5
EndSplineSet
Fore
SplineSet
638 -150 m 25
 945 1322 l 25
 173 427 l 25
 1115 427 l 25
EndSplineSet
EndChar

StartChar: five
Encoding: 53 53 21
Width: 1075
VWidth: 2334
GlyphClass: 2
Flags: MW
LayerCount: 2
Back
SplineSet
190 1425 m 5
 1084 1425 l 5
 1021 1122 l 5
 1192 1122 l 5
 948 -54 l 5
 -118 -54 l 5
 -71 173 l 5
 403 393 l 5
 436 556 l 5
 63 813 l 5
 190 1425 l 5
EndSplineSet
Fore
SplineSet
1196 1295 m 1
 477 1295 l 1
 210 512 l 1
206 495 m 1
 253 714 464 847 592 847 c 10
 613 847 l 18
 827.797 847 899.469 710.703 851 487 c 10
 838 427 l 18
 791 201 661 80 453 80 c 10
 375 80 l 18
 188.186 80 83.5748 200.814 116 337 c 0
EndSplineSet
EndChar

StartChar: six
Encoding: 54 54 22
Width: 1075
VWidth: 2334
GlyphClass: 2
Flags: MW
LayerCount: 2
Fore
SplineSet
196.824 453 m 25
 299 944 l 18
 339.683 1139.5 482 1320 690 1320 c 10
 711 1320 l 18
 856 1320 946 1288 971 1200 c 1
206 487 m 10
 193 427 l 18
 147.558 219.984 240.8 80 432 80 c 10
 453 80 l 18
 661 80 791 201 838 427 c 10
 851 487 l 18
 899.8 712.231 829.682 847 613 847 c 10
 592 847 l 18
 384 847 252 711 206 487 c 10
EndSplineSet
EndChar

StartChar: seven
Encoding: 55 55 23
Width: 1075
VWidth: 1708
GlyphClass: 2
Flags: MW
LayerCount: 2
Back
SplineSet
203 1485 m 5
 1165 1485 l 5
 855 0 l 5
 -107 0 l 5
 203 1485 l 5
EndSplineSet
Fore
SplineSet
267 1295 m 25
 1018 1295 l 17
 680 863 358 379 161 -93 c 9
EndSplineSet
EndChar

StartChar: eight
Encoding: 56 56 24
Width: 1075
VWidth: 2334
GlyphClass: 2
Flags: MW
LayerCount: 2
Fore
SplineSet
711 1320 m 10
 690 1320 l 18
 534 1320 411 1221 377 1064 c 2
 369 1024 l 2
 338.844 873.22 435.971 777 576 777 c 10
 599 777 l 18
 754 777 887 912 909 1022 c 10
 918 1063 l 18
 947.247 1194.61 891.367 1320 711 1320 c 10
191 417 m 10
 186 397 l 18
 142.406 195.377 240.438 80 432 80 c 10
 453 80 l 18
 661 80 786 177 831 397 c 10
 836 417 l 18
 880.971 637.356 812.453 777 598 777 c 10
 577 777 l 18
 369 777 237 641 191 417 c 10
EndSplineSet
EndChar

StartChar: nine
Encoding: 57 57 25
Width: 1075
VWidth: 2334
GlyphClass: 2
Flags: MW
LayerCount: 2
Fore
SplineSet
947 955 m 25
 841 443 l 18
 797 235 661 80 453 80 c 10
 432 80 l 18
 287 80 198 112 173 200 c 1
936 900 m 18
 888 676 760 553 552 553 c 10
 531 553 l 18
 282.428 553 263.126 760.63 291 900 c 10
 303 960 l 18
 350 1186 482 1320 690 1320 c 10
 711 1320 l 18
 928.518 1320 992.395 1162.24 948 960 c 10
 936 900 l 18
EndSplineSet
EndChar

StartChar: less
Encoding: 60 60 28
Width: 1075
VWidth: 1708
GlyphClass: 2
Flags: MW
LayerCount: 2
Back
SplineSet
338 1332 m 5
 1080 1332 l 5
 774 -110 l 5
 32 -110 l 5
 338 1332 l 5
EndSplineSet
Fore
SplineSet
1114 1160 m 25
 245 600 l 25
 876 40 l 25
EndSplineSet
EndChar

StartChar: equal
Encoding: 61 61 29
Width: 1075
VWidth: 1708
GlyphClass: 2
Flags: MW
LayerCount: 2
Fore
SplineSet
187 810 m 29
 1009 810 l 29
100 400 m 29
 922 400 l 29
EndSplineSet
EndChar

StartChar: greater
Encoding: 62 62 30
Width: 1075
VWidth: 1708
GlyphClass: 2
Flags: MW
LayerCount: 2
Back
SplineSet
338 1332 m 5
 1080 1332 l 5
 774 -110 l 5
 32 -110 l 5
 338 1332 l 5
EndSplineSet
Fore
SplineSet
-6 40 m 25
 863 600 l 25
 232 1160 l 25
EndSplineSet
EndChar

StartChar: question
Encoding: 63 63 31
Width: 1075
VWidth: 1708
GlyphClass: 2
Flags: W
HStem: -101 260<251.547 445.7> 380 1189<24 1131>
VStem: 24 1107<380 1569> 219 259<-68.357 126.694>
LayerCount: 2
Fore
SplineSet
1 339 m 1xe0
 -8 1569 l 1
 1271 1569 l 1
 1281 339 l 1
 1 339 l 1xe0
555 45 m 0xe0
 555 -24 496 -73 430 -73 c 0
 366 -73 306 -23 306 45 c 0
 306 107 360 163 430 163 c 0
 495 163 555 115 555 45 c 0xe0
481 264 m 25
 526 480 l 18
 543 563 602 633 674 696 c 2
 849 849 l 2
 907 901 949 960 962 1024 c 10
 970 1063 l 18
 1009.23 1242.32 917.85 1320 711 1320 c 10
 690 1320 l 18
 482 1320 362 1242 325 1063 c 9
EndSplineSet
EndChar

StartChar: at
Encoding: 64 64 32
Width: 1075
VWidth: 1708
GlyphClass: 2
Flags: MW
LayerCount: 2
Back
SplineSet
1262 338 m 5
 673 338 l 4
 990 -75 l 4
 -83.9971 -66 l 5
 -129 1557 l 5
 1216 1557 l 5
 1262 338 l 5
EndSplineSet
Fore
SplineSet
798 955 m 2
 798 955 917 956 994 956 c 25
 928 639 l 2
 904 530 805 435 690 435 c 3
 526.969 435 519.013 565.57 545 702 c 1
 579 863 653 955 798 955 c 2
782 162 m 1
 681 87 545 80 443 80 c 3
 144.051 80 105.129 397.453 169 700 c 1
 236 1024 417 1320 700 1320 c 3
 902.616 1320 1043.2 1194.01 1011 1033 c 2
 849 258 l 17
EndSplineSet
EndChar

StartChar: B
Encoding: 66 66 33
Width: 1075
VWidth: 1947
GlyphClass: 2
Flags: MW
LayerCount: 2
Fore
SplineSet
819 337 m 10
 849 485 l 18
 884.96 662.4 802.577 755 593 755 c 10
 260 755 l 25
 535 755 l 2
 743 755 866 844 904 1025 c 2
 912 1063 l 2
 954.853 1258.9 847.032 1295 648 1295 c 2
 373 1295 l 1
 126 105 l 1
 459 105 l 2
 667 105 781 156 819 337 c 10
EndSplineSet
EndChar

StartChar: C
Encoding: 67 67 34
Width: 1075
VWidth: 1947
GlyphClass: 2
Flags: MW
LayerCount: 2
Fore
SplineSet
783 315 m 1
 713 177 618.426 80 476 80 c 2
 414 80 l 2
 209.449 80 148 274 229 657 c 2
 249 752 l 2
 316 1046 424 1320 675 1320 c 2
 726 1320 l 2
 875 1320 936 1219 945 1074 c 1
EndSplineSet
EndChar

StartChar: D
Encoding: 68 68 35
Width: 1075
VWidth: 1947
GlyphClass: 2
Flags: MW
LayerCount: 2
Fore
SplineSet
695 1295 m 2
 919 1295 1000 1146 917 754 c 2
 894 647 l 2
 829 340 712 105 449 105 c 2
 126 105 l 1
 373 1295 l 1
 695 1295 l 2
EndSplineSet
EndChar

StartChar: E
Encoding: 69 69 36
Width: 1075
VWidth: 1708
GlyphClass: 2
Flags: MW
LayerCount: 2
Back
SplineSet
-480 -66 m 5
 -112 1707 l 5
 1212 1707 l 5
 1048 918 l 5
 936 908 l 5
 864 559 l 5
 972 551 l 5
 843 -66 l 5
 -480 -66 l 5
EndSplineSet
Fore
SplineSet
1090 755 m 25
 260 755 l 25
1228 1295 m 25
 373 1295 l 25
 126 106 l 25
 982 106 l 25
EndSplineSet
EndChar

StartChar: F
Encoding: 70 70 37
Width: 1075
VWidth: 1708
GlyphClass: 2
Flags: MW
LayerCount: 2
Back
SplineSet
-464 0 m 5
 -112 1707 l 5
 1212 1707 l 5
 1048 918 l 5
 936 908 l 5
 864 559 l 5
 972 551 l 5
 859 0 l 5
 -464 0 l 5
EndSplineSet
Fore
SplineSet
1090 755 m 25
 260 755 l 25
1228 1295 m 25
 373 1295 l 25
 67 -176 l 25
EndSplineSet
EndChar

StartChar: G
Encoding: 71 71 38
Width: 1075
VWidth: 1947
GlyphClass: 2
Flags: MW
LayerCount: 2
Fore
SplineSet
945 1074 m 1
 935 1219 878 1320 724 1320 c 2
 674 1320 l 2
 420 1319 310 1036 244 736 c 2
 228 660 l 2
 151 270 209 80 419 80 c 2
 469 80 l 2
 617 80 739 149 809 289 c 9
 878 617 l 1
 604 617 l 25
EndSplineSet
EndChar

StartChar: H
Encoding: 72 72 39
Width: 1075
VWidth: 1947
GlyphClass: 2
Flags: W
LayerCount: 2
Back
SplineSet
-127 0 m 5
 -179 1400 l 5
 1375 1400 l 5
 1427 0 l 5
 -127 0 l 5
EndSplineSet
Fore
SplineSet
250 700 m 25
 895 700 l 25
1074 1560 m 25
 722 -128 l 25
429 1560 m 25
 77 -128 l 25
EndSplineSet
EndChar

StartChar: I
Encoding: 73 73 40
Width: 1075
VWidth: 1947
GlyphClass: 2
Flags: MW
LayerCount: 2
Back
SplineSet
-25 -108 m 5
 343 1663 l 5
 1198 1663 l 5
 830 -108 l 5
 -25 -108 l 5
EndSplineSet
Fore
SplineSet
-84 105 m 25
 1063 105 l 25
116 1295 m 25
 1240 1295 l 1
695 1296 m 1
 449 105 l 9
EndSplineSet
EndChar

StartChar: J
Encoding: 74 74 41
Width: 1075
VWidth: 1947
GlyphClass: 2
Flags: MW
LayerCount: 2
Back
SplineSet
-199 -108 m 5
 53 1104 l 5
 492 1104 l 5
 608 1663 l 5
 1212 1663 l 5
 844 -108 l 5
 -199 -108 l 5
EndSplineSet
Fore
SplineSet
113 240 m 1
 121 124 204 80 328 80 c 10
 349 80 l 18
 505 80 625 156 663 337 c 10
 862 1295 l 25
345 1295 m 25
 1321 1295 l 25
EndSplineSet
EndChar

StartChar: K
Encoding: 75 75 42
Width: 1075
VWidth: 1947
GlyphClass: 2
Flags: MW
LayerCount: 2
Back
SplineSet
185 1400 m 5
 1251 1400 l 5
 959 0 l 5
 -107 0 l 5
 185 1400 l 5
EndSplineSet
Fore
SplineSet
825 -141 m 25
 497 765 l 25
1158 1524 m 25
 204 485 l 25
422 1528 m 25
 75 -136 l 25
EndSplineSet
EndChar

StartChar: L
Encoding: 76 76 43
Width: 1075
VWidth: 1947
GlyphClass: 2
Flags: MW
LayerCount: 2
Back
SplineSet
185 1400 m 5
 1146 1400 l 5
 814 -192 l 5
 -147 -192 l 5
 185 1400 l 5
EndSplineSet
Fore
SplineSet
436 1596 m 25
 126 106 l 25
 1097 106 l 25
EndSplineSet
EndChar

StartChar: M
Encoding: 77 77 44
Width: 1075
VWidth: 1947
GlyphClass: 2
Flags: MW
LayerCount: 2
Back
SplineSet
-107 0 m 5
 185 1400 l 5
 1251 1400 l 5
 959 0 l 5
 599 0 l 5
 649 242 l 5
 311 242 l 5
 260 0 l 5
 -107 0 l 5
EndSplineSet
Fore
SplineSet
-12 -75 m 25
 419 1401 l 25
 500 351 l 25
 1018 1401 l 25
 832 -75 l 25
EndSplineSet
EndChar

StartChar: N
Encoding: 78 78 45
Width: 1075
VWidth: 1947
GlyphClass: 2
Flags: MW
LayerCount: 2
Back
SplineSet
185 1400 m 5
 1251 1400 l 5
 959 0 l 5
 -107 0 l 5
 185 1400 l 5
EndSplineSet
Fore
SplineSet
68 -168 m 25
 378 1320 l 25
 765 79 l 25
 1073 1556 l 25
EndSplineSet
EndChar

StartChar: O
Encoding: 79 79 46
Width: 1075
VWidth: 1947
GlyphClass: 2
Flags: MW
LayerCount: 2
Fore
SplineSet
716 1320 m 6
 936 1312 990.679 1133.06 916 749 c 5
 894 645 l 6
 824.622 344.037 712 80 461 80 c 6
 426 80 l 6
 207 89 156.441 271.739 228 651 c 5
 248 747 l 6
 315.733 1048.36 426 1310 685 1320 c 6
 716 1320 l 6
EndSplineSet
EndChar

StartChar: P
Encoding: 80 80 47
Width: 1075
VWidth: 1947
GlyphClass: 2
Flags: MW
LayerCount: 2
Back
SplineSet
185 1400 m 5
 1251 1400 l 5
 959 0 l 5
 -107 0 l 5
 185 1400 l 5
EndSplineSet
Fore
SplineSet
247 685 m 25
 580 685 l 2
 788 685 907 761 944 942 c 2
 970 1063 l 2
 1009.33 1249.81 921.516 1295 706 1295 c 2
 373 1295 l 1
 68 -171 l 1
EndSplineSet
EndChar

StartChar: Q
Encoding: 81 81 48
Width: 1075
VWidth: 1947
GlyphClass: 2
Flags: MW
LayerCount: 2
Fore
SplineSet
716 1320 m 2
 936 1312 990.679 1133.06 916 749 c 1
 894 645 l 2
 824.622 344.037 712 80 461 80 c 2
 426 80 l 2
 207 89 156.441 271.739 228 651 c 1
 248 747 l 2
 315.733 1048.36 426 1310 685 1320 c 2
 716 1320 l 2
509 399 m 25
 718 -144 l 25
EndSplineSet
EndChar

StartChar: R
Encoding: 82 82 49
Width: 1075
VWidth: 1947
GlyphClass: 2
Flags: MW
LayerCount: 2
Back
SplineSet
197 1458 m 5
 1263 1458 l 5
 959 0 l 5
 -107 0 l 5
 197 1458 l 5
EndSplineSet
Fore
SplineSet
822 -102 m 25
 568 680 l 25
247 685 m 25
 580 685 l 2
 788 685 907 762 944 943 c 2
 970 1063 l 2
 1009.33 1249.81 921.516 1295 706 1295 c 2
 373 1295 l 1
 66 -180 l 1
EndSplineSet
EndChar

StartChar: S
Encoding: 83 83 50
Width: 1075
VWidth: 2334
GlyphClass: 2
Flags: MW
LayerCount: 2
Fore
SplineSet
124 308 m 0
 129 176 270 80 432 80 c 10
 453 80 l 18
 631 80 810 183 842 337 c 10
 848 367 l 18
 870.977 477.287 836.829 621.938 709 684 c 2
 433 818 l 2
 311.115 877.176 315.857 982.283 326 1033 c 2
 332 1063 l 2
 364 1218 518 1320 697 1320 c 10
 705 1320 l 18
 859 1320 974 1260 991 1145 c 1
EndSplineSet
EndChar

StartChar: T
Encoding: 84 84 51
Width: 1075
VWidth: 1947
GlyphClass: 2
Flags: MW
LayerCount: 2
Back
SplineSet
278 1458 m 5
 1182 1458 l 5
 878 0 l 5
 -26 0 l 5
 278 1458 l 5
EndSplineSet
Fore
SplineSet
383 -207 m 25
 695 1295 l 25
93 1295 m 25
 1286 1295 l 25
EndSplineSet
EndChar

StartChar: U
Encoding: 85 85 52
Width: 1075
VWidth: 1947
GlyphClass: 2
Flags: MW
LayerCount: 2
Back
SplineSet
102 1400 m 5
 1330 1400 l 5
 1015 -99 l 5
 -213 -99 l 5
 102 1400 l 5
EndSplineSet
Fore
SplineSet
424 1536 m 25
 174 337 l 18
 136.622 157.737 219.24 80 432 80 c 10
 453 80 l 18
 661 80 781 156 819 337 c 10
 1072 1551 l 25
EndSplineSet
EndChar

StartChar: V
Encoding: 86 86 53
Width: 1075
VWidth: 1708
GlyphClass: 2
Flags: MW
LayerCount: 2
Back
SplineSet
-112 -25 m 5
 185 1400 l 5
 1251 1400 l 5
 954 -25 l 5
 -112 -25 l 5
EndSplineSet
Fore
SplineSet
362 1494 m 25
 437 50 l 25
 1166 1605 l 25
EndSplineSet
EndChar

StartChar: W
Encoding: 87 87 54
Width: 1075
VWidth: 1947
GlyphClass: 2
Flags: MW
LayerCount: 2
Back
SplineSet
185 1400 m 5
 552 1400 l 5
 501 1158 l 5
 839 1158 l 5
 891 1400 l 5
 1251 1400 l 5
 959 0 l 5
 -107 0 l 5
 185 1400 l 5
EndSplineSet
Fore
SplineSet
312 1475 m 25
 127 -1 l 25
 645 1049 l 25
 725 -1 l 25
 1156 1475 l 25
EndSplineSet
EndChar

StartChar: X
Encoding: 88 88 55
Width: 1075
VWidth: 1947
GlyphClass: 2
Flags: MW
LayerCount: 2
Back
SplineSet
185 1400 m 5
 1251 1400 l 5
 959 0 l 5
 -107 0 l 5
 185 1400 l 5
EndSplineSet
Fore
SplineSet
1104 1480 m 25
 41 -80 l 25
366 1480 m 25
 778 -80 l 25
EndSplineSet
EndChar

StartChar: Y
Encoding: 89 89 56
Width: 1075
VWidth: 1947
GlyphClass: 2
Flags: MW
LayerCount: 2
Back
SplineSet
185 1400 m 5
 1251 1400 l 5
 949 -25 l 5
 -116 -25 l 5
 185 1400 l 5
EndSplineSet
Fore
SplineSet
1104 1480 m 17
 533 513 l 1
 387 -171 l 9
366 1480 m 25
 533 513 l 25
EndSplineSet
EndChar

StartChar: Z
Encoding: 90 90 57
Width: 1075
VWidth: 1947
GlyphClass: 2
Flags: MW
LayerCount: 2
Back
SplineSet
294 1425 m 5
 1152 1425 l 5
 850 -25 l 5
 -8 -25 l 5
 294 1425 l 5
EndSplineSet
Fore
SplineSet
163 1295 m 25
 1018 1295 l 25
 126 106 l 25
 1016 106 l 25
EndSplineSet
EndChar

StartChar: bracketleft
Encoding: 91 91 58
Width: 1075
VWidth: 1947
GlyphClass: 2
Flags: MW
LayerCount: 2
Back
SplineSet
349 1686 m 5
 1101 1686 l 5
 684 -315 l 5
 -69 -315 l 5
 349 1686 l 5
EndSplineSet
Fore
SplineSet
1219 1480 m 17
 607 1480 l 1
 281 -80 l 25
 894 -80 l 9
EndSplineSet
EndChar

StartChar: backslash
Encoding: 92 92 59
Width: 1075
VWidth: 1708
GlyphClass: 2
Flags: MW
LayerCount: 2
Fore
SplineSet
744 -25 m 29
 401 1425 l 29
EndSplineSet
EndChar

StartChar: bracketright
Encoding: 93 93 60
Width: 1075
VWidth: 1947
GlyphClass: 2
Flags: MW
LayerCount: 2
Back
SplineSet
455 1686 m 5
 1207 1686 l 5
 790 -315 l 5
 38 -315 l 5
 455 1686 l 5
EndSplineSet
Fore
SplineSet
285 1480 m 17
 863 1480 l 1
 538 -80 l 25
 -40 -80 l 9
EndSplineSet
EndChar

StartChar: asciicircum
Encoding: 94 94 61
Width: 1075
VWidth: 1947
GlyphClass: 2
Flags: MW
LayerCount: 2
Back
SplineSet
268 1425 m 1
 1190 1425 l 1
 887 0 l 1
 -35 0 l 1
 268 1425 l 1
EndSplineSet
Fore
SplineSet
350 957 m 25
 714 1353 l 25
 908 957 l 25
EndSplineSet
EndChar

StartChar: underscore
Encoding: 95 95 62
Width: 1075
VWidth: 1947
GlyphClass: 2
Flags: MW
LayerCount: 2
Fore
SplineSet
35 -92 m 29
 777 -92 l 29
EndSplineSet
EndChar

StartChar: grave
Encoding: 96 96 63
Width: 1075
VWidth: 1708
GlyphClass: 2
Flags: HMW
HStem: 1405 20G<557 588>
LayerCount: 2
Fore
SplineSet
873 1127 m 6
 878 1118 880 1107 880 1096 c 7
 880 1067 865 1037 844 1023 c 4
 834 1016 820 1013 805 1013 c 7
 781 1013 754 1022 738 1039 c 6
 569 1250 l 6
 554 1268 547 1292 547 1317 c 7
 547 1354 562 1391 592 1410 c 4
 609 1421 628 1425 646 1425 c 7
 690 1425 733 1398 749 1366 c 6
 873 1127 l 6
EndSplineSet
EndChar

StartChar: a
Encoding: 97 97 64
Width: 1075
VWidth: 1947
GlyphClass: 2
Flags: MW
LayerCount: 2
Back
SplineSet
24 -25 m 1
 -17 1064 l 1
 867 1064 l 1
 857 1024 l 1
 1166 1024 l 1
 1078 274 l 1
 1049 274 l 1
 986 -25 l 1
 24 -25 l 1
EndSplineSet
Fore
SplineSet
228 597 m 10
 193 427 l 18
 150.92 222.61 237.356 80 432 80 c 10
 453 80 l 18
 661 80 791 201 838 427 c 10
 873 597 l 18
 918.545 815.617 857.487 944 632 944 c 10
 611 944 l 18
 403 944 275 821 228 597 c 10
985 1136 m 17
 819 337 l 2
 781 157 820 105 1073 104 c 9
EndSplineSet
EndChar

StartChar: b
Encoding: 98 98 65
Width: 1075
VWidth: 2334
GlyphClass: 2
Flags: MW
LayerCount: 2
Back
SplineSet
-65 0 m 5
 227 1400 l 5
 1381 1400 l 5
 1077 -47 l 5
 254 -47 l 5
 256 0 l 5
 -65 0 l 5
EndSplineSet
Fore
SplineSet
425 1542 m 25
 78 -124 l 25
228 597 m 10
 193 427 l 18
 150.92 222.61 237.356 80 432 80 c 10
 453 80 l 18
 661 80 791 201 838 427 c 10
 873 597 l 18
 918.545 815.617 857.487 944 632 944 c 10
 611 944 l 18
 403 944 275 821 228 597 c 10
EndSplineSet
EndChar

StartChar: c
Encoding: 99 99 66
Width: 1075
VWidth: 2334
GlyphClass: 2
Flags: MW
LayerCount: 2
Fore
SplineSet
898 798 m 1
 882 904 792 943 632 943 c 10
 612 943 l 18
 403 943 275 821 228 597 c 10
 193 427 l 18
 150.261 219.409 240.8 80 432 80 c 10
 453 80 l 18
 610 80 715 118 776 220 c 1
EndSplineSet
EndChar

StartChar: d
Encoding: 100 100 67
Width: 1075
VWidth: 1947
GlyphClass: 2
Flags: MW
LayerCount: 2
Back
SplineSet
185 1400 m 5
 1251 1400 l 5
 953 -25 l 5
 640 -25 l 5
 630 -72 l 5
 -122 -72 l 5
 185 1400 l 5
EndSplineSet
Fore
SplineSet
1077 1575 m 25
 691 -276 l 25
228 597 m 10
 193 427 l 18
 150.261 219.409 240.8 80 432 80 c 10
 453 80 l 18
 661 80 791 201 838 427 c 10
 873 597 l 18
 918.75 821.174 849.832 944 632 944 c 10
 611 944 l 18
 403 944 275 821 228 597 c 10
EndSplineSet
EndChar

StartChar: e
Encoding: 101 101 68
Width: 1075
VWidth: 1947
GlyphClass: 2
Flags: MW
LayerCount: 2
Fore
SplineSet
220 561 m 25
 865 561 l 25
 892 687 l 18
 929.502 862.008 855.671 944 632 944 c 10
 611 944 l 18
 403 944 284 866 247 687 c 10
 174 337 l 18
 136.611 157.739 219.24 80 432 80 c 10
 453 80 l 18
 617 80 725 122 784 234 c 1
EndSplineSet
EndChar

StartChar: f
Encoding: 102 102 69
Width: 1075
VWidth: 1947
GlyphClass: 2
Flags: MW
LayerCount: 2
Fore
SplineSet
1080 1251 m 5
 1054 1303 990 1323 914 1323 c 15
 783 1323 688 1252 666 1152 c 14
 396 -128 l 22
 371 -250 263 -312 145 -312 c 7
 82 -312 10 -280 -19 -221 c 5
267 795 m 29
 951 795 l 29
EndSplineSet
EndChar

StartChar: g
Encoding: 103 103 70
Width: 1075
VWidth: 2334
GlyphClass: 2
Flags: MW
LayerCount: 2
Back
SplineSet
114 1059 m 5
 861 1059 l 5
 858 1024 l 5
 1174 1024 l 5
 867 -441 l 5
 102 -441 l 5
 184 -48 l 5
 -114 -33 l 5
 114 1059 l 5
EndSplineSet
Fore
SplineSet
33 -294 m 25
 361 -294 l 18
 571 -294 709 -176 746 0 c 10
 981 1116 l 25
228 597 m 10
 193 427 l 22
 150.92 222.61 237.356 80 432 80 c 10
 453 80 l 18
 661 80 791 201 838 427 c 10
 873 597 l 18
 918.545 815.617 857.487 944 632 944 c 10
 611 944 l 18
 403 944 275 821 228 597 c 10
EndSplineSet
EndChar

StartChar: h
Encoding: 104 104 71
Width: 1075
VWidth: 1947
GlyphClass: 2
Flags: MW
LayerCount: 2
Back
SplineSet
185 1400 m 5
 1251 1400 l 5
 959 0 l 5
 -106 0 l 5
 185 1400 l 5
EndSplineSet
Fore
SplineSet
710 -183 m 25
 892 687 l 18
 928.648 862.188 855.671 944 632 944 c 10
 611 944 l 18
 429 944 255 731 228 597 c 10
 210 513 l 25
425 1542 m 25
 68 -171 l 25
EndSplineSet
EndChar

StartChar: k
Encoding: 107 107 74
Width: 1075
VWidth: 1947
GlyphClass: 2
Flags: MW
LayerCount: 2
Back
SplineSet
190 1425 m 5
 1256 1425 l 5
 959 0 l 5
 -107 0 l 5
 190 1425 l 5
EndSplineSet
Fore
SplineSet
898 -132 m 17
 646 118 l 2
 511 235 425 395 404 561 c 9
957 1002 m 17
 843 926 l 2
 749 874 670 824 598 756 c 2
 490 654 l 2
 324 497 216 323 144 192 c 9
456 1692 m 25
 68 -168 l 25
EndSplineSet
EndChar

StartChar: l
Encoding: 108 108 75
Width: 1075
VWidth: 1947
GlyphClass: 2
Flags: MW
LayerCount: 2
Back
SplineSet
401 1425 m 5
 1044 1425 l 5
 747 0 l 5
 103 0 l 5
 401 1425 l 5
EndSplineSet
Fore
SplineSet
-59 105 m 25
 933 105 l 25
449 92 m 17
188 1295 m 25
 695 1295 l 25
 449 105 l 25
EndSplineSet
EndChar

StartChar: m
Encoding: 109 109 76
Width: 1075
VWidth: 1947
GlyphClass: 2
Flags: MW
LayerCount: 2
Back
SplineSet
112 1050 m 1
 1178 1050 l 1
 959 0 l 1
 -107 0 l 1
 112 1050 l 1
EndSplineSet
Fore
SplineSet
754 -99 m 25
 937 777 l 18
 961.072 892.232 957.174 944 835 944 c 10
 823 944 l 18
 710 944 598 821 569 687 c 10
 551 603 l 25
405 -99 m 25
 588 777 l 18
 610.869 886.474 592.191 944 466 944 c 10
 454 944 l 18
 341 944 249 821 220 687 c 10
 203 603 l 25
322 1164 m 25
 57 -99 l 25
EndSplineSet
EndChar

StartChar: n
Encoding: 110 110 77
Width: 1075
VWidth: 1947
GlyphClass: 2
Flags: W
LayerCount: 2
Back
SplineSet
102 1024 m 5
 452 1024 l 5
 459 1049 l 5
 1178 1050 l 5
 959 0 l 5
 -107 0 l 5
 102 1024 l 5
EndSplineSet
Fore
SplineSet
715 -159 m 25
 892 687 l 18
 928.652 862.188 855.671 944 632 944 c 10
 611 944 l 18
 429 944 255 731 228 597 c 10
 210 513 l 25
355 1206 m 25
 70 -159 l 25
EndSplineSet
EndChar

StartChar: o
Encoding: 111 111 78
Width: 1075
VWidth: 1947
GlyphClass: 2
Flags: MW
LayerCount: 2
Fore
SplineSet
228 597 m 10
 193 427 l 18
 150.261 219.409 240.8 80 432 80 c 10
 453 80 l 18
 661 80 791 201 838 427 c 10
 873 597 l 18
 918.75 821.174 849.832 944 632 944 c 10
 611 944 l 18
 403 944 275 821 228 597 c 10
EndSplineSet
EndChar

StartChar: p
Encoding: 112 112 79
Width: 1075
VWidth: 1947
GlyphClass: 2
Flags: MW
LayerCount: 2
Back
SplineSet
101 1024 m 5
 418 1024 l 5
 427 1074 l 5
 1183 1074 l 5
 878 -384 l 5
 -187 -384 l 5
 101 1024 l 5
EndSplineSet
Fore
SplineSet
228 597 m 10
 193 427 l 18
 150.92 222.61 237.356 80 432 80 c 10
 453 80 l 18
 661 80 791 201 838 427 c 10
 873 597 l 18
 918.545 815.617 857.487 944 632 944 c 10
 611 944 l 18
 403 944 275 821 228 597 c 10
347 1167 m 25
 -22 -600 l 25
EndSplineSet
EndChar

StartChar: q
Encoding: 113 113 80
Width: 1075
VWidth: 1947
GlyphClass: 2
Flags: MW
LayerCount: 2
Back
SplineSet
119 1083 m 5
 842 1083 l 5
 831 1024 l 5
 1170 1024 l 5
 878 -384 l 5
 -187 -384 l 5
 119 1083 l 5
EndSplineSet
Fore
SplineSet
1001 1212 m 25
 634 -549 l 25
228 597 m 10
 193 427 l 18
 150.261 219.409 240.8 80 432 80 c 10
 453 80 l 18
 661 80 791 201 838 427 c 10
 873 597 l 18
 918.75 821.174 849.832 944 632 944 c 10
 611 944 l 18
 403 944 275 821 228 597 c 10
EndSplineSet
EndChar

StartChar: r
Encoding: 114 114 81
Width: 1075
VWidth: 1947
GlyphClass: 2
Flags: MW
LayerCount: 2
Back
SplineSet
101 1024 m 5
 446 1024 l 5
 455 1074 l 5
 1183 1074 l 5
 955 0 l 5
 -110 0 l 5
 101 1024 l 5
EndSplineSet
Fore
SplineSet
929 832 m 1
 903 905 838 944 713 944 c 10
 692 944 l 18
 484 944 249 694 202 470 c 10
 166 300 l 17
355 1206 m 25
 64 -189 l 25
EndSplineSet
EndChar

StartChar: s
Encoding: 115 115 82
Width: 1075
VWidth: 1947
GlyphClass: 2
Flags: MW
LayerCount: 2
Fore
SplineSet
888 778 m 1
 859 876 753 944 632 944 c 10
 611 944 l 18
 455 944 296 905 265 780 c 2
 262 768 l 2
 236 664 329 615 383 594 c 2
 663 486 l 2
 707 469 833 402 811 301 c 2
 808 287 l 2
 780 151 609 80 453 80 c 10
 398 80 l 18
 258 80 140 174 136 292 c 0
EndSplineSet
EndChar

StartChar: t
Encoding: 116 116 83
Width: 1075
VWidth: 1947
GlyphClass: 2
Flags: MW
LayerCount: 2
Back
SplineSet
295 1425 m 5
 1046 1425 l 5
 895 705 l 5
 1106 705 l 5
 941 -84 l 5
 -19 -84 l 5
 295 1425 l 5
EndSplineSet
Fore
SplineSet
-0 903 m 25
 1075 903 l 25
766 182 m 1
 719 119 632 80 554 80 c 10
 533 80 l 18
 446.815 80 339.234 133.788 360 248 c 1
 625 1506 l 9
EndSplineSet
EndChar

StartChar: u
Encoding: 117 117 84
Width: 1075
VWidth: 1947
GlyphClass: 2
Flags: MW
LayerCount: 2
Back
SplineSet
101 1024 m 5
 1174 1024 l 5
 955 0 l 5
 641 0 l 5
 633 -33 l 5
 -114 -33 l 5
 101 1024 l 5
EndSplineSet
Fore
SplineSet
347 1167 m 25
 174 337 l 18
 137.906 163.832 184.469 80 409 80 c 10
 430 80 l 18
 613 80 814 313 842 447 c 10
 859 531 l 25
706 -204 m 25
 992 1167 l 25
EndSplineSet
EndChar

StartChar: v
Encoding: 118 118 85
Width: 1075
VWidth: 1947
GlyphClass: 2
Flags: MW
LayerCount: 2
Back
SplineSet
107 1024 m 5
 1173 1024 l 5
 954 -25 l 5
 -112 -25 l 5
 107 1024 l 5
EndSplineSet
Fore
SplineSet
328 1295 m 17
 279 944 l 2
 260.5 811.477 281.77 643.65 320 510 c 2
 443 80 l 1
 650 513 l 2
 708.094 634.521 801.753 786.306 864 873 c 2
 1167 1295 l 9
EndSplineSet
EndChar

StartChar: w
Encoding: 119 119 86
Width: 1075
VWidth: 1947
GlyphClass: 2
Flags: MW
LayerCount: 2
Back
SplineSet
107 1024 m 5
 473 1024 l 5
 451 919 l 5
 789 919 l 5
 812 1024 l 5
 1173 1024 l 5
 959 0 l 5
 -107 0 l 5
 107 1024 l 5
EndSplineSet
Fore
SplineSet
234 1099 m 17
 202 905 l 2
 176 742 157 592 154 429 c 2
 149 105 l 1
 315 429 l 2
 361 528 413 598 477 675 c 2
 598 823 l 1
 605 669 l 2
 609 588 622 506 645 426 c 2
 748 105 l 1
 838 429 l 2
 886 608 933 747 1000 908 c 2
 1077 1099 l 9
EndSplineSet
EndChar

StartChar: x
Encoding: 120 120 87
Width: 1075
VWidth: 1947
GlyphClass: 2
Flags: MW
LayerCount: 2
Back
SplineSet
107 1024 m 5
 1173 1024 l 5
 959 0 l 5
 -107 0 l 5
 107 1024 l 5
EndSplineSet
Fore
SplineSet
1077 1194 m 17
 834 855 l 2
 652 601 459 366 251 159 c 2
 -85 -174 l 9
244 1182 m 17
 800 -120 l 9
EndSplineSet
EndChar

StartChar: y
Encoding: 121 121 88
Width: 1075
VWidth: 1947
GlyphClass: 2
Flags: MW
LayerCount: 2
Back
SplineSet
-192 -410 m 5
 107 1024 l 5
 1173 1024 l 5
 874 -410 l 5
 -192 -410 l 5
EndSplineSet
Fore
SplineSet
1124 1295 m 1
 458 -110 l 2
 408.9 -213.582 320 -294 207 -294 c 1
 123 -294 51 -240 34 -170 c 1
567 126 m 1
 387 454 307 808 309 1239 c 9
EndSplineSet
EndChar

StartChar: z
Encoding: 122 122 89
Width: 1075
VWidth: 1947
GlyphClass: 2
Flags: MW
LayerCount: 2
Back
SplineSet
270 1049 m 5
 1079 1049 l 5
 856 -25 l 5
 -11 -25 l 5
 138 690 l 5
 201 717 l 5
 270 1049 l 5
EndSplineSet
Fore
SplineSet
61 919 m 25
 940 919 l 25
 126 105 l 25
 901 105 l 25
EndSplineSet
EndChar

StartChar: braceleft
Encoding: 123 123 90
Width: 1075
VWidth: 1947
GlyphClass: 2
Flags: MW
LayerCount: 2
Back
SplineSet
-31 -410 m 5
 404 1638 l 5
 1055 1638 l 5
 620 -410 l 5
 -31 -410 l 5
EndSplineSet
Fore
SplineSet
1130 1480 m 17
 900 1480 l 2
 750 1480 604.432 1359.91 572 1210 c 2
 527 1002 l 2
 497 862 392 732 240 732 c 2
 60 732 l 1
 240 732 l 2
 393.158 732 441.742 600.797 412 462 c 2
 355 190 l 2
 324.063 42.386 417.553 -80 568 -80 c 10
 798 -80 l 9
EndSplineSet
EndChar

StartChar: bar
Encoding: 124 124 91
Width: 1075
VWidth: 1947
GlyphClass: 2
Flags: MW
LayerCount: 2
Back
SplineSet
37.4199 -78 m 5
 367.729 1476 l 5
 1018.73 1476 l 5
 688.42 -78 l 5
 37.4199 -78 l 5
EndSplineSet
Fore
SplineSet
373.9 -231 m 25
 767.066 1614 l 25
EndSplineSet
EndChar

StartChar: braceright
Encoding: 125 125 92
Width: 1075
VWidth: 1947
GlyphClass: 2
Flags: MW
LayerCount: 2
Back
SplineSet
-31 -410 m 5
 404 1638 l 5
 1055 1638 l 5
 620 -410 l 5
 -31 -410 l 5
EndSplineSet
Fore
SplineSet
230 1480 m 17
 490 1480 l 2
 637.95 1480 733.982 1362.62 702 1210 c 2
 644.562 936 l 2
 614.538 795.911 665.91 666 817.562 666 c 6
 1028.56 666 l 1
 817.562 666 l 2
 665.562 666 559.562 536 529.562 396 c 2
 485 190 l 2
 452.615 40.292 308 -80 158 -80 c 10
 -102 -80 l 9
EndSplineSet
EndChar

StartChar: asciitilde
Encoding: 126 126 93
Width: 1075
VWidth: 1947
GlyphClass: 2
Flags: MW
LayerCount: 2
Fore
SplineSet
274 800 m 17
 328 908 387 977 460 977 c 10
 475 977 l 18
 504 977 559 960 580 933 c 2
 654 841 l 2
 673 816 728 801 755 801 c 10
 770 801 l 18
 851 801 907 886 957 977 c 9
EndSplineSet
EndChar

StartChar: cent
Encoding: 162 162 96
Width: 1075
VWidth: 1947
GlyphClass: 2
Flags: MW
LayerCount: 2
Back
SplineSet
-130 -111 m 5
 143 1197 l 5
 1208 1197 l 5
 936 -111 l 5
 -130 -111 l 5
EndSplineSet
Fore
SplineSet
254 -252 m 25
 909 1346 l 25
898 798 m 1
 882 904 792 943 632 943 c 10
 612 943 l 18
 403 943 275 821 228 597 c 10
 193 427 l 18
 150.261 219.409 240.8 80 432 80 c 10
 453 80 l 18
 610 80 715 118 776 220 c 1
EndSplineSet
EndChar

StartChar: sterling
Encoding: 163 163 97
Width: 1075
VWidth: 1947
GlyphClass: 2
Flags: MW
LayerCount: 2
Back
SplineSet
-199 -111 m 5
 -59 561 l 5
 98 579 l 5
 165 900 l 5
 11 902 l 5
 135 1491 l 5
 1327 1491 l 5
 1204 902 l 5
 915 897 l 5
 844 558 l 5
 1129 540 l 5
 994 -111 l 5
 -199 -111 l 5
EndSplineSet
Fore
SplineSet
28 699 m 17
 1022 699 l 9
948 1200 m 1
 907 1280 815 1320 711 1320 c 10
 690 1320 l 18
 534 1320 352 1197 325 1063 c 10
 317 1024 l 18
 303.21 945.854 316.078 909.79 342 840 c 2
 404 678 l 2
 420.727 634.295 432.709 576.321 419 516 c 10
 410 470 l 18
 375 305 187.87 148.964 93 105 c 2
 11 67 l 1
 93 105 l 2
 190.34 150.109 244 156 344 156 c 10
 367 156 l 18
 407 156 446.591 143.465 472 131 c 2
 525 105 l 2
 542 95 606 80 629 80 c 10
 661 80 l 18
 735 80 828 108 874 147 c 9
EndSplineSet
EndChar

StartChar: euro
Encoding: 8364 8364 98
Width: 1075
VWidth: 1947
GlyphClass: 2
Flags: MW
LayerCount: 2
Fore
SplineSet
875 314 m 1
 801 171 699 80 547 80 c 2
 523 80 l 2
 311 80 239 270 312 603 c 2
 360 822 l 2
 419 1092 519 1320 776 1320 c 2
 807 1320 l 2
 936 1320 1002 1258 1027 1152 c 1
719 565 m 25
 80 565 l 25
934 875 m 25
 180 875 l 25
EndSplineSet
EndChar

StartChar: yen
Encoding: 165 165 99
Width: 1075
VWidth: 1947
GlyphClass: 2
Flags: MW
LayerCount: 2
Back
SplineSet
185 1400 m 5
 1251 1400 l 5
 1025 828 l 5
 819 -160 l 5
 -34 -160 l 5
 171 822 l 5
 185 1400 l 5
EndSplineSet
Fore
SplineSet
-98 155 m 17
 1049 155 l 9
-23 512 m 17
 1124 512 l 9
1154 1569 m 17
 533 513 l 1
 358 -327 l 9
349 1563 m 25
 533 513 l 25
EndSplineSet
EndChar

StartChar: section
Encoding: 167 167 101
Width: 1075
VWidth: 1947
GlyphClass: 2
Flags: MW
LayerCount: 2
Fore
SplineSet
647 957 m 1
 517 989 394 1092 394 1209 c 10
 394 1232 l 18
 394 1347 521 1472 660 1472 c 10
 679 1472 l 18
 783 1472 886 1390 934 1306 c 1
516 415 m 1
 626 382 725 283 725 187 c 10
 725 164 l 18
 725 42 596 -76 458 -76 c 10
 439 -76 l 18
 327 -76 216 12 174 106 c 1
563 970 m 18
 721 970 891 844 891 710 c 10
 891 684 l 18
 891 540 746 411 588 411 c 10
 567 411 l 18
 408 411 242 543 242 684 c 10
 242 710 l 18
 242 843 384 970 542 970 c 10
 563 970 l 18
EndSplineSet
EndChar

StartChar: copyright
Encoding: 169 169 103
Width: 1075
VWidth: 1947
GlyphClass: 2
Flags: MW
LayerCount: 2
Fore
SplineSet
538 1066.95 m 3
 841 1066.95 996 838.1 996 593.15 c 3
 996 356.25 841 117.05 538 117.05 c 3
 239 117.05 80 348.2 80 593.15 c 3
 80 841.55 243 1066.95 538 1066.95 c 3
707 431 m 1
 669 390.75 612 364.3 538 364.3 c 3
 388 364.3 309 470.1 309 592 c 3
 309 717.35 391 819.7 538 819.7 c 3
 612 819.7 668 795.55 706 755.3 c 1
EndSplineSet
EndChar

StartChar: ordfeminine
Encoding: 170 170 104
Width: 1075
VWidth: 1947
GlyphClass: 2
Flags: MW
LayerCount: 2
Back
SplineSet
-26 -111 m 5
 100 495 l 5
 -1 510 l 5
 216 1551 l 5
 1282 1551 l 5
 1071 539 l 5
 701 539 l 5
 677 423 l 5
 943 423 l 5
 832 -111 l 5
 -26 -111 l 5
EndSplineSet
Fore
SplineSet
-98 319 m 17
 1026 319 l 9
911 1013 m 25
 629 1013 l 18
 452 1013 339 897 324 822 c 10
 315 783 l 18
 301.281 728.123 343.996 593 540 593 c 10
 559 593 l 18
 691 593 855 745 872 822 c 10
432 1234 m 1
 485 1311 570 1336 695 1336 c 10
 712 1336 l 18
 889.225 1336 964.5 1272.8 933 1120 c 10
 799 470 l 25
EndSplineSet
EndChar

StartChar: guillemotleft
Encoding: 171 171 105
Width: 1075
VWidth: 1947
GlyphClass: 2
Flags: MW
LayerCount: 2
Fore
SplineSet
770 156 m 29
 647 425 l 29
 666 512 l 29
 903 782 l 29
350 156 m 29
 227 425 l 29
 246 512 l 29
 483 782 l 29
EndSplineSet
EndChar

StartChar: logicalnot
Encoding: 172 172 106
Width: 1075
VWidth: 1947
GlyphClass: 2
Flags: MW
LayerCount: 2
Back
SplineSet
67.2891 246 m 5
 269.428 1197 l 5
 1141.43 1197 l 5
 939.289 246 l 5
 67.2891 246 l 5
EndSplineSet
Fore
SplineSet
33 600 m 25
 833 600 l 25
 711.376 30 l 25
EndSplineSet
EndChar

StartChar: softhyphen
Encoding: 173 173 107
Width: 1075
VWidth: 1947
GlyphClass: 2
Flags: MW
LayerCount: 2
Fore
SplineSet
299 600 m 29
 777 600 l 29
EndSplineSet
EndChar

StartChar: registered
Encoding: 174 174 108
Width: 1075
VWidth: 1947
GlyphClass: 2
Flags: MW
LayerCount: 2
Fore
SplineSet
722 342.45 m 29
 563 600.05 l 29
391 602.35 m 29
 555 602.35 l 6
 658 602.35 710 635.7 710 704.7 c 6
 710 744.95 l 6
 710 813.95 664 838.1 555 838.1 c 6
 391 838.1 l 5
 391 342.45 l 5
538 1066.95 m 7
 841 1066.95 996 840.4 996 595.45 c 7
 996 358.55 841 117.05 538 117.05 c 7
 239 117.05 80 350.5 80 595.45 c 7
 80 843.85 243 1066.95 538 1066.95 c 7
EndSplineSet
EndChar

StartChar: degree
Encoding: 176 176 110
Width: 1075
VWidth: 1947
GlyphClass: 2
Flags: MW
LayerCount: 2
Fore
SplineSet
678 1333 m 7
 827 1333 903 1229 903 1108 c 7
 903 991 827 882 678 882 c 7
 531 882 453 987 453 1108 c 7
 453 1231 533 1333 678 1333 c 7
EndSplineSet
EndChar

StartChar: plusminus
Encoding: 177 177 111
Width: 1075
VWidth: 1947
GlyphClass: 2
Flags: MW
LayerCount: 2
Fore
SplineSet
45 140 m 25
 867 140 l 25
515 419 m 25
 690 1241 l 25
191 830 m 25
 1013 830 l 25
EndSplineSet
EndChar

StartChar: twosuperior
Encoding: 178 178 112
Width: 1075
VWidth: 2334
GlyphClass: 2
Flags: MW
LayerCount: 2
Back
SplineSet
190 -25 m 1
 509 1479 l 1
 1201 1479 l 1
 1056.56 798 l 1
 819.332 787.5 l 1
 647 -25 l 1
 190 -25 l 1
EndSplineSet
Fore
SplineSet
561 1232 m 1
 600 1292 640 1333 725 1333 c 10
 735 1333 l 18
 836.52 1333 872.473 1280.54 852 1185 c 10
 847 1163 l 18
 840 1131 813 1093 774 1052 c 2
 540 811 l 2
 494 764 459 707 431 650 c 1
 899 650 l 9
EndSplineSet
EndChar

StartChar: threesuperior
Encoding: 179 179 113
Width: 1075
VWidth: 2334
GlyphClass: 2
Flags: MW
LayerCount: 2
Fore
SplineSet
516 1232 m 1
 554 1290 612 1328 682 1328 c 10
 694 1328 l 18
 790.022 1328 848.9 1264.5 831 1180 c 10
 826 1157 l 18
 814 1097 708 1022 620 1022 c 2
 538 1022 l 9
 649 1022 l 18
 771.686 1022 811.132 944.007 785 824 c 10
 783 813 l 18
 757 692 695 632 576 632 c 10
 564 632 l 18
 492.228 632 404.823 671.439 404.823 751.038 c 0
EndSplineSet
EndChar

StartChar: micro
Encoding: 181 181 115
Width: 1075
VWidth: 2334
GlyphClass: 2
Flags: MW
LayerCount: 2
Back
SplineSet
-179 -349 m 5
 106 1024 l 5
 1170 1024 l 5
 950 -42 l 5
 638 -42 l 5
 573 -349 l 5
 -179 -349 l 5
EndSplineSet
Fore
SplineSet
-168 -564 m 17
 2 -375 56 -231 99 -25 c 10
 211 516 l 25
372 1287 m 25
 186 397 l 18
 147.286 208.959 229.37 80 432 80 c 10
 453 80 l 18
 636 80 803 263 831 397 c 10
 859 531 l 25
807 -228 m 0
 771.493 -148.108 747.562 0.117933 773 116 c 2
 1017 1287 l 9
EndSplineSet
EndChar

StartChar: paragraph
Encoding: 182 182 116
Width: 1075
VWidth: 2334
GlyphClass: 2
Flags: MW
LayerCount: 2
Back
SplineSet
-110 0 m 5
 228 1602 l 5
 1293 1602 l 5
 957 0 l 5
 -110 0 l 5
EndSplineSet
Fore
SplineSet
434 890 m 25
 509 1240 l 25
708 -195 m 25
 1041 1400 l 25
 625 1400 l 25
484 727 m 25
 464 727 l 2
 270.782 727 252.316 882.282 290 1057 c 2
 297 1095 l 2
 335 1281 494 1400 604 1400 c 2
 625 1400 l 1
 292 -195 l 1
EndSplineSet
EndChar

StartChar: periodcentered
Encoding: 183 183 117
Width: 1075
VWidth: 1947
GlyphClass: 2
Flags: MW
LayerCount: 2
Fore
SplineSet
719 747 m 4
 719 678 666 617 589 617 c 4
 515 617 460 677 460 747 c 4
 460 815 511 877 589 877 c 4
 665 877 719 817 719 747 c 4
EndSplineSet
EndChar

StartChar: onesuperior
Encoding: 185 185 119
Width: 1075
VWidth: 1708
GlyphClass: 2
Flags: MW
LayerCount: 2
Back
SplineSet
297 825 m 5
 552 1045 l 5
 574 1148 l 5
 534 1204 l 5
 773 1425 l 5
 1033 1425 l 5
 868 641 l 5
 260 641 l 5
 297 825 l 5
EndSplineSet
Fore
SplineSet
587 470 m 25
 783 1374 l 25
 468 1172 l 25
EndSplineSet
EndChar

StartChar: ordmasculine
Encoding: 186 186 120
Width: 1075
VWidth: 1947
GlyphClass: 2
Flags: MW
LayerCount: 2
Back
SplineSet
-26 -111 m 5
 100 495 l 5
 -1 510 l 5
 216 1551 l 5
 1282 1551 l 5
 1071 539 l 5
 967 539 l 5
 832 -111 l 5
 -26 -111 l 5
EndSplineSet
Fore
SplineSet
-98 319 m 17
 1026 319 l 9
705 1340 m 3
 932.727 1340 944.979 1127.72 911 964 c 24
 870.312 767.961 757 598 551 598 c 3
 338.483 598 309.636 803.245 343 964 c 24
 384.366 1163.31 498 1340 705 1340 c 3
EndSplineSet
EndChar

StartChar: guillemotright
Encoding: 187 187 121
Width: 1075
VWidth: 1947
GlyphClass: 2
Flags: MW
LayerCount: 2
Fore
SplineSet
148 156 m 25
 385 425 l 25
 404 512 l 25
 281 782 l 25
568 156 m 25
 805 425 l 25
 824 512 l 25
 701 782 l 25
EndSplineSet
EndChar

StartChar: OE
Encoding: 338 338 122
Width: 1075
VWidth: 1947
GlyphClass: 2
Flags: MW
LayerCount: 2
Back
SplineSet
-191 -96 m 5
 119 1425 l 5
 1140 1425 l 5
 1040 944 l 5
 975 926 l 5
 893 531 l 5
 950 513 l 5
 824 -96 l 5
 -191 -96 l 5
EndSplineSet
Fore
SplineSet
1027 105 m 17
 518 105 l 1
 765 1295 l 1
 1273 1295 l 1
1098 732 m 1
 648 732 l 1
244 1124 m 2
 264 1216 373 1295 492 1295 c 2
 557 1295 l 2
 669 1295 753.263 1235.45 730 1124 c 2
 553 276 l 2
 533.405 182.122 416 105 310 105 c 2
 245 105 l 2
 111 105 43.801 159.405 68 276 c 10
 244 1124 l 2
EndSplineSet
EndChar

StartChar: oe
Encoding: 339 339 123
Width: 1075
VWidth: 1947
GlyphClass: 2
Flags: MW
LayerCount: 2
Fore
SplineSet
894 251 m 0
 872 147 763 80 651 80 c 3
 553.735 80 455.001 140.859 478 251 c 2
 587 773 l 2
 606 867 724 944 830 944 c 3
 938.704 944 1026.41 890.05 1003 773 c 10
 955 542 l 1
 539 542 l 1
171 773 m 2
 192 876 302 944 414 944 c 3
 500.438 944 612.227 893.808 587 773 c 2
 478 251 l 2
 458 157 341 80 235 80 c 3
 111.595 80 41.3193 151.962 62 251 c 10
 171 773 l 2
EndSplineSet
EndChar

StartChar: AE
Encoding: 198 198 132
Width: 1075
VWidth: 1947
GlyphClass: 2
Flags: MW
LayerCount: 2
Back
SplineSet
-107 0 m 5
 188 1425 l 5
 1140 1425 l 5
 1040 944 l 5
 975 926 l 5
 893 531 l 5
 950 513 l 5
 824 -96 l 5
 228 -96 l 5
 224 0 l 5
 -107 0 l 5
EndSplineSet
Fore
SplineSet
-81 -201 m 17
 436 1136 l 2
 472 1230 572 1295 697 1295 c 10
 765 1295 l 25
1142 105 m 17
 518 105 l 1
 765 1295 l 1
 1389 1295 l 1
1214 732 m 1
 279 732 l 1
EndSplineSet
EndChar

StartChar: Eth
Encoding: 208 208 142
Width: 1075
VWidth: 1947
GlyphClass: 2
Flags: MW
LayerCount: 2
Back
SplineSet
-68 -57 m 5
 282 1638 l 5
 1428 1638 l 5
 1079 -57 l 5
 -68 -57 l 5
EndSplineSet
Fore
SplineSet
-97 756 m 25
 574 756 l 25
695 1295 m 2
 873 1295 939 1198 945 1037 c 0
 949 939 932 823 906 700 c 0
 836 369 727 105 449 105 c 2
 173 105 l 1
 419 1295 l 1
 695 1295 l 2
EndSplineSet
EndChar

StartChar: multiply
Encoding: 215 215 149
Width: 1075
VWidth: 1708
GlyphClass: 2
Flags: MW
LayerCount: 2
Fore
SplineSet
783 309 m 29
 324 891 l 29
201 309 m 29
 906 891 l 29
EndSplineSet
EndChar

StartChar: Thorn
Encoding: 222 222 156
Width: 1075
VWidth: 1947
GlyphClass: 2
Flags: MW
LayerCount: 2
Back
SplineSet
-109 0 m 5
 211 1538 l 5
 1409 1538 l 5
 1088 0 l 5
 -109 0 l 5
EndSplineSet
Fore
SplineSet
197 445 m 25
 530 445 l 2
 738 445 860 534 898 715 c 2
 945 940 l 2
 980.107 1108.07 945.959 1198 687 1198 c 2
 354 1198 l 1
452 1671 m 1
 74 -141 l 1
EndSplineSet
EndChar

StartChar: germandbls
Encoding: 223 223 157
Width: 1075
VWidth: 1947
GlyphClass: 2
Flags: MW
LayerCount: 2
Back
SplineSet
-188 -387 m 5
 211 1538 l 5
 1409 1538 l 5
 1010 -387 l 5
 -188 -387 l 5
EndSplineSet
Fore
SplineSet
-17 -576 m 1
 325 1064 l 2
 362 1243 482 1320 690 1320 c 2
 711 1320 l 2
 879.505 1320 950.804 1237.62 912 1063 c 2
 904 1025 l 2
 866 844 743 755 535 755 c 2
 515 755 l 25
 593 755 l 18
 801.993 755 884.932 662.265 849 485 c 10
 819 337 l 18
 781 156 661 80 505 80 c 2
 496 80 l 2
 432 80 386 94 349 130 c 1
EndSplineSet
EndChar

StartChar: ae
Encoding: 230 230 164
Width: 1075
VWidth: 1947
GlyphClass: 2
Flags: MW
LayerCount: 2
Fore
SplineSet
894 251 m 0
 872 147 763 80 651 80 c 3
 553.735 80 455.001 140.859 478 251 c 2
 587 773 l 2
 610.942 887.658 724 944 830 944 c 3
 938.704 944 1026.41 890.05 1003 773 c 10
 955 542 l 1
 335 542 l 2
 216 542 106 461 84 358 c 2
 62 251 l 18
 41.7314 152.423 110.747 80 235 80 c 3
 341 80 454.358 137.78 478 251 c 2
 587 773 l 2
 612.335 894.327 499.778 944 414 944 c 3
 303 944 192 876 171 773 c 0
EndSplineSet
EndChar

StartChar: eth
Encoding: 240 240 174
Width: 1075
VWidth: 1947
GlyphClass: 2
Flags: W
VStem: 182 558<220.939 427 497 723.211>
LayerCount: 2
Fore
SplineSet
334 1099 m 25
 1053 1309 l 25
838 430 m 25
 878 620 l 18
 909.933 771.681 873.224 951.916 771 1092 c 2
 528 1425 l 8
199 457 m 10
 193 427 l 18
 147.558 219.984 240.8 80 432 80 c 10
 453 80 l 18
 661 80 791 201 838 427 c 10
 844 457 l 18
 888.506 675.08 822.638 817 607 817 c 10
 586 817 l 18
 378 817 246 681 199 457 c 10
EndSplineSet
EndChar

StartChar: divide
Encoding: 247 247 181
Width: 1075
VWidth: 1947
GlyphClass: 2
Flags: MW
LayerCount: 2
Fore
SplineSet
143 600 m 25
 961 600 l 25
775 960 m 0
 775 890 715 813 631 813 c 0
 539 813 483 897 483 960 c 0
 483 1023 539 1107 631 1107 c 0
 715 1107 775 1030 775 960 c 0
622 243 m 0
 622 170 563 96 478 96 c 0
 394 96 330 173 330 243 c 0
 330 308 391 387 478 387 c 0
 565 387 622 308 622 243 c 0
EndSplineSet
EndChar

StartChar: oslash
Encoding: 248 248 182
Width: 1075
VWidth: 1947
GlyphClass: 2
Flags: MW
LayerCount: 2
Fore
SplineSet
228 597 m 10
 193 427 l 18
 150.261 219.409 240.8 80 432 80 c 10
 453 80 l 18
 661 80 791 201 838 427 c 10
 873 597 l 18
 918.75 821.174 849.832 944 632 944 c 10
 611 944 l 18
 403 944 275 821 228 597 c 10
50 -48 m 25
 1020 1062 l 25
EndSplineSet
EndChar

StartChar: thorn
Encoding: 254 254 188
Width: 1075
VWidth: 1947
GlyphClass: 2
Flags: MW
LayerCount: 2
Back
SplineSet
-187 -383 m 5
 182 1400 l 5
 1359 1400 l 5
 989 -383 l 5
 -187 -383 l 5
EndSplineSet
Fore
SplineSet
228 597 m 10
 193 427 l 18
 150.261 219.409 240.8 80 432 80 c 10
 453 80 l 18
 661 80 791 201 838 427 c 10
 873 597 l 18
 918.75 821.174 849.832 944 632 944 c 10
 611 944 l 18
 403 944 275 821 228 597 c 10
-15 -570 m 25
 442 1623 l 25
EndSplineSet
EndChar

StartChar: minus
Encoding: 8722 8722 190
Width: 1075
VWidth: 1708
GlyphClass: 2
Flags: MW
LayerCount: 2
Fore
SplineSet
50 600 m 25
 1025 600 l 25
EndSplineSet
EndChar

StartChar: quoteleft
Encoding: 8216 8216 192
Width: 1075
VWidth: 1947
GlyphClass: 2
Flags: W
HStem: 1346.92 76.4844<705.276 804.119>
LayerCount: 2
Fore
SplineSet
929 1347 m 17
 869.843 1339.32 784.716 1305.66 784.716 1242.41 c 3
 784.716 1223.33 792.461 1201.56 811 1177 c 9
 580 1126 l 17
 608 1254 661 1425 925 1425 c 9
 929 1347 l 17
709 969 m 3
 623.5 969 580.75 1034 580.75 1099 c 3
 580.75 1164 623.5 1229 709 1229 c 3
 782 1229 838 1170 838 1099 c 3
 838 1031 787 969 709 969 c 3
EndSplineSet
EndChar

StartChar: gravemodifier
Encoding: 715 715 193
Width: 1075
VWidth: 2334
GlyphClass: 2
Flags: MW
LayerCount: 2
Fore
SplineSet
707 1647 m 29
 861 1438 l 29
EndSplineSet
EndChar

StartChar: acute
Encoding: 180 180 194
Width: 1075
VWidth: 1947
GlyphClass: 2
Flags: MW
LayerCount: 2
Fore
SplineSet
863 1587 m 29
 605 1308 l 29
EndSplineSet
EndChar

StartChar: circumflex
Encoding: 710 710 195
Width: 1075
VWidth: 1947
GlyphClass: 2
Flags: MW
LayerCount: 2
Back
SplineSet
114 700 m 5
 313 1638 l 5
 1235 1638 l 5
 1036 700 l 5
 114 700 l 5
EndSplineSet
Fore
SplineSet
536 1460 m 25
 766 1600 l 25
 936 1460 l 25
EndSplineSet
EndChar

StartChar: tilde
Encoding: 732 732 196
Width: 1075
VWidth: 1947
GlyphClass: 2
Flags: MW
LayerCount: 2
Fore
SplineSet
466 1502 m 17
 492 1528 l 2
 535 1571 583 1612 652 1612 c 10
 668 1612 l 18
 703 1612 733 1595 751 1576 c 2
 766 1559 l 2
 784 1539 814 1522 850 1522 c 10
 867 1522 l 18
 937 1522 985 1562 1030 1609 c 2
 1052 1632 l 9
EndSplineSet
EndChar

StartChar: macronmodifier
Encoding: 713 713 197
Width: 1075
VWidth: 1947
GlyphClass: 2
Flags: MW
LayerCount: 2
Fore
SplineSet
984 1538 m 1
 531 1538 l 1
EndSplineSet
EndChar

StartChar: breve
Encoding: 728 728 198
Width: 1075
VWidth: 1947
GlyphClass: 2
Flags: MW
LayerCount: 2
Fore
SplineSet
996 1593 m 4
 922 1523 830 1480 738 1480 c 7
 647 1480 575 1523 532 1592 c 4
EndSplineSet
EndChar

StartChar: dotaccent
Encoding: 729 729 199
Width: 1075
VWidth: 1947
GlyphClass: 2
Flags: W
HStem: 1407 239<364.103 548.84>
VStem: 337 239<1434.63 1619.37>
LayerCount: 2
Fore
SplineSet
632 1527 m 31
 632 1593 684 1647 751 1647 c 31
 817 1647 872 1593 872 1527 c 31
 872 1461 817 1407 751 1407 c 31
 684 1407 632 1461 632 1527 c 31
EndSplineSet
EndChar

StartChar: dieresis
Encoding: 168 168 200
Width: 1075
VWidth: 1947
GlyphClass: 2
Flags: MW
LayerCount: 2
Fore
SplineSet
613 1545 m 4
 613 1482 562 1426 500 1426 c 4
 439 1426 386 1479 386 1545 c 4
 386 1615 442 1660 499 1660 c 4
 564 1660 613 1606 613 1545 c 4
1048 1545 m 4
 1048 1476 993 1426 936 1426 c 4
 876 1426 823 1480 823 1545 c 4
 823 1611 876 1660 936 1660 c 4
 991 1660 1048 1615 1048 1545 c 4
EndSplineSet
EndChar

StartChar: ring
Encoding: 730 730 202
Width: 1075
VWidth: 1947
GlyphClass: 2
Flags: MW
LayerCount: 2
Fore
SplineSet
525 1425 m 31
 525 1537 613 1627 725 1627 c 31
 837 1627 929 1537 929 1425 c 31
 929 1313 837 1223 725 1223 c 31
 613 1223 525 1313 525 1425 c 31
635 1425 m 31
 635 1374 675 1333 726 1333 c 31
 777 1333 819 1374 819 1425 c 31
 819 1476 777 1517 726 1517 c 31
 675 1517 635 1476 635 1425 c 31
EndSplineSet
EndChar

StartChar: cedilla
Encoding: 184 184 203
Width: 1075
VWidth: 1947
GlyphClass: 2
Flags: MW
LayerCount: 2
Fore
SplineSet
463 88 m 21
 463 0 l 5
 426 -132 l 5
 548.915 -132 598.117 -176.836 598.117 -240.671 c 7
 598.117 -337.391 495.743 -411 379 -411 c 31
 300.85 -411 236 -379 194 -334 c 13
EndSplineSet
EndChar

StartChar: ogonek
Encoding: 731 731 204
Width: 1075
VWidth: 1947
GlyphClass: 2
Flags: MW
LayerCount: 2
Fore
SplineSet
510 -290 m 5
 478 -314 l 6
 451.44 -333.92 419 -345 387 -345 c 7
 326.095 -345 284.115 -301.092 284.115 -242.917 c 4
 284.115 -189.339 317.583 -146.799 342 -126 c 14
 495 0 l 29
 510 72 l 29
EndSplineSet
EndChar

StartChar: caron
Encoding: 711 711 205
Width: 1075
VWidth: 1947
GlyphClass: 2
Flags: MW
LayerCount: 2
Back
SplineSet
267 1422 m 5
 334 1736 l 5
 1256 1736 l 5
 1189 1422 l 5
 267 1422 l 5
EndSplineSet
Fore
SplineSet
566 1600 m 25
 736 1460 l 25
 966 1600 l 25
EndSplineSet
EndChar

StartChar: dotlessi
Encoding: 305 305 206
Width: 1075
VWidth: 1947
GlyphClass: 2
Flags: W
LayerCount: 2
Back
SplineSet
97 -25 m 5
 395 1400 l 5
 1040 1400 l 5
 742 -25 l 5
 97 -25 l 5
EndSplineSet
Fore
SplineSet
-12 105 m 25
 910 105 l 25
449 92 m 17
156 919 m 25
 617 919 l 25
 449 105 l 25
EndSplineSet
EndChar

StartChar: currency
Encoding: 164 164 210
Width: 1075
VWidth: 1947
GlyphClass: 2
Flags: MW
LayerCount: 2
Fore
SplineSet
884 342 m 17
 734 556 l 1
342 1008 m 1
 192 1222 l 9
108 424 m 17
 300 602 l 1
777 963 m 1
 968 1140 l 9
547 1078 m 18
 688 1078 828 936 828 798 c 10
 828 770 l 18
 828 624 688 491 547 491 c 10
 529 491 l 18
 388 491 248 625 248 770 c 10
 248 798 l 18
 248 936 388 1078 529 1078 c 10
 547 1078 l 18
EndSplineSet
EndChar

StartChar: brokenbar
Encoding: 166 166 211
Width: 1075
VWidth: 1947
GlyphClass: 2
Flags: MW
LayerCount: 2
Back
SplineSet
38.0566 -75 m 5
 181.527 600 l 5
 832.529 600 l 5
 689.057 -75 l 5
 38.0566 -75 l 5
224.258 801 m 5
 367.729 1476 l 5
 1018.73 1476 l 5
 875.258 801 l 5
 224.258 801 l 5
EndSplineSet
Fore
SplineSet
373.263 -234 m 17
 767.153 1605 l 1
EndSplineSet
EndChar

StartChar: onequarter
Encoding: 188 188 212
Width: 1075
VWidth: 1708
GlyphClass: 2
Flags: MW
LayerCount: 2
Back
SplineSet
-88 942 m 5
 202 1175 l 5
 250 1212 l 5
 172 1321 l 5
 443 1555 l 5
 744 1555 l 5
 639.894 1072.27 l 5
 999 1602 l 5
 1272 1368 l 5
 700.689 574 l 5
 1036 574 l 5
 873 -209 l 5
 400 -209 l 5
 507.873 306.028 l 5
 156 -183 l 5
 -87 0 l 5
 399 660 l 4
 439.052 776 l 5
 -127 776 l 5
 -88 942 l 5
EndSplineSet
Fore
SplineSet
99 -25 m 25
 1046 1425 l 25
291 714 m 25
 457 1504 l 25
 97 1289 l 25
722 -339 m 25
 901 525 l 25
 478 38 l 25
 1131 38 l 25
EndSplineSet
EndChar

StartChar: onehalf
Encoding: 189 189 213
Width: 1075
VWidth: 1708
GlyphClass: 2
Flags: MW
LayerCount: 2
Back
SplineSet
-88 942 m 5
 202 1175 l 5
 250 1212 l 5
 172 1321 l 5
 443 1555 l 5
 744 1555 l 5
 649.907 1118.7 l 5
 939 1563 l 5
 1209 1374 l 5
 715.733 619 l 5
 1217 619 l 5
 1078 -45 l 5
 901 -63 l 5
 842 -345 l 5
 350 -345 l 5
 473.784 248.669 l 5
 180 -201 l 5
 -78 0 l 5
 384 642 l 5
 426.921 776 l 5
 -127 776 l 5
 -88 942 l 5
EndSplineSet
Fore
SplineSet
99 -25 m 25
 1046 1425 l 25
584 372 m 1
 627 432 673 473 771 473 c 10
 783 473 l 18
 877 473 925 440 927 373 c 0
 928 359 926 343 922 325 c 10
 918 303 l 18
 912 271 881.647 233.384 837 192 c 2
 577 -49 l 2
 526.136 -96.1471 486 -153 456 -210 c 1
 1066 -210 l 9
291 700 m 25
 457 1504 l 25
 97 1289 l 25
EndSplineSet
EndChar

StartChar: threequarters
Encoding: 190 190 214
Width: 1075
VWidth: 1708
GlyphClass: 2
Flags: MW
LayerCount: 2
Back
SplineSet
-105.7 30 m 5
 0 1638 l 5
 942 1638 l 5
 1272 1341 l 5
 719.82 574 l 5
 1036 574 l 5
 873 -209 l 5
 400 -209 l 5
 500.065 268.751 l 5
 177 -180 l 5
 -105.7 30 l 5
EndSplineSet
Fore
SplineSet
99 -25 m 25
 1046 1425 l 25
291 1432 m 1
 330 1490 400 1528 472 1528 c 10
 485 1528 l 18
 575.181 1528 641.446 1476.51 620 1380 c 10
 612 1344 l 18
 600 1284 525 1222 434 1222 c 1
 566.866 1221.99 600.566 1130.45 576 1024 c 10
 574 1013 l 18
 549 892 486 832 363 832 c 10
 350 832 l 18
 276 832 181 858 179 935 c 0
722 -339 m 25
 901 525 l 25
 478 38 l 25
 1131 38 l 25
EndSplineSet
EndChar

StartChar: Lslash
Encoding: 321 321 216
Width: 1075
VWidth: 1947
GlyphClass: 2
Flags: MW
LayerCount: 2
Back
SplineSet
-192 0 m 5
 103 1400 l 5
 1147 1400 l 5
 851 0 l 5
 -192 0 l 5
EndSplineSet
Fore
SplineSet
46 512 m 25
 780 698 l 25
430 1566 m 25
 126 106 l 25
 1028 106 l 25
EndSplineSet
EndChar

StartChar: lslash
Encoding: 322 322 257
Width: 1075
VWidth: 1947
GlyphClass: 2
Flags: MW
LayerCount: 2
Back
SplineSet
401 1425 m 5
 1044 1425 l 5
 944 943 l 5
 1138 931 l 5
 1008 308 l 5
 808 292 l 5
 747 0 l 5
 103 0 l 5
 164 292 l 5
 -18 304 l 5
 111 927 l 5
 300 943 l 5
 401 1425 l 5
EndSplineSet
Fore
SplineSet
185 512 m 25
 919 698 l 25
-59 105 m 25
 933 105 l 25
449 92 m 17
188 1295 m 25
 695 1295 l 25
 449 105 l 25
EndSplineSet
EndChar

StartChar: dotlessj
Encoding: 567 567 260
Width: 1075
VWidth: 1947
GlyphClass: 2
Flags: MW
LayerCount: 2
Back
SplineSet
-202 -456 m 5
 -1 508 l 5
 312 528 l 5
 494 1400 l 5
 1381 1400 l 5
 993 -456 l 5
 -202 -456 l 5
EndSplineSet
Fore
SplineSet
205 -146 m 0
 208 -228 280 -294 383 -294 c 11
 513 -294 608 -230 634 -110 c 2
 847 919 l 25
 219 919 l 25
EndSplineSet
EndChar

StartChar: eng
Encoding: 331 331 261
Width: 1075
VWidth: 2334
GlyphClass: 2
Flags: MW
LayerCount: 2
Back
SplineSet
-194 -410 m 5
 -162.499 -243 l 5
 236 -144 l 5
 298 0 l 5
 -107 0 l 5
 112 1022 l 5
 430 1022 l 5
 443 1072 l 5
 1319 1072 l 5
 1005 -410 l 5
 -194 -410 l 5
EndSplineSet
Fore
SplineSet
228 -228 m 1
 258 -271 316 -294 381 -294 c 10
 440 -294 l 18
 595 -294 713 -170 743 -28 c 10
 892 687 l 18
 928.514 862.217 855.671 944 632 944 c 10
 611 944 l 18
 429 944 255 731 228 597 c 10
 210 513 l 25
369 1276 m 25
 88 -76 l 25
EndSplineSet
EndChar

StartChar: ellipsis
Encoding: 8230 8230 266
Width: 1075
VWidth: 1947
GlyphClass: 2
Flags: MW
LayerCount: 2
Fore
SplineSet
1006 113 m 0
 1006 61 965 12 910 12 c 0
 857 12 815 59 815 113 c 0
 815 165 856 213 910 213 c 0
 966 213 1006 162 1006 113 c 0
294 113 m 0
 294 61 254 12 199 12 c 0
 145 12 104 59 104 113 c 0
 104 165 144 213 199 213 c 0
 254 213 294 162 294 113 c 0
650 113 m 0
 650 61 609 12 554 12 c 0
 501 12 460 59 460 113 c 0
 460 165 500 213 554 213 c 0
 610 213 650 162 650 113 c 0
EndSplineSet
EndChar

StartChar: uparrow
Encoding: 8593 8593 267
Width: 1075
VWidth: 1708
GlyphClass: 2
Flags: W
LayerCount: 2
Fore
SplineSet
999 -99 m 5
 77 -99 l 5
 77 1044 l 5
 999 1044 l 5
 999 -99 l 5
898 620 m 29
 538 991 l 29
 178 620 l 29
538 991 m 29
 538 209 l 29
EndSplineSet
EndChar

StartChar: downarrow
Encoding: 8595 8595 268
Width: 1075
VWidth: 1708
GlyphClass: 2
Flags: W
LayerCount: 2
Fore
SplineSet
999 156 m 1
 77 156 l 1
 77 1299 l 1
 999 1299 l 1
 999 156 l 1
898 580 m 25
 538 209 l 25
 178 580 l 25
538 209 m 25
 538 991 l 25
EndSplineSet
EndChar

StartChar: spaceopenbox
Encoding: 9251 9251 269
Width: 1075
VWidth: 1947
GlyphClass: 2
Flags: MW
LayerCount: 2
Back
SplineSet
-79.4795 156 m 5
 995.521 156 l 5
 837 -615 l 5
 -243 -615 l 5
 -79.4795 156 l 5
EndSplineSet
Fore
SplineSet
773.23 321 m 25
 685 -92 l 25
 50 -92 l 25
 138.23 321 l 25
EndSplineSet
EndChar

StartChar: foursuperior
Encoding: 8308 8308 271
Width: 1075
VWidth: 1947
GlyphClass: 2
Flags: MW
LayerCount: 2
Back
SplineSet
327 1425 m 5
 1106 1425 l 5
 922 544 l 5
 143 544 l 5
 327 1425 l 5
EndSplineSet
Fore
SplineSet
661 327 m 25
 880 1402 l 25
 268 807 l 25
 1066 807 l 25
EndSplineSet
EndChar

StartChar: Eng
Encoding: 330 330 273
Width: 1075
VWidth: 2334
GlyphClass: 2
Flags: MW
LayerCount: 2
Back
SplineSet
-194 -410 m 5
 -171.865 -288 l 5
 236 -144 l 5
 298 0 l 5
 -107 0 l 5
 183 1400 l 5
 501 1400 l 5
 514 1450 l 5
 1390 1450 l 5
 1005 -410 l 5
 -194 -410 l 5
EndSplineSet
Fore
SplineSet
228 -228 m 1
 258 -271 316 -294 381 -294 c 10
 440 -294 l 18
 595 -294 713 -170 743 -28 c 10
 970 1063 l 18
 1007.39 1242.71 917.85 1320 711 1320 c 10
 690 1320 l 18
 507 1320 331 1094 303 960 c 10
 289 889 l 25
434 1584 m 25
 83 -96 l 25
EndSplineSet
EndChar

StartChar: dcroat
Encoding: 273 273 274
Width: 1075
VWidth: 1947
GlyphClass: 2
Flags: W
LayerCount: 2
Back
SplineSet
673 1400 m 5
 1201 1400 l 1
 903 -25 l 1
 640 -25 l 1
 630 -72 l 1
 -122 -72 l 1
 117.635 1077 l 1
 608.138 1089 l 5
 673 1400 l 5
EndSplineSet
Fore
SplineSet
449 1252 m 29
 1334 1252 l 29
1077 1575 m 25
 691 -276 l 25
228 597 m 10
 193 427 l 18
 150.261 219.409 240.8 80 432 80 c 10
 453 80 l 18
 661 80 791 201 838 427 c 10
 873 597 l 18
 918.75 821.174 849.832 944 632 944 c 10
 611 944 l 18
 403 944 275 821 228 597 c 10
EndSplineSet
EndChar

StartChar: bullet
Encoding: 8226 8226 280
Width: 1075
VWidth: 1947
GlyphClass: 2
Flags: MW
LayerCount: 2
Fore
SplineSet
744 669 m 3
 744 553.111 661 466 537 466 c 3
 395.826 466 316 543 316 669 c 3
 316 772.078 403 869 522 869 c 3
 641 869 744 804.093 744 669 c 3
EndSplineSet
EndChar

StartChar: florin
Encoding: 402 402 281
Width: 1075
VWidth: 1947
GlyphClass: 2
Flags: MW
LayerCount: 2
Fore
SplineSet
1114 1248 m 1
 1087 1300 1024 1320 948 1320 c 11
 831 1320 726 1248 700 1149 c 10
 365 -127 l 18
 335 -244 232 -311 114 -311 c 3
 50 -311 -21 -279 -50 -220 c 1
267 795 m 25
 951 795 l 25
EndSplineSet
EndChar

StartChar: dagger
Encoding: 8224 8224 282
Width: 1075
VWidth: 1947
GlyphClass: 2
Flags: MW
LayerCount: 2
Back
SplineSet
293 1425 m 5
 1151 1425 l 5
 774 -387 l 5
 -84 -387 l 5
 293 1425 l 5
EndSplineSet
Fore
SplineSet
757 1590 m 25
 310 -555 l 25
84 920 m 25
 1231 920 l 25
EndSplineSet
EndChar

StartChar: daggerdbl
Encoding: 8225 8225 283
Width: 1075
VWidth: 1947
GlyphClass: 2
Flags: MW
LayerCount: 2
Back
SplineSet
293 1425 m 5
 1151 1425 l 5
 774 -387 l 5
 -84 -387 l 5
 293 1425 l 5
EndSplineSet
Fore
SplineSet
-104 119 m 25
 1054 119 l 25
753 1569 m 25
 317 -525 l 25
61 920 m 25
 1219 920 l 25
EndSplineSet
EndChar

StartChar: trademark
Encoding: 8482 8482 284
Width: 1075
VWidth: 1947
GlyphClass: 2
Flags: MW
LayerCount: 2
Back
SplineSet
100 466 m 5
 299 1400 l 5
 1185 1400 l 5
 986 466 l 5
 800 466 l 5
 811 519 l 5
 664 519 l 5
 653 466 l 5
 100 466 l 5
EndSplineSet
Fore
SplineSet
505.562 252 m 25
 751 1401 l 25
 757 615 l 25
 1097 1401 l 25
 850.562 252 l 25
266.562 310 m 25
 479 1308 l 25
29 1308 m 25
 679 1308 l 25
EndSplineSet
EndChar

StartChar: Ecyrillic
Encoding: 1028 1028 290
Width: 1075
VWidth: 1947
GlyphClass: 2
Flags: W
LayerCount: 2
Fore
SplineSet
782 314 m 1
 710 174 613 81 465 80 c 2
 426 80 l 2
 206.998 80 149 273 228 651 c 2
 248 747 l 2
 315 1045 432 1317 678 1320 c 2
 714 1321 l 2
 869 1318 933 1227 945 1082 c 1
267 726 m 25
 644 725 l 25
EndSplineSet
EndChar

StartChar: Becyrillic
Encoding: 1041 1041 298
Width: 1075
VWidth: 2334
GlyphClass: 2
Flags: MW
LayerCount: 2
Back
SplineSet
-187 -384 m 5
 186 1401 l 5
 1041 1401 l 5
 968 1049 l 5
 1178 1050 l 5
 873 -384 l 5
 -187 -384 l 5
EndSplineSet
Fore
SplineSet
260 755 m 25
 593 755 l 2
 820.584 755 883.072 648.737 849 485 c 2
 813 312 l 2
 776 133 672 80 453 80 c 2
 120 80 l 1
 373 1295 l 9
 1182 1295 l 25
EndSplineSet
EndChar

StartChar: Gecyrillic
Encoding: 1043 1043 299
Width: 1075
VWidth: 2334
GlyphClass: 2
Flags: MW
LayerCount: 2
Back
SplineSet
-105 0 m 5
 186 1425 l 5
 1149 1425 l 5
 1076 1049 l 5
 1178 1050 l 5
 954 0 l 5
 -105 0 l 5
EndSplineSet
Fore
SplineSet
69 -165 m 25
 373 1294 l 25
 1332 1294 l 25
EndSplineSet
EndChar

StartChar: Decyrillic
Encoding: 1044 1044 300
Width: 1075
VWidth: 1947
GlyphClass: 2
Flags: MW
LayerCount: 2
Back
SplineSet
190 1425 m 5
 1256 1425 l 5
 990 150 l 5
 834 -162 l 5
 -41 -162 l 5
 -75 150 l 5
 190 1425 l 5
EndSplineSet
Fore
SplineSet
-4 -300 m 17
 80 106 l 9
 817 106 l 17
 733 -300 l 9
161 106 m 17
 505 968 l 2
 561 1110 708 1247 858 1295 c 9
 995 1295 l 17
 748 106 l 9
EndSplineSet
EndChar

StartChar: Zhecyrillic
Encoding: 1046 1046 302
Width: 1075
VWidth: 1947
GlyphClass: 2
Flags: MW
LayerCount: 2
Back
SplineSet
185 1400 m 5
 551 1400 l 5
 534 1320 l 5
 868 1320 l 5
 888 1400 l 5
 1251 1400 l 5
 959 0 l 5
 -107 0 l 5
 185 1400 l 5
EndSplineSet
Fore
SplineSet
837 -85 m 25
 718 685 l 25
-55 -147 m 25
 419 685 l 25
310 1500 m 25
 478 247 l 25
 1225 1602 l 25
739 1503 m 25
 407 -93 l 25
EndSplineSet
EndChar

StartChar: Zecyrillic
Encoding: 1047 1047 303
Width: 1075
VWidth: 1947
GlyphClass: 2
Flags: MW
LayerCount: 2
Fore
SplineSet
342 1158 m 1
 411 1264 544 1320 667 1320 c 10
 711 1320 l 18
 892.365 1320 947.014 1193.56 918 1063 c 10
 909 1022 l 18
 887 912 724 777 569 777 c 2
 404 777 l 9
 598 777 l 18
 812.193 777 881.028 637.635 836 417 c 10
 831 397 l 18
 786 177 661 80 453 80 c 10
 409 80 l 18
 286 80 150 136 145 274 c 0
EndSplineSet
EndChar

StartChar: Iicyrillic
Encoding: 1048 1048 304
Width: 1075
VWidth: 1947
GlyphClass: 2
Flags: MW
LayerCount: 2
Back
SplineSet
185 1400 m 5
 1251 1400 l 5
 959 0 l 5
 -107 0 l 5
 185 1400 l 5
EndSplineSet
Fore
SplineSet
704 -213 m 25
 1023 1320 l 25
 120 79 l 25
 436 1593 l 25
EndSplineSet
EndChar

StartChar: Elcyrillic
Encoding: 1051 1051 307
Width: 1075
VWidth: 1947
GlyphClass: 2
Flags: MW
LayerCount: 2
Back
SplineSet
190 1425 m 5
 1256 1425 l 5
 959 0 l 5
 -107 0 l 5
 190 1425 l 5
EndSplineSet
Fore
SplineSet
-38 -225 m 16
 494 968 l 2
 557 1110 708 1247 858 1295 c 9
 1018 1295 l 25
 705 -210 l 25
EndSplineSet
EndChar

StartChar: Pecyrillic
Encoding: 1055 1055 311
Width: 1075
VWidth: 1947
GlyphClass: 2
Flags: MW
LayerCount: 2
Back
SplineSet
190 1425 m 5
 1256 1425 l 5
 959 0 l 5
 -107 0 l 5
 190 1425 l 5
EndSplineSet
Fore
SplineSet
57 -222 m 25
 373 1295 l 25
 1018 1295 l 25
 702 -222 l 25
EndSplineSet
EndChar

StartChar: Ucyrillic
Encoding: 1059 1059 315
Width: 1075
VWidth: 1947
GlyphClass: 2
Flags: MW
LayerCount: 2
Back
SplineSet
185 1400 m 5
 1251 1400 l 5
 950 -40 l 5
 -116 -40 l 5
 185 1400 l 5
EndSplineSet
Fore
SplineSet
1104 1480 m 16
 498 246 l 2
 424 105 333 81 257 80 c 2
 224 80 l 2
 201 80 178 84 157 91 c 2
 125 103 l 9
366 1480 m 25
 603 459 l 25
EndSplineSet
EndChar

StartChar: Efcyrillic
Encoding: 1060 1060 316
Width: 1075
VWidth: 1947
GlyphClass: 2
Flags: MW
LayerCount: 2
Back
SplineSet
188 1425 m 5
 1254 1425 l 5
 954 -24 l 5
 -112 -24 l 5
 188 1425 l 5
EndSplineSet
Fore
SplineSet
698 1223 m 2
 960 1223 1029 1019 974 749 c 2
 952 645 l 2
 887 338 736 187 486 187 c 2
 446 187 l 2
 184 187 117 381 171 651 c 2
 190 747 l 2
 253 1046 412 1223 663 1223 c 2
 698 1223 l 2
748 1545 m 25
 358 -327 l 25
EndSplineSet
EndChar

StartChar: Tsecyrillic
Encoding: 1062 1062 318
Width: 1075
VWidth: 1947
GlyphClass: 2
Flags: MW
LayerCount: 2
Back
SplineSet
185 1400 m 5
 1191 1400 l 5
 836 -302 l 5
 -170 -302 l 5
 185 1400 l 5
EndSplineSet
Fore
SplineSet
686 105 m 17
 817 105 l 9
 622 -189 l 25
421 1527 m 25
 126 105 l 25
 690 105 l 17
 985 1527 l 9
EndSplineSet
EndChar

StartChar: Checyrillic
Encoding: 1063 1063 319
Width: 1075
VWidth: 1947
GlyphClass: 2
Flags: MW
LayerCount: 2
Back
SplineSet
185 1400 m 5
 1250 1400 l 5
 955 0 l 5
 -109 0 l 5
 185 1400 l 5
EndSplineSet
Fore
SplineSet
855 512 m 25
 523 512 l 2
 310.45 512 228.529 602.474 266 782 c 2
 424 1539 l 17
1069 1539 m 1
 702 -225 l 1
EndSplineSet
EndChar

StartChar: Shacyrillic
Encoding: 1064 1064 320
Width: 1075
VWidth: 1947
GlyphClass: 2
Flags: MW
LayerCount: 2
Back
SplineSet
58 1400 m 5
 541 1400 l 5
 488 1152 l 5
 833 1152 l 5
 882 1400 l 5
 1342 1400 l 5
 1048 0 l 5
 -236 0 l 5
 58 1400 l 5
EndSplineSet
Fore
SplineSet
728 1451 m 17
 449 105 l 9
367 1548 m 25
 69 105 l 25
 829 105 l 25
 1128 1548 l 25
EndSplineSet
EndChar

StartChar: Shchacyrillic
Encoding: 1065 1065 321
Width: 1075
VWidth: 1947
GlyphClass: 2
Flags: MW
LayerCount: 2
Back
SplineSet
185 1400 m 5
 520 1400 l 5
 467 1152 l 5
 818 1152 l 5
 867 1400 l 5
 1228 1400 l 5
 873 -302 l 5
 -170 -302 l 5
 185 1400 l 5
EndSplineSet
Fore
SplineSet
669 1329 m 17
 420 105 l 9
770 106 m 25
 851 106 l 25
 656 -189 l 25
373 1590 m 25
 69 105 l 25
 771 105 l 17
 1075 1590 l 9
EndSplineSet
EndChar

StartChar: Hardsigncyrillic
Encoding: 1066 1066 322
Width: 1075
VWidth: 1947
GlyphClass: 2
Flags: W
HStem: 1405 20G<60 922>
VStem: 0 922<-60 680>
LayerCount: 2
Back
SplineSet
260 1425 m 5
 1256 1425 l 5
 946 -60 l 5
 -120 -60 l 5
 35 680 l 5
 197 682 l 5
 255 961 l 5
 162 961 l 5
 260 1425 l 5
EndSplineSet
Fore
SplineSet
426 715 m 25
 655 715 l 2
 809.095 715 875.294 606.714 842 445 c 2
 819 337 l 2
 782 158 667 105 529 105 c 2
 300 105 l 1
 546 1295 l 9
 313 1295 l 25
 78 864 l 25
EndSplineSet
EndChar

StartChar: Yericyrillic
Encoding: 1067 1067 323
Width: 1075
VWidth: 1947
GlyphClass: 2
Flags: MW
LayerCount: 2
Back
SplineSet
185 1400 m 5
 1250 1400 l 5
 955 0 l 5
 -109 0 l 5
 185 1400 l 5
EndSplineSet
Fore
SplineSet
1103 1518 m 17
 754 -174 l 9
229 765 m 25
 307 765 l 2
 515.579 765 600.801 677.918 562 495 c 2
 530 337 l 2
 493 158 389 105 170 105 c 2
 92 105 l 1
 389 1518 l 1
EndSplineSet
EndChar

StartChar: Softsigncyrillic
Encoding: 1068 1068 324
Width: 1075
VWidth: 1947
GlyphClass: 2
Flags: MW
LayerCount: 2
Back
SplineSet
185 1400 m 5
 1250 1400 l 5
 955 0 l 5
 -109 0 l 5
 185 1400 l 5
EndSplineSet
Fore
SplineSet
253 715 m 25
 585 715 l 2
 799.665 715 880.221 624.472 842 445 c 2
 819 337 l 2
 782 158 678 105 459 105 c 2
 126 105 l 1
 431 1569 l 1
EndSplineSet
EndChar

StartChar: Ereversedcyrillic
Encoding: 1069 1069 325
Width: 1075
VWidth: 1947
GlyphClass: 2
Flags: MW
LayerCount: 2
Fore
SplineSet
527 756 m 25
 904 755 l 25
200 315 m 1
 214 171 277.6 80 431 80 c 2
 455 80 l 2
 725.6 80 839.661 375.095 902 679 c 2
 910 718 l 2
 995.518 1134.9 935.6 1320 709 1320 c 2
 690 1320 l 2
 529.6 1320 427 1224 354 1074 c 1
EndSplineSet
EndChar

StartChar: IUcyrillic
Encoding: 1070 1070 326
Width: 1075
VWidth: 1947
GlyphClass: 2
Flags: MW
LayerCount: 2
Back
SplineSet
185 1400 m 5
 501 1400 l 5
 535 1503 l 5
 1336 1503 l 5
 1002 -129 l 5
 215 -129 l 5
 213 0 l 5
 -109 0 l 5
 185 1400 l 5
EndSplineSet
Fore
SplineSet
211 700 m 25
 489 700 l 25
379 1596 m 17
 14 -150 l 9
854 1320 m 3
 1020.29 1320 1017.32 994.747 990 865 c 2
 919 528 l 2
 864 269 733 80 596 80 c 3
 429.198 80 436.077 420.637 460 530 c 2
 529 865 l 2
 583 1125 716 1320 854 1320 c 3
EndSplineSet
EndChar

StartChar: IAcyrillic
Encoding: 1071 1071 327
Width: 1075
VWidth: 1947
GlyphClass: 2
Flags: MW
LayerCount: 2
Back
SplineSet
197 1458 m 5
 1263 1458 l 5
 959 0 l 5
 -107 0 l 5
 197 1458 l 5
EndSplineSet
Fore
SplineSet
-13 -102 m 25
 568 680 l 25
892 685 m 25
 559 685 l 2
 336.584 685 267.589 798.027 299 943 c 2
 325 1063 l 2
 359 1229 467 1295 685 1295 c 2
 1018 1295 l 1
 704 -213 l 1
EndSplineSet
EndChar

StartChar: becyrillic
Encoding: 1073 1073 329
Width: 1075
VWidth: 1947
GlyphClass: 2
Flags: MW
LayerCount: 2
Back
SplineSet
335 1506 m 5
 1062 1506 l 5
 980 1104 l 5
 1263 1083 l 5
 1015 -99 l 5
 -133 -99 l 5
 104 1029 l 5
 240 1047 l 5
 335 1506 l 5
EndSplineSet
Fore
SplineSet
228 597 m 10
 193 427 l 18
 150.261 219.409 240.8 80 432 80 c 10
 453 80 l 18
 661 80 791 201 838 427 c 10
 873 597 l 18
 918.75 821.174 849.832 944 632 944 c 10
 611 944 l 18
 403 944 275 821 228 597 c 10
1132 1295 m 25
 374 1295 l 25
 808 899 l 25
EndSplineSet
EndChar

StartChar: vecyrillic
Encoding: 1074 1074 330
Width: 1075
VWidth: 2334
GlyphClass: 2
Flags: MW
LayerCount: 2
Fore
SplineSet
436 105 m 2
 481 105 l 2
 689 105 808.961 180.805 836 316 c 10
 839 331 l 18
 869.192 481.962 755.505 549 573 549 c 2
 218 549 l 1
 315 549 l 2
 491 549 777 889 814 1064 c 2
 830 1140 l 2
 858.785 1276.73 756 1319 629 1319 c 2
 592 1319 l 2
 402 1319 365 1244 345 1152 c 2
 169 312 l 2
 133.748 143.75 312 105 436 105 c 2
EndSplineSet
EndChar

StartChar: gecyrillic
Encoding: 1075 1075 331
Width: 1075
VWidth: 1947
GlyphClass: 2
Flags: MW
LayerCount: 2
Fore
SplineSet
254 778 m 1
 323 876 457 944 577 944 c 10
 598 944 l 18
 763.058 944 906.206 919.48 872 757 c 2
 869 745 l 2
 858 691 811 648 740 625 c 2
 269 450 l 2
 194 423 145 368 132 301 c 2
 129 287 l 2
 97.5165 140.077 256.342 80 398 80 c 10
 453 80 l 18
 610 80 791 203 819 337 c 8
EndSplineSet
EndChar

StartChar: decyrillic
Encoding: 1076 1076 332
Width: 1075
VWidth: 1947
GlyphClass: 2
Flags: MW
LayerCount: 2
Fore
SplineSet
355 1202 m 17
 459 1269 513 1295 685 1295 c 2
 706 1295 l 2
 901 1283 976 1089 941 925 c 2
 844 451 l 9
228 597 m 10
 193 427 l 18
 150 219 241 80 432 80 c 10
 453 80 l 18
 661 80 791 201 838 427 c 10
 873 597 l 18
 919 821 850 944 632 944 c 10
 611 944 l 18
 403 944 275 821 228 597 c 10
EndSplineSet
EndChar

StartChar: zhecyrillic
Encoding: 1078 1078 334
Width: 1075
VWidth: 1947
GlyphClass: 2
Flags: MW
LayerCount: 2
Back
SplineSet
133 1152 m 5
 474 1152 l 5
 449 1024 l 5
 828 1024 l 5
 884 1152 l 5
 1199 1152 l 5
 959 0 l 5
 -107 0 l 5
 133 1152 l 5
EndSplineSet
Fore
SplineSet
825 -142 m 25
 683 494 l 25
-32 -142 m 25
 373 494 l 25
208 1049 m 25
 463 181 l 25
 1077 1049 l 25
678 1210 m 25
 423 -15 l 25
EndSplineSet
EndChar

StartChar: zecyrillic
Encoding: 1079 1079 335
Width: 1075
VWidth: 1947
GlyphClass: 2
Flags: MW
LayerCount: 2
Fore
SplineSet
264 781 m 1
 333 887 466 943 588 943 c 10
 632 943 l 18
 767.281 943 879.771 884.854 858 776 c 10
 856 765 l 18
 833 654 689 560 534 560 c 2
 428 560 l 9
 553 560 l 18
 726.537 560 845.332 479.769 818 334 c 10
 814 314 l 18
 791 201 661 80 453 80 c 10
 432 80 l 18
 305 80 166 140 162 257 c 0
EndSplineSet
EndChar

StartChar: iicyrillic
Encoding: 1080 1080 336
Width: 1075
VWidth: 1947
GlyphClass: 2
Flags: MW
LayerCount: 2
Back
SplineSet
106 1023 m 5
 1172 1023 l 5
 959 0 l 5
 628 0 l 5
 600 -70 l 5
 -121 -70 l 5
 106 1023 l 5
EndSplineSet
Fore
SplineSet
337 1120 m 25
 174 337 l 18
 131.947 134.99 225.307 80 409 80 c 10
 430 80 l 18
 613 80 814 313 842 447 c 10
 859 531 l 25
703 -216 m 25
 982 1120 l 25
EndSplineSet
EndChar

StartChar: kacyrillic
Encoding: 1082 1082 338
Width: 1075
VWidth: 1947
GlyphClass: 2
Flags: MW
LayerCount: 2
Back
SplineSet
105 1024 m 1
 639 1024 l 1
 682 1158 l 1
 1200 1158 l 1
 959 0 l 1
 -107 0 l 1
 105 1024 l 1
EndSplineSet
Fore
SplineSet
871 -118 m 17
 702 63 l 2
 632.51 137.425 530.434 338.772 521.04 486 c 2
 513 612 l 9
988 983 m 17
 840 881.617 l 2
 634.411 740.784 409.778 530.292 287.203 363 c 2
 137 158 l 9
349 1182 m 25
 68 -170 l 25
EndSplineSet
EndChar

StartChar: elcyrillic
Encoding: 1083 1083 339
Width: 1075
VWidth: 1947
GlyphClass: 2
Flags: MW
LayerCount: 2
Back
SplineSet
112 1048 m 5
 1178 1048 l 5
 959 0 l 5
 -107 0 l 5
 112 1048 l 5
EndSplineSet
Fore
SplineSet
15 -99 m 16
 371 604 l 2
 438 745 629 870 780 918 c 9
 940 918 l 25
 723 -122 l 25
EndSplineSet
EndChar

StartChar: emcyrillic
Encoding: 1084 1084 340
Width: 1075
VWidth: 1947
GlyphClass: 2
Flags: MW
LayerCount: 2
Back
SplineSet
-107 0 m 5
 107 1024 l 5
 1173 1024 l 5
 959 0 l 5
 599 0 l 5
 621 105 l 5
 282 105 l 5
 260 0 l 5
 -107 0 l 5
EndSplineSet
Fore
SplineSet
-12 -75 m 25
 320 1025 l 25
 457 151 l 25
 962 1025 l 25
 832 -75 l 25
EndSplineSet
EndChar

StartChar: encyrillic
Encoding: 1085 1085 341
Width: 1075
VWidth: 1947
GlyphClass: 2
Flags: MW
LayerCount: 2
Back
SplineSet
105 1024 m 5
 1170 1024 l 5
 959 0 l 5
 -107 0 l 5
 105 1024 l 5
EndSplineSet
Fore
SplineSet
202 470 m 25
 847 470 l 25
981 1114 m 25
 720 -138 l 25
336 1114 m 25
 75 -138 l 25
EndSplineSet
EndChar

StartChar: tecyrillic
Encoding: 1090 1090 346
Width: 1075
VWidth: 1947
GlyphClass: 2
Flags: MW
LayerCount: 2
Back
SplineSet
112 1050 m 5
 1178 1050 l 5
 959 0 l 5
 -107 0 l 5
 112 1050 l 5
EndSplineSet
Fore
SplineSet
774 -99 m 25
 957 777 l 18
 981.072 892.232 957.174 944 835 944 c 10
 823 944 l 18
 710 944 598 821 569 687 c 10
 551 603 l 25
405 -99 m 25
 588 777 l 18
 610.869 886.474 592.191 944 466 944 c 10
 454 944 l 18
 341 944 229 821 200 687 c 10
 183 603 l 25
302 1164 m 25
 37 -99 l 25
EndSplineSet
EndChar

StartChar: efcyrillic
Encoding: 1092 1092 348
Width: 1075
VWidth: 1947
GlyphClass: 2
Flags: MW
LayerCount: 2
Back
SplineSet
111 1049 m 5
 1176 1049 l 5
 879 -384 l 5
 -187 -384 l 5
 111 1049 l 5
EndSplineSet
Fore
SplineSet
663 1138 m 25
 326 -478 l 25
630 876 m 2
 857.141 876 956.039 724.969 909 495 c 2
 900 451 l 2
 850.168 207.375 691.5 80 462 80 c 2
 423 80 l 2
 204 80 87.6625 193.979 141 454 c 2
 149 493 l 2
 198.676 735.169 361.856 876 585 876 c 2
 630 876 l 2
EndSplineSet
EndChar

StartChar: tsecyrillic
Encoding: 1094 1094 350
Width: 1075
VWidth: 1947
GlyphClass: 2
Flags: MW
LayerCount: 2
Back
SplineSet
105 1024 m 5
 1170 1024 l 5
 879 -384 l 5
 -187 -384 l 5
 105 1024 l 5
EndSplineSet
Fore
SplineSet
347 1170 m 25
 174 337 l 18
 138.353 165.359 183.221 80 409 80 c 10
 430 80 l 18
 613 80 814 313 842 447 c 10
 859 531 l 25
992 1170 m 25
 771 109 l 17
 786.615 93.3848 799.873 60.1977 799.873 18.8543 c 3
 799.873 -55.3019 757.218 -155.698 609 -228 c 8
EndSplineSet
EndChar

StartChar: checyrillic
Encoding: 1095 1095 351
Width: 1075
VWidth: 1947
GlyphClass: 2
Flags: MW
LayerCount: 2
Back
SplineSet
105 1024 m 5
 1170 1024 l 5
 959 0 l 5
 -107 0 l 5
 105 1024 l 5
EndSplineSet
Fore
SplineSet
338 1124 m 25
 249 697 l 18
 206.157 491.45 310.246 427 482 427 c 10
 503 427 l 18
 685 427 889 673 917 807 c 10
 934 891 l 25
983 1124 m 25
 711 -182 l 17
EndSplineSet
EndChar

StartChar: shacyrillic
Encoding: 1096 1096 352
Width: 1075
VWidth: 1947
GlyphClass: 2
Flags: MW
LayerCount: 2
Back
SplineSet
105 1024 m 5
 1170 1024 l 5
 959 0 l 5
 732 0 l 5
 702 -80 l 5
 -124 -80 l 5
 105 1024 l 5
EndSplineSet
Fore
SplineSet
295 1140 m 25
 109 247 l 18
 85.3135 133.277 110.234 80 230 80 c 10
 242 80 l 18
 355 80 468 203 497 337 c 10
 513 421 l 25
664 1140 m 25
 478 247 l 18
 453.771 137.971 484.569 80 599 80 c 10
 610 80 l 18
 724 80 837 203 865 337 c 10
 882 421 l 25
753 -196 m 25
 1032 1140 l 25
EndSplineSet
EndChar

StartChar: shchacyrillic
Encoding: 1097 1097 353
Width: 1075
VWidth: 1947
GlyphClass: 2
Flags: MW
LayerCount: 2
Back
SplineSet
105 1024 m 5
 1170 1024 l 5
 870 -410 l 5
 447 -410 l 5
 505 -80 l 5
 -124 -80 l 5
 105 1024 l 5
EndSplineSet
Fore
SplineSet
295 1141 m 25
 109 247 l 18
 85.0498 131.885 110.059 80 230 80 c 10
 242 80 l 18
 355 80 468 203 497 337 c 10
 513 421 l 25
664 1141 m 25
 478 247 l 18
 453.556 129.509 493.705 80 599 80 c 10
 610 80 l 18
 724 80 837 203 865 337 c 10
 882 421 l 25
655 -228 m 16
 799.658 -156.719 845.404 -52.3573 845.404 23.5219 c 3
 845.404 62.036 833.619 93.2122 817 109 c 1
 1032 1141 l 9
EndSplineSet
EndChar

StartChar: hardsigncyrillic
Encoding: 1098 1098 354
Width: 1075
VWidth: 1947
GlyphClass: 2
Flags: MW
LayerCount: 2
Back
SplineSet
175 1023 m 5
 1172 1023 l 5
 946 -60 l 5
 -120 -60 l 5
 -49 278 l 5
 114 280 l 5
 175 572 l 5
 82 572 l 5
 175 1023 l 5
EndSplineSet
Fore
SplineSet
394 561 m 25
 553 561 l 18
 703.481 561 848.107 472.831 819 337 c 2
 809 291 l 2
 781 156 615 105 458 104 c 10
 299 104 l 25
 466 906 l 25
 233 906 l 25
 -6 462 l 25
EndSplineSet
EndChar

StartChar: yericyrillic
Encoding: 1099 1099 355
Width: 1075
VWidth: 1947
GlyphClass: 2
Flags: W
LayerCount: 2
Back
SplineSet
105 1024 m 5x40
 1170 1024 l 5x40
 959 0 l 5
 -107 0 l 5x80
 105 1024 l 5x40
EndSplineSet
Fore
SplineSet
777 -132 m 25
 1039 1137 l 25
283 1137 m 25
 69 105 l 25
 193 105 l 18
 349 105 492 156 520 291 c 2
 530 337 l 2
 557.991 486.284 425.264 561 287 561 c 10
 162 561 l 25
EndSplineSet
EndChar

StartChar: softsigncyrillic
Encoding: 1100 1100 356
Width: 1075
VWidth: 1947
GlyphClass: 2
Flags: MW
LayerCount: 2
Back
SplineSet
112 1049 m 5x40
 1178 1049 l 5x40
 959 0 l 5
 -107 0 l 5x80
 112 1049 l 5x40
EndSplineSet
Fore
SplineSet
367 1266 m 25
 126 105 l 25
 459 105 l 18
 615 105 781 156 809 291 c 2
 819 337 l 2
 848.041 472.526 703.991 561 553 561 c 10
 220 561 l 25
EndSplineSet
EndChar

StartChar: ereversedcyrillic
Encoding: 1101 1101 357
Width: 1075
VWidth: 1947
GlyphClass: 2
Flags: MW
LayerCount: 2
Fore
SplineSet
366 512 m 25
 837 512 l 25
270 798 m 1
 329 904 435 943 594 943 c 10
 615 943 l 18
 831.827 943 901.415 819.535 856 597 c 10
 820 427 l 18
 773 201 609 80 436 80 c 10
 415 80 l 18
 258 80 168 118 151 220 c 1
EndSplineSet
EndChar

StartChar: iucyrillic
Encoding: 1102 1102 358
Width: 1075
VWidth: 1947
GlyphClass: 2
Flags: MW
LayerCount: 2
Back
SplineSet
106 1024 m 5x40
 439 1024 l 5
 462 1049 l 5
 1178 1049 l 5x40
 948 -54 l 5
 244 -54 l 5
 238 0 l 5
 -107 0 l 5x80
 106 1024 l 5x40
EndSplineSet
Fore
SplineSet
441 597 m 10
 406 427 l 18
 363.291 219.558 390.156 80 562 80 c 10
 582 80 l 18
 718 80 836 201 883 427 c 10
 918 597 l 18
 963.744 812.264 960.69 944 761 944 c 10
 741 944 l 18
 613 944 488 821 441 597 c 10
164 512 m 25
 424 512 l 25
303 1167 m 25
 28 -141 l 25
EndSplineSet
EndChar

StartChar: iacyrillic
Encoding: 1103 1103 359
Width: 1075
VWidth: 1947
GlyphClass: 2
Flags: MW
LayerCount: 2
Back
SplineSet
112 1049 m 5x40
 1178 1049 l 5x40
 959 0 l 5
 436 0 l 5
 405 -86 l 5
 -125 -86 l 5x80
 112 1049 l 5x40
EndSplineSet
Fore
SplineSet
84 18 m 25
 536 470 l 25
717 -153 m 25
 940 919 l 25
 607 919 l 18
 451 919 285 869 257 734 c 2
 252 711 l 2
 232.596 621.738 313.901 487 518 487 c 10
 851 487 l 25
EndSplineSet
EndChar

StartChar: ecyrillic
Encoding: 1108 1108 362
Width: 1075
VWidth: 1708
GlyphClass: 2
Flags: W
LayerCount: 2
Fore
SplineSet
228 512 m 25
 698 512 l 25
877 798 m 0
 850 900 767 944 632 944 c 10
 611 944 l 18
 403 944 275 821 228 597 c 10
 193 427 l 18
 150.261 219.409 240.8 80 432 80 c 10
 453 80 l 18
 586 80 685 122 754 220 c 0
EndSplineSet
EndChar

StartChar: numero
Encoding: 8470 8470 372
Width: 1075
VWidth: 1947
Flags: MW
LayerCount: 2
Back
SplineSet
183 1400 m 5
 1375 1400 l 5
 1077 0 l 5
 -115 0 l 5
 183 1400 l 5
EndSplineSet
Fore
SplineSet
1053 1225 m 3
 1128.96 1225 1166.11 1129.43 1115 887 c 0
 1071 681 999 546 909 546 c 3
 844.317 546 791.639 618.44 849 887 c 0
 892 1091 964 1225 1053 1225 c 3
-6 -144 m 25
 326 1405 l 25
 384 -5 l 25
 708 1521 l 25
EndSplineSet
EndChar

StartChar: caroncomb
Encoding: 780 780 377
Width: 1075
VWidth: 1947
Flags: MW
LayerCount: 2
Back
SplineSet
267 1422 m 5
 334 1736 l 5
 1256 1736 l 5
 1189 1422 l 5
 267 1422 l 5
EndSplineSet
Fore
SplineSet
566 1600 m 25
 736 1460 l 25
 966 1600 l 25
EndSplineSet
EndChar

StartChar: gravecomb
Encoding: 768 768 379
Width: 1075
VWidth: 2334
Flags: MW
LayerCount: 2
Fore
SplineSet
707 1647 m 25
 861 1438 l 25
EndSplineSet
EndChar

StartChar: acutecomb
Encoding: 769 769 380
Width: 1075
VWidth: 2334
Flags: MW
LayerCount: 2
Fore
SplineSet
845 1647 m 25
 603 1438 l 25
EndSplineSet
EndChar

StartChar: tildecomb
Encoding: 771 771 381
Width: 1075
VWidth: 1947
Flags: MW
LayerCount: 2
Fore
SplineSet
466 1502 m 17
 492 1528 l 2
 535 1571 583 1612 652 1612 c 10
 668 1612 l 18
 703 1612 733 1595 751 1576 c 2
 766 1559 l 2
 784 1539 814 1522 850 1522 c 10
 867 1522 l 18
 937 1522 985 1562 1030 1609 c 2
 1052 1632 l 9
EndSplineSet
EndChar

StartChar: hookabovecomb
Encoding: 777 777 382
Width: 1075
VWidth: 1947
Flags: MW
LayerCount: 2
Fore
SplineSet
700 1255 m 5
 728 1387 l 5
 853.838 1387 951.197 1412.54 951.197 1514.69 c 7
 951.197 1583.28 863.971 1606 786 1606 c 15
 705 1606 644 1590 573 1549 c 13
EndSplineSet
EndChar

StartChar: dotbelowcomb
Encoding: 803 803 383
Width: 1075
VWidth: 2334
Flags: MW
LayerCount: 2
Fore
SplineSet
249 -253 m 31
 249 -187 301 -133 368 -133 c 31
 434 -133 489 -187 489 -253 c 31
 489 -319 434 -373 368 -373 c 31
 301 -373 249 -319 249 -253 c 31
EndSplineSet
EndChar

StartChar: commaturnedabovecmb
Encoding: 786 786 396
Width: 1075
VWidth: 1947
Flags: MW
LayerCount: 2
Fore
SplineSet
467 28 m 16
 426 -132 l 1
 548.915 -132 598.117 -176.836 598.117 -240.671 c 3
 598.117 -337.391 487.237 -411 379 -411 c 27
 300.85 -411 236 -379 194 -334 c 9
EndSplineSet
EndChar

StartChar: Hbar
Encoding: 294 294 400
Width: 1075
VWidth: 1947
Flags: W
LayerCount: 2
Back
SplineSet
-59 0 m 1
 241 1400 l 1
 1195 1400 l 1
 895 0 l 1
 -59 0 l 1
EndSplineSet
Fore
SplineSet
250 700 m 25
 895 700 l 25
1074 1560 m 25
 722 -128 l 25
429 1560 m 25
 77 -128 l 25
60 1160 m 25
 1275 1160 l 25
EndSplineSet
EndChar

StartChar: hbar
Encoding: 295 295 401
Width: 1075
VWidth: 1947
Flags: W
LayerCount: 2
Back
SplineSet
235 1400 m 1
 771 1400 l 1
 705.509 1086 l 1
 1181.75 1068 l 1
 959 0 l 1
 -56 0 l 1
 235 1400 l 1
EndSplineSet
Fore
SplineSet
39 1252 m 25
 924 1252 l 25
710 -183 m 25
 892 687 l 18
 928.648 862.188 855.671 944 632 944 c 10
 611 944 l 18
 429 944 255 731 228 597 c 10
 210 513 l 25
425 1542 m 25
 68 -171 l 25
EndSplineSet
EndChar

StartChar: IJ
Encoding: 306 306 410
Width: 1075
VWidth: 1947
Flags: W
LayerCount: 2
Back
SplineSet
7 0 m 5
 307 1425 l 5
 1150 1425 l 5
 890.373 208 l 5
 568.24 198 l 5
 526 0 l 5
 7 0 l 5
EndSplineSet
Fore
SplineSet
464 337 m 9
 552 337 l 18
 642 337 705 425 742 597 c 10
 893 1308 l 25
-85 92 m 25
 697 92 l 25
256 92 m 17
173 1308 m 25
 1225 1308 l 1
514 1309 m 1
 256 92 l 9
EndSplineSet
EndChar

StartChar: Tbar
Encoding: 358 358 430
Width: 1075
VWidth: 1947
Flags: W
LayerCount: 2
Back
SplineSet
278 1458 m 1
 1182 1458 l 1
 878 0 l 1
 -26 0 l 1
 278 1458 l 1
EndSplineSet
Fore
SplineSet
383 -207 m 25
 695 1295 l 25
93 1295 m 25
 1286 1295 l 25
-74 560 m 29
 1140 560 l 29
EndSplineSet
EndChar

StartChar: tbar
Encoding: 359 359 431
Width: 1075
VWidth: 1947
Flags: W
HStem: -19 209<493.818 713.488> 522 130<73.8504 844.924> 839 182<76 251 473 761>
VStem: 73.8504 771.074<522 652> 228 216<235.871 833.119> 251 215<420.546 839> 285 214<1094 1308>
DStem2: 265 1021 473 1021 0.0695178 0.997581<14.4597 287.696>
LayerCount: 2
Back
SplineSet
295 1425 m 1
 1046 1425 l 1
 895 705 l 1
 1006 705 l 1
 927.578 330 l 1
 1024.44 315 l 1
 941 -84 l 1
 -19 -84 l 1
 295 1425 l 1
EndSplineSet
Fore
SplineSet
-0 903 m 25
 1075 903 l 25
766 182 m 1
 719 119 632 80 554 80 c 10
 533 80 l 18
 446.815 80 336.071 134.408 360 248 c 2
 625 1506 l 9
-74 560 m 25
 1140 560 l 25
EndSplineSet
EndChar

StartChar: A
Encoding: 65 65 461
Width: 1075
VWidth: 1708
Flags: MW
LayerCount: 2
Back
SplineSet
-107 0 m 5
 190 1425 l 5
 1256 1425 l 5
 959 0 l 5
 -107 0 l 5
EndSplineSet
Fore
SplineSet
231 324 m 25
 756 324 l 25
42 -88 m 25
 708 1357 l 25
 780 -102 l 25
EndSplineSet
EndChar

StartChar: Lambda
Encoding: 923 923 462
Width: 1075
VWidth: 1708
Flags: MW
LayerCount: 2
Back
SplineSet
-107 0 m 5
 190 1425 l 5
 1256 1425 l 5
 959 0 l 5
 -107 0 l 5
EndSplineSet
Fore
SplineSet
11 -150 m 25
 708 1357 l 25
 786 -189 l 25
EndSplineSet
EndChar

StartChar: Delta
Encoding: 916 916 463
Width: 1075
VWidth: 1708
Flags: MW
LayerCount: 2
Back
SplineSet
-116.936 -24 m 5
 190 1425 l 5
 1256 1425 l 5
 949.064 -24 l 5
 -116.936 -24 l 5
EndSplineSet
Fore
SplineSet
771 105 m 9
 708 1357 l 17
 125 105 l 1
 771 105 l 9
EndSplineSet
EndChar

StartChar: Theta
Encoding: 920 920 464
Width: 1075
VWidth: 1947
Flags: MW
LayerCount: 2
Fore
SplineSet
716 1320 m 2
 936 1312 990.679 1133.06 916 749 c 1
 894 645 l 2
 824.622 344.037 712 80 461 80 c 2
 426 80 l 2
 207 89 156.441 271.739 228 651 c 1
 248 747 l 2
 315.733 1048.36 426 1310 685 1320 c 2
 716 1320 l 2
427 699 m 17
 521 699 624 699 719 699 c 9
EndSplineSet
EndChar

StartChar: Xi
Encoding: 926 926 465
Width: 1075
VWidth: 1708
Flags: W
LayerCount: 2
Back
SplineSet
78 828 m 5
 1140 828 l 5
 1140 561 l 5
 78 561 l 5
 78 828 l 5
69 1050 m 5
 129 1497 l 5
 1333 1497 l 5
 1273 1050 l 5
 69 1050 l 5
-153 -135 m 5
 -129 336 l 5
 1076 336 l 5
 1052 -135 l 5
 -153 -135 l 5
EndSplineSet
Fore
SplineSet
197 447 m 25
 126 105 l 25
 771 105 l 25
 842 447 l 25
409 700 m 25
 787 700 l 25
294 914 m 25
 373 1295 l 25
 1018 1295 l 25
 939 914 l 25
EndSplineSet
EndChar

StartChar: Sigma
Encoding: 931 931 468
Width: 1075
VWidth: 1947
Flags: MW
LayerCount: 2
Back
SplineSet
294 1425 m 5
 1154 1425 l 5
 852 -25 l 5
 -8 -25 l 5
 294 1425 l 5
EndSplineSet
Fore
SplineSet
1114 80 m 1
 86 80 l 1
 573 702 l 1
 338 1295 l 1
 1367 1295 l 1
EndSplineSet
EndChar

StartChar: Psi
Encoding: 936 936 473
Width: 1075
VWidth: 1947
Flags: MW
LayerCount: 2
Back
SplineSet
-112 -24 m 5
 168 1321 l 5
 531 1321 l 5
 564 1425 l 5
 883 1425 l 5
 876 1321 l 5
 1363 1321 l 5
 1083 -24 l 5
 -112 -24 l 5
EndSplineSet
Fore
SplineSet
1067 1400 m 25
 917 696 l 18
 895 595 792 512 666 512 c 10
 400 512 l 18
 265.02 512 211.002 625.608 226 696 c 14
 376 1400 l 25
750 1554 m 25
 388 -165 l 25
EndSplineSet
EndChar

StartChar: Omega
Encoding: 937 937 474
Width: 1075
VWidth: 1947
Flags: MW
LayerCount: 2
Back
SplineSet
-12 -42 m 5
 57 285 l 5
 -46 303 l 5
 201 1482 l 5
 1268 1482 l 5
 1016 279 l 5
 909 258 l 5
 846 -42 l 5
 -12 -42 l 5
EndSplineSet
Fore
SplineSet
-119 105 m 1
 252 105 l 0
 307 375 l 1
 248.268 462.415 209.104 552.088 264 830 c 1
 322 1107 417 1320 700 1320 c 3
 929.53 1320 1009.84 1193.96 933 830 c 0
 898 663 833 474 701 375 c 1
 645 105 l 1
 1016 105 l 25
EndSplineSet
EndChar

StartChar: alpha
Encoding: 945 945 483
Width: 1075
VWidth: 1947
Flags: MW
LayerCount: 2
Fore
SplineSet
963 1024 m 1
 616 223 l 2
 576 130 498 67 390 67 c 3
 205.308 67 200.417 297.883 246 513 c 4
 303 780 419 956 579 956 c 3
 687 956 739 891 739 800 c 2
 748 0 l 17
EndSplineSet
EndChar

StartChar: beta
Encoding: 946 946 484
Width: 1075
VWidth: 2334
Flags: MW
LayerCount: 2
Back
SplineSet
-173 -318 m 5
 135 1173 l 5
 1203 1173 l 5
 895 -318 l 5
 -173 -318 l 5
EndSplineSet
Fore
SplineSet
5 -474 m 25
 247 687 l 18
 284 866 393 944 601 944 c 10
 636 944 l 18
 795 944 916.39 888.95 889 752 c 0
 865 637 743 549 535 549 c 2
 471 549 l 1
 573 549 l 2
 758.387 549 869.152 472.973 838 325 c 10
 831 291 l 18
 803 156 683 80 476 80 c 10
 432 80 l 18
 244.525 80 132.302 140.434 164 291 c 10
EndSplineSet
EndChar

StartChar: gamma
Encoding: 947 947 485
Width: 1075
VWidth: 2334
Flags: MW
LayerCount: 2
Back
SplineSet
107 1024 m 5
 1173 1024 l 5
 878 -386 l 5
 -187 -386 l 5
 107 1024 l 5
EndSplineSet
Fore
SplineSet
316 -528 m 25
 450 106 l 25
294 1194 m 25
 443 79 l 25
 1057 1194 l 25
EndSplineSet
EndChar

StartChar: delta
Encoding: 948 948 486
Width: 1075
VWidth: 1947
Flags: MW
LayerCount: 2
Back
SplineSet
335 1506 m 5
 1062 1506 l 5
 980 1104 l 5
 1263 1083 l 5
 1015 -99 l 5
 -133 -99 l 5
 104 1029 l 5
 240 1047 l 5
 335 1506 l 5
EndSplineSet
Fore
SplineSet
228 597 m 10
 193 427 l 18
 150.261 219.409 240.8 80 432 80 c 10
 453 80 l 18
 661 80 791 201 838 427 c 10
 873 597 l 18
 918.75 821.174 849.832 944 632 944 c 10
 611 944 l 18
 403 944 275 821 228 597 c 10
1132 1295 m 25
 374 1295 l 25
 808 899 l 25
EndSplineSet
EndChar

StartChar: epsilon
Encoding: 949 949 487
Width: 1075
VWidth: 2334
Flags: W
LayerCount: 2
Back
SplineSet
-109 0 m 5
 122 1107 l 5
 1190 1107 l 5
 1095 651 l 5
 730 660 l 5
 673 372 l 5
 1033 360 l 5
 959 0 l 5
 -109 0 l 5
EndSplineSet
Fore
SplineSet
896 868 m 1
 866 918 780 944 655 944 c 10
 611 944 l 18
 408 944 289 871 259 741 c 2
 257 732 l 2
 235.019 655.067 279.79 533 531 533 c 10
 869 533 l 25
 531 533 l 18
 313 533 187 402 169 317 c 10
 166 300 l 18
 135.589 140.344 236.715 80 432 80 c 10
 476 80 l 18
 609 80 681 98 746 156 c 1
EndSplineSet
EndChar

StartChar: zeta
Encoding: 950 950 488
Width: 1075
VWidth: 2334
Flags: MW
LayerCount: 2
Back
SplineSet
182 1389 m 5
 1144 1389 l 5
 962 512 l 5
 1066 512 l 5
 874 -411 l 5
 340 -411 l 5
 405 -96 l 5
 -123 -81 l 5
 182 1389 l 5
EndSplineSet
Fore
SplineSet
542 1049 m 17
 635 957 783 919 940 919 c 1
 872 859 788 802 704 756 c 2
 435 617 l 2
 295.465 544.898 201 467 178 357 c 10
 174 337 l 18
 134.868 158.112 219.24 80 432 80 c 10
 453 80 l 18
 708.749 80 740.407 -40.1678 728 -96 c 2
 725 -114 l 2
 697 -247 579 -294 447 -294 c 10
 65 -294 l 25
EndSplineSet
EndChar

StartChar: eta
Encoding: 951 951 489
Width: 1075
VWidth: 2334
Flags: MW
LayerCount: 2
Back
SplineSet
-109 0 m 5
 107 1024 l 5
 466 1024 l 5
 511 1191 l 5
 1207 1191 l 5
 878 -387 l 5
 346 -387 l 5
 422 0 l 5
 -109 0 l 5
EndSplineSet
Fore
SplineSet
634 -549 m 25
 892 687 l 18
 928.572 862.205 855.671 944 632 944 c 10
 611 944 l 18
 429 944 255 731 228 597 c 10
 210 513 l 25
352 1193 m 25
 65 -186 l 25
EndSplineSet
EndChar

StartChar: theta
Encoding: 952 952 490
Width: 1075
VWidth: 1947
Flags: MW
LayerCount: 2
Fore
SplineSet
228 597 m 10
 193 427 l 18
 150 219 241 80 432 80 c 10
 453 80 l 18
 661 80 791 201 838 427 c 10
 873 597 l 18
 919 821 850 944 632 944 c 10
 611 944 l 18
 403 944 275 821 228 597 c 10
214 512 m 17
 322 512 744 512 854 512 c 9
EndSplineSet
EndChar

StartChar: lambda
Encoding: 955 955 491
Width: 1075
VWidth: 2334
Flags: MW
LayerCount: 2
Back
SplineSet
-107 0 m 5
 187 1410 l 5
 1253 1410 l 5
 959 0 l 5
 -107 0 l 5
EndSplineSet
Fore
SplineSet
535 1581 m 25
 621.044 944.444 l 25
15 -156 m 25
 621.044 944.444 l 25
 771 -162 l 25
EndSplineSet
EndChar

StartChar: xi
Encoding: 958 958 494
Width: 1075
VWidth: 2334
Flags: MW
LayerCount: 2
Back
SplineSet
190 1425 m 5
 1046 1425 l 5
 906 756 l 5
 793 741 l 5
 694 267 l 5
 1015 267 l 5
 874 -410 l 5
 340 -410 l 5
 403 -105 l 5
 -125 -90 l 5
 190 1425 l 5
EndSplineSet
Fore
SplineSet
468 1212 m 17
 550 1119 652 1083 811 1077 c 1
 747.704 1040.35 676.42 1001.94 609 978.207 c 2
 402 905.344 l 2
 329.165 879.707 281.185 836.066 259 744 c 2
 257 732 l 2
 236.305 607.828 279.79 533 531 533 c 10
 996 533 l 25
 531 533 l 18
 313 533 187 402 169 317 c 10
 166 300 l 18
 135.589 140.344 222 80 432 80 c 10
 476 80 l 18
 612 80 754.413 23.6017 730 -88 c 10
 723 -120 l 18
 702 -220 594 -294 466 -294 c 10
 82 -294 l 25
EndSplineSet
EndChar

StartChar: pi
Encoding: 960 960 496
Width: 1075
VWidth: 2334
Flags: MW
LayerCount: 2
Back
SplineSet
272 1320 m 5
 1129 1320 l 5
 855 0 l 5
 -3 0 l 5
 272 1320 l 5
EndSplineSet
Fore
SplineSet
74 812 m 17
 157 878 253 919 422 919 c 2
 812 919 l 2
 986 919 1098 988 1169 1062 c 9
836 919 m 25
 687 200 l 18
 669.78 124.234 688.098 -78.9195 768 -142 c 8
26 -142 m 17
 124 -80 227 96 250 200 c 10
 399 919 l 25
EndSplineSet
EndChar

StartChar: rho
Encoding: 961 961 497
Width: 1075
VWidth: 2334
Flags: MW
LayerCount: 2
Back
SplineSet
-187 -384 m 5
 168 1325 l 5
 1238 1325 l 5
 883 -384 l 5
 -187 -384 l 5
EndSplineSet
Fore
SplineSet
-13 -561 m 25
 210 514 l 25
838 427 m 10
 873 597 l 18
 915.525 803.552 826.646 944 632 944 c 10
 611 944 l 18
 403 944 275 823 228 597 c 10
 193 427 l 18
 147.426 208.244 215.349 80 432 80 c 10
 453 80 l 18
 661 80 791 203 838 427 c 10
EndSplineSet
EndChar

StartChar: sigmafinal
Encoding: 962 962 498
Width: 1075
VWidth: 2334
Flags: MW
LayerCount: 2
Back
SplineSet
-119 -57 m 5
 151 1191 l 5
 1207 1191 l 5
 878 -387 l 5
 346 -387 l 5
 412 -57 l 5
 -119 -57 l 5
EndSplineSet
Fore
SplineSet
982 888 m 9
 939 904 l 18
 866.373 931.024 792.667 944 729 944 c 2
 689 944 l 2
 449.333 944 270 800 228 597 c 10
 193 427 l 18
 150 219 241 80 432 80 c 10
 453 80 l 18
 581 80 745 19 729 -93 c 2
 725 -111 l 2
 701 -227 592 -294 445 -294 c 10
 72 -294 l 25
EndSplineSet
EndChar

StartChar: sigma
Encoding: 963 963 499
Width: 1075
VWidth: 1947
Flags: MW
LayerCount: 2
Back
SplineSet
-124 -84 m 5
 134 1152 l 5
 1130 1152 l 5
 1060 819 l 5
 1125 795 l 5
 941 -84 l 5
 -124 -84 l 5
EndSplineSet
Fore
SplineSet
228 597 m 10
 193 427 l 18
 150.261 219.409 240.8 80 432 80 c 10
 453 80 l 18
 661 80 791 201 838 427 c 10
 873 597 l 18
 918.75 821.174 849.832 944 632 944 c 10
 611 944 l 18
 403 944 275 821 228 597 c 10
1242 919 m 25
 774 919 l 25
EndSplineSet
EndChar

StartChar: tau
Encoding: 964 964 500
Width: 1075
VWidth: 2334
Flags: MW
LayerCount: 2
Back
SplineSet
272 1320 m 5
 1129 1320 l 5
 855 0 l 5
 -3 0 l 5
 272 1320 l 5
EndSplineSet
Fore
SplineSet
74 812 m 17
 157 878 253 919 422 919 c 2
 812 919 l 2
 986 919 1098 988 1169 1062 c 9
198 -142 m 17
 309 -88 439 62 468 200 c 2
 617 919 l 9
EndSplineSet
EndChar

StartChar: upsilon
Encoding: 965 965 501
Width: 1075
VWidth: 1947
Flags: MW
LayerCount: 2
Back
SplineSet
-130 -111 m 5
 106 1024 l 5
 472 1024 l 5
 431 830 l 5
 681 830 l 5
 728 1063 l 5
 1178 1063 l 5
 932 -111 l 5
 -130 -111 l 5
EndSplineSet
Fore
SplineSet
349 1179 m 1
 210 513 l 2
 160 272 181 80 419 80 c 2
 464 80 l 2
 686.945 80 806 243 862 492 c 2
 871 533 l 2
 925 803 855 944 753 944 c 10
 566 944 l 25
EndSplineSet
EndChar

StartChar: phi
Encoding: 966 966 502
Width: 1075
VWidth: 1947
Flags: MW
LayerCount: 2
Back
SplineSet
-188 -387 m 5
 89 944 l 5
 455 944 l 5
 478 1047 l 5
 1194 1047 l 5
 898 -387 l 5
 -188 -387 l 5
EndSplineSet
Fore
SplineSet
308 -567 m 1
 572 702 l 2
 606 867 696 943 788 943 c 3
 938.741 943 966.249 764.648 928 594 c 2
 893 435 l 2
 842 206 661 80 443 80 c 3
 192.939 80 98.8135 253.169 153 513 c 2
 275 1098 l 1
EndSplineSet
EndChar

StartChar: chi
Encoding: 967 967 503
Width: 1075
VWidth: 2062
Flags: MW
LayerCount: 2
Back
SplineSet
106 1023 m 5
 1172 1023 l 5
 879 -387 l 5
 -187 -387 l 5
 106 1023 l 5
EndSplineSet
Fore
SplineSet
1125 1298 m 25
 -147 -690 l 17
145.865 1239 m 1
 349.017 978 l 2
 424.285 881.299 441.191 738.534 454.141 594 c 2
 501.985 60 l 2
 514.741 -82.373 549.732 -218.698 623.874 -324 c 2
 852 -648 l 9
EndSplineSet
EndChar

StartChar: psi
Encoding: 968 968 504
Width: 1075
VWidth: 1947
Flags: MW
LayerCount: 2
Back
SplineSet
-187 -387 m 5
 89 944 l 5
 455 944 l 5
 478 1047 l 5
 862 1047 l 5
 840 944 l 5
 1172 944 l 5
 898 -387 l 5
 -187 -387 l 5
EndSplineSet
Fore
SplineSet
320 -510 m 1
 680 1221 l 17
1046 1149 m 0
 913 513 l 2
 857 244 686 80 443 80 c 3
 191.156 80 99.1855 252.487 153 513 c 2
 285 1152 l 1
EndSplineSet
EndChar

StartChar: omega
Encoding: 969 969 505
Width: 1075
VWidth: 2334
Flags: MW
LayerCount: 2
Back
SplineSet
-130 -114 m 5
 107 1024 l 5
 1173 1024 l 5
 935 -114 l 5
 -130 -114 l 5
EndSplineSet
Fore
SplineSet
468 1158 m 17
 326.447 975 l 2
 264.048 894.33 221.197 788.305 203 702 c 10
 127 336 l 18
 100.334 207.116 143.58 80 243 80 c 10
 254 80 l 18
 368 80 451 116 478 247 c 10
 572 700 l 25
 478 247 l 18
 456.892 141.462 497.342 80 627 80 c 10
 638 80 l 18
 751 80 837 203 865 337 c 10
 941 702 l 18
 958.865 789.34 957.416 894.553 930.756 978 c 2
 879 1140 l 8
EndSplineSet
EndChar

StartChar: dieresiscmb
Encoding: 776 776 508
Width: 1075
VWidth: 1947
Flags: MW
LayerCount: 2
Fore
SplineSet
643 1386 m 4
 643 1323 592 1267 530 1267 c 4
 469 1267 416 1320 416 1386 c 4
 416 1456 472 1501 529 1501 c 4
 594 1501 643 1447 643 1386 c 4
1019 1386 m 4
 1019 1317 964 1267 907 1267 c 4
 847 1267 794 1321 794 1386 c 4
 794 1452 847 1501 907 1501 c 4
 962 1501 1019 1456 1019 1386 c 4
EndSplineSet
EndChar

StartChar: Djecyrillic
Encoding: 1026 1026 512
Width: 1075
VWidth: 2334
Flags: MW
LayerCount: 2
Back
SplineSet
-26 0 m 5
 278 1446 l 5
 1053 1446 l 5
 992 1152 l 5
 1198 1146 l 5
 934 -120 l 5
 520 -120 l 5
 543 0 l 5
 -26 0 l 5
EndSplineSet
Fore
SplineSet
366 263 m 25
 399 417 l 18
 468 755 663 887 751 887 c 10
 772 887 l 18
 907.414 887 950.167 807.834 926 687 c 2
 853 336 l 2
 823 194 771 105 638 105 c 10
 618 105 l 25
581 1295 m 25
 278 -153 l 25
33 1295 m 25
 1194 1295 l 25
EndSplineSet
EndChar

StartChar: Ljecyrillic
Encoding: 1033 1033 513
Width: 1075
VWidth: 1947
Flags: MW
LayerCount: 2
Back
SplineSet
190 1425 m 5
 1256 1425 l 5
 938 -100 l 5
 215 -100 l 5
 235 0 l 5
 -107 0 l 5
 190 1425 l 5
EndSplineSet
Fore
SplineSet
2 -126 m 25
 373 1075 l 18
 406 1183 499 1295 548 1295 c 10
 708 1295 l 1
 462 105 l 1
 540 105 l 2
 759 105 863 158 900 337 c 2
 932 495 l 2
 970.829 678.053 883.644 765 677 765 c 2
 599 765 l 25
EndSplineSet
EndChar

StartChar: Njecyrillic
Encoding: 1034 1034 514
Width: 1075
VWidth: 1947
Flags: MW
LayerCount: 2
Back
SplineSet
185 1400 m 5
 1251 1400 l 5
 938 -100 l 5
 215 -100 l 5
 235 0 l 5
 -107 0 l 5
 185 1400 l 5
EndSplineSet
Fore
SplineSet
367 1542 m 25
 2 -186 l 25
206 765 m 25
 677 765 l 2
 885.579 765 970.801 677.918 932 495 c 2
 900 337 l 2
 863 158 759 105 540 105 c 2
 462 105 l 1
 759 1542 l 1
EndSplineSet
EndChar

StartChar: Tshecyrillic
Encoding: 1035 1035 515
Width: 1075
VWidth: 1947
Flags: MW
LayerCount: 2
Back
SplineSet
280 1446 m 5
 1057 1446 l 5
 995 1152 l 5
 1199 1152 l 5
 957 0 l 5
 -24 0 l 5
 280 1446 l 5
EndSplineSet
Fore
SplineSet
747 -177 m 25
 926 687 l 18
 950.532 809.662 905.684 887 772 887 c 14
 751 887 l 18
 663 887 468 755 399 417 c 10
 366 263 l 25
581 1295 m 25
 275 -177 l 25
70 1295 m 17
 1159 1295 l 9
EndSplineSet
EndChar

StartChar: Dzhecyrillic
Encoding: 1039 1039 516
Width: 1075
VWidth: 2334
Flags: MW
LayerCount: 2
Back
SplineSet
-187 -384 m 5
 186 1401 l 5
 1249 1401 l 5
 873 -384 l 5
 -187 -384 l 5
EndSplineSet
Fore
SplineSet
449 105 m 25
 318 -519 l 25
423 1533 m 25
 126 105 l 25
 771 105 l 17
 1068 1533 l 9
EndSplineSet
EndChar

StartChar: djecyrillic
Encoding: 1106 1106 517
Width: 1075
VWidth: 2334
Flags: MW
LayerCount: 2
Back
SplineSet
-194 -410 m 5
 -136 -140 l 5
 236 -144 l 5
 298 0 l 5
 -71 0 l 5
 225 1426 l 5
 887 1426 l 5
 790 956 l 5
 1287 956 l 5
 1005 -410 l 5
 -194 -410 l 5
EndSplineSet
Fore
SplineSet
-98 1153 m 25
 948 1153 l 25
228 -228 m 1
 258 -271 316 -294 381 -294 c 10
 440 -294 l 18
 595 -294 713 -170 743 -28 c 10
 864 553 l 18
 901.296 732.022 874.377 823 666 823 c 10
 645 823 l 18
 462 823 286 597 257 463 c 10
 241 379 l 25
500 1620 m 25
 144 -84 l 25
EndSplineSet
EndChar

StartChar: dzhecyrillic
Encoding: 1119 1119 519
Width: 1075
VWidth: 1947
Flags: MW
LayerCount: 2
Back
SplineSet
106 1024 m 5
 1172 1024 l 5
 878 -387 l 5
 -188 -387 l 5
 106 1024 l 5
EndSplineSet
Fore
SplineSet
326 -480 m 25
 449 106 l 25
348 1173 m 25
 126 106 l 25
 771 106 l 25
 992 1173 l 25
EndSplineSet
EndChar

StartChar: ljecyrillic
Encoding: 1113 1113 520
Width: 1075
VWidth: 1947
Flags: MW
LayerCount: 2
Back
SplineSet
112 1048 m 5
 1178 1048 l 5
 959 0 l 5
 -107 0 l 5
 112 1048 l 5
EndSplineSet
Fore
SplineSet
15 -99 m 16
 212 615 l 2
 253 763 309 870 460 918 c 9
 619 918 l 25
 450 105 l 25
 609 105 l 18
 719 105 827 156 856 291 c 2
 865 337 l 2
 887.337 451.167 829.042 561 703 561 c 10
 544 561 l 25
EndSplineSet
EndChar

StartChar: njecyrillic
Encoding: 1114 1114 521
Width: 1075
VWidth: 1947
Flags: MW
LayerCount: 2
Back
SplineSet
106 1024 m 5
 1172 1024 l 5
 959 0 l 5
 -107 0 l 5
 106 1024 l 5
EndSplineSet
Fore
SplineSet
291 1128 m 25
 28 -153 l 25
661 1128 m 25
 450 105 l 25
 609 105 l 18
 719 105 827 156 856 291 c 2
 865 337 l 2
 887.337 451.167 829.042 561 703 561 c 10
 544 561 l 25
 174 561 l 25
EndSplineSet
EndChar

StartChar: apostrophereverse
Encoding: 8219 8219 523
Width: 1075
VWidth: 1708
Flags: W
HStem: 928 74<771.58 799.974> 1304 20G<566 613.45>
LayerCount: 2
Fore
SplineSet
838 1297 m 0
 838 1228 785 1167 708 1167 c 0
 634 1167 579 1227 579 1297 c 0
 579 1365 630 1427 708 1427 c 0
 784 1427 838 1367 838 1297 c 0
582 1324 m 9
 788 1193 l 17
 745.919 1162.3 730.131 1133.03 730.131 1106.83 c 0
 730.131 1057.07 787.075 1018.38 829 1002 c 9
 793 928 l 17
 557.454 953.763 550 1173 582 1324 c 9
EndSplineSet
EndChar

StartChar: arrowleft
Encoding: 8592 8592 526
Width: 1075
VWidth: 1708
Flags: W
LayerCount: 2
Fore
SplineSet
999 -99 m 5
 127 -99 l 5
 127 1224 l 5
 999 1224 l 5
 999 -99 l 5
538 960 m 29
 167 600 l 29
 538 240 l 29
167 600 m 29
 949 600 l 29
EndSplineSet
EndChar

StartChar: arrowright
Encoding: 8594 8594 527
Width: 1075
VWidth: 1708
Flags: MW
LayerCount: 2
Fore
SplineSet
77 -99 m 1
 77 1224 l 1
 949 1224 l 1
 949 -99 l 1
 77 -99 l 1
538 960 m 25
 909 600 l 25
 538 240 l 25
909 600 m 25
 127 600 l 25
EndSplineSet
EndChar

StartChar: lthorizform
Encoding: 9472 9472 528
Width: 1075
Flags: W
LayerCount: 2
Fore
SplineSet
1075 523 m 1
 -0 523 l 1
EndSplineSet
EndChar

StartChar: ltvertform
Encoding: 9474 9474 529
Width: 1075
Flags: W
LayerCount: 2
Fore
SplineSet
538 1775 m 1
 538 -615 l 1
EndSplineSet
EndChar

StartChar: rightanglenw
Encoding: 9484 9484 530
Width: 1075
Flags: W
LayerCount: 2
Fore
SplineSet
538 -615 m 1
 538 523 l 1
 1075 523 l 1
EndSplineSet
EndChar

StartChar: rightanglene
Encoding: 9488 9488 531
Width: 1075
Flags: W
LayerCount: 2
Fore
SplineSet
538 -615 m 1
 538 523 l 1
 -0 523 l 1
EndSplineSet
EndChar

StartChar: rightanglesw
Encoding: 9492 9492 532
Width: 1075
Flags: W
LayerCount: 2
Fore
SplineSet
538 1775 m 5
 538 523 l 1
 1075 523 l 1
EndSplineSet
EndChar

StartChar: rightanglese
Encoding: 9496 9496 533
Width: 1075
Flags: W
LayerCount: 2
Fore
SplineSet
538 1775 m 5
 538 523 l 1
 -0 523 l 1
EndSplineSet
EndChar

StartChar: ltvertrightform
Encoding: 9500 9500 534
Width: 1075
Flags: W
LayerCount: 2
Fore
SplineSet
538 1775 m 5
 538 -615 l 1
1075 523 m 1
 538 523 l 1
EndSplineSet
EndChar

StartChar: ltvertleftform
Encoding: 9508 9508 535
Width: 1075
Flags: W
LayerCount: 2
Fore
SplineSet
538 1775 m 5
 538 -615 l 1
538 523 m 1
 -0 523 l 1
EndSplineSet
EndChar

StartChar: ltdnhorizform
Encoding: 9516 9516 536
Width: 1075
Flags: W
LayerCount: 2
Fore
SplineSet
538 523 m 1
 538 -615 l 1
1075 523 m 1
 -0 523 l 1
EndSplineSet
EndChar

StartChar: ltuphorizform
Encoding: 9524 9524 537
Width: 1075
Flags: W
LayerCount: 2
Fore
SplineSet
538 1775 m 5
 538 523 l 1
1075 523 m 1
 -0 523 l 1
EndSplineSet
EndChar

StartChar: ltverthorizform
Encoding: 9532 9532 538
Width: 1075
Flags: W
LayerCount: 2
Fore
SplineSet
538 1775 m 5
 538 -615 l 1
1075 523 m 1
 -0 523 l 1
EndSplineSet
EndChar

StartChar: horizdblbar
Encoding: 9552 9552 539
Width: 1075
Flags: W
LayerCount: 2
Fore
SplineSet
1075 363 m 1
 0 363 l 1
1075 683 m 1
 0 683 l 1
EndSplineSet
EndChar

StartChar: vertdblbar
Encoding: 9553 9553 540
Width: 1075
Flags: W
LayerCount: 2
Fore
SplineSet
378 1775 m 5
 378 -615 l 1
698 1775 m 5
 698 -615 l 1
EndSplineSet
EndChar

StartChar: dnrtdblform
Encoding: 9554 9554 541
Width: 1075
Flags: W
LayerCount: 2
Fore
SplineSet
1075 363 m 1
 538 363 l 1
1075 683 m 1
 538 683 l 1
 538 -615 l 1
EndSplineSet
EndChar

StartChar: dndblrtform
Encoding: 9555 9555 542
Width: 1075
Flags: W
LayerCount: 2
Fore
SplineSet
378 -615 m 1
 378 523 l 1
 1075 523 l 1
698 523 m 1
 698 -615 l 1
EndSplineSet
EndChar

StartChar: dbldnrtform
Encoding: 9556 9556 543
Width: 1075
Flags: W
LayerCount: 2
Fore
SplineSet
1075 363 m 1
 698 363 l 1
 698 -615 l 1
1075 683 m 1
 378 683 l 1
 378 -615 l 1
EndSplineSet
EndChar

StartChar: dnleftdblform
Encoding: 9557 9557 544
Width: 1075
Flags: W
LayerCount: 2
Fore
SplineSet
538 363 m 1
 0 363 l 1
0 683 m 1
 538 683 l 1
 538 -615 l 1
EndSplineSet
EndChar

StartChar: dndblleftform
Encoding: 9558 9558 545
Width: 1075
Flags: W
LayerCount: 2
Fore
SplineSet
378 523 m 1
 378 -615 l 1
698 -615 m 1
 698 523 l 1
 -0 523 l 1
EndSplineSet
EndChar

StartChar: dbldnleftform
Encoding: 9559 9559 546
Width: 1075
Flags: W
LayerCount: 2
Fore
SplineSet
0 363 m 1
 378 363 l 1
 378 -615 l 1
0 683 m 1
 698 683 l 1
 698 -615 l 1
EndSplineSet
EndChar

StartChar: uprtdblform
Encoding: 9560 9560 547
Width: 1075
Flags: W
LayerCount: 2
Fore
SplineSet
1075 363 m 1
 538 363 l 1
 538 1775 l 5
1075 683 m 1
 538 683 l 1
EndSplineSet
EndChar

StartChar: updblrtform
Encoding: 9561 9561 548
Width: 1075
Flags: W
LayerCount: 2
Fore
SplineSet
378 1775 m 5
 378 523 l 1
 1075 523 l 1
698 1775 m 5
 698 523 l 1
EndSplineSet
EndChar

StartChar: dbluprtform
Encoding: 9562 9562 549
Width: 1075
Flags: W
LayerCount: 2
Fore
SplineSet
1075 363 m 1
 378 363 l 1
 378 1775 l 5
1075 683 m 1
 698 683 l 1
 698 1775 l 5
EndSplineSet
EndChar

StartChar: upleftdblform
Encoding: 9563 9563 550
Width: 1075
Flags: W
LayerCount: 2
Fore
SplineSet
0 363 m 1
 538 363 l 1
 538 1775 l 5
538 683 m 1
 0 683 l 1
EndSplineSet
EndChar

StartChar: updblleftform
Encoding: 9564 9564 551
Width: 1075
Flags: W
LayerCount: 2
Fore
SplineSet
378 1775 m 5
 378 523 l 1
698 1775 m 5
 698 523 l 1
 -0 523 l 1
EndSplineSet
EndChar

StartChar: dblupleftform
Encoding: 9565 9565 552
Width: 1075
Flags: W
LayerCount: 2
Fore
SplineSet
0 363 m 1
 698 363 l 1
 698 1775 l 5
0 683 m 1
 378 683 l 1
 378 1775 l 5
EndSplineSet
EndChar

StartChar: vertrtdblform
Encoding: 9566 9566 553
Width: 1075
Flags: W
LayerCount: 2
Fore
SplineSet
1075 363 m 1
 538 363 l 1
1075 683 m 1
 538 683 l 1
538 1775 m 5
 538 -615 l 1
EndSplineSet
EndChar

StartChar: vertdblrtform
Encoding: 9567 9567 554
Width: 1075
Flags: W
LayerCount: 2
Fore
SplineSet
378 1775 m 1
 378 -615 l 1
698 1775 m 1
 698 -615 l 1
1075 523 m 1
 698 523 l 1
EndSplineSet
EndChar

StartChar: dblvertrtform
Encoding: 9568 9568 555
Width: 1075
Flags: W
LayerCount: 2
Fore
SplineSet
1075 363 m 1
 698 363 l 1
 698 -615 l 1
1075 683 m 1
 698 683 l 1
 698 1775 l 5
378 1775 m 5
 378 -615 l 1
EndSplineSet
EndChar

StartChar: vertleftdblform
Encoding: 9569 9569 556
Width: 1075
Flags: W
LayerCount: 2
Fore
SplineSet
538 363 m 1
 0 363 l 1
538 683 m 1
 0 683 l 1
538 1775 m 5
 538 -615 l 1
EndSplineSet
EndChar

StartChar: vertdblleftform
Encoding: 9570 9570 557
Width: 1075
Flags: W
LayerCount: 2
Fore
SplineSet
378 1775 m 5
 378 -615 l 1
698 1775 m 5
 698 -615 l 1
378 523 m 1
 -0 523 l 1
EndSplineSet
EndChar

StartChar: dblvertleftform
Encoding: 9571 9571 558
Width: 1075
Flags: W
LayerCount: 2
Fore
SplineSet
0 363 m 1
 378 363 l 1
 378 -615 l 1
0 683 m 1
 378 683 l 1
 378 1775 l 5
698 1775 m 5
 698 -615 l 1
EndSplineSet
EndChar

StartChar: dnhorizdblform
Encoding: 9572 9572 559
Width: 1075
Flags: W
LayerCount: 2
Fore
SplineSet
1075 363 m 1
 0 363 l 1
1075 683 m 1
 0 683 l 1
538 363 m 1
 538 -615 l 1
EndSplineSet
EndChar

StartChar: dndblhorizform
Encoding: 9573 9573 560
Width: 1075
Flags: W
LayerCount: 2
Fore
SplineSet
378 523 m 1
 378 -615 l 1
698 523 m 1
 698 -615 l 1
1075 523 m 1
 0 523 l 1
EndSplineSet
EndChar

StartChar: dbldnhorizform
Encoding: 9574 9574 561
Width: 1075
Flags: W
LayerCount: 2
Fore
SplineSet
1075 363 m 1
 698 363 l 1
 698 -615 l 1
0 363 m 1
 378 363 l 1
 378 -615 l 1
1075 683 m 1
 0 683 l 1
EndSplineSet
EndChar

StartChar: uphorizdblform
Encoding: 9575 9575 562
Width: 1075
Flags: W
LayerCount: 2
Fore
SplineSet
1075 363 m 1
 0 363 l 1
1075 683 m 1
 0 683 l 1
538 1775 m 5
 538 683 l 1
EndSplineSet
EndChar

StartChar: updblhorizform
Encoding: 9576 9576 563
Width: 1075
Flags: W
LayerCount: 2
Fore
SplineSet
378 1775 m 5
 378 523 l 1
698 1775 m 5
 698 523 l 1
1075 523 m 1
 -0 523 l 1
EndSplineSet
EndChar

StartChar: dbluphorizform
Encoding: 9577 9577 564
Width: 1075
Flags: W
LayerCount: 2
Fore
SplineSet
1075 363 m 1
 0 363 l 1
1075 683 m 1
 698 683 l 1
 698 1775 l 5
0 683 m 1
 378 683 l 1
 378 1775 l 5
EndSplineSet
EndChar

StartChar: verthorizdblform
Encoding: 9578 9578 565
Width: 1075
Flags: W
LayerCount: 2
Fore
SplineSet
1075 363 m 1
 0 363 l 1
1075 715 m 1
 0 715 l 1
538 1775 m 1
 538 715 l 1
538 363 m 1
 538 -615 l 1
EndSplineSet
EndChar

StartChar: vertdblhorizform
Encoding: 9579 9579 566
Width: 1075
Flags: W
LayerCount: 2
Fore
SplineSet
378 1775 m 1
 378 -615 l 1
698 1775 m 1
 698 -615 l 1
1075 523 m 1
 698 523 l 1
378 523 m 1
 -0 523 l 1
EndSplineSet
EndChar

StartChar: dblverthorizform
Encoding: 9580 9580 567
Width: 1075
Flags: W
LayerCount: 2
Fore
SplineSet
1075 363 m 1
 698 363 l 1
 698 -615 l 1
0 363 m 1
 378 363 l 1
 378 -615 l 1
1075 683 m 1
 698 683 l 1
 698 1775 l 5
0 683 m 1
 378 683 l 1
 378 1775 l 5
EndSplineSet
EndChar

StartChar: upblock
Encoding: 9600 9600 568
Width: 1075
Flags: W
VStem: -0 922<523 1775>
LayerCount: 2
Fore
SplineSet
1075 523 m 1
 -0 523 l 1
 0 1775 l 5
 1075 1775 l 5
 1075 523 l 1
EndSplineSet
EndChar

StartChar: dnblock
Encoding: 9604 9604 569
Width: 1075
Flags: W
HStem: -615 1138<0 922>
VStem: -0 922<-615 523>
LayerCount: 2
Fore
SplineSet
1075 -615 m 1
 -0 -615 l 1
 -0 523 l 1
 1075 523 l 1
 1075 -615 l 1
EndSplineSet
EndChar

StartChar: block
Encoding: 9608 9608 570
Width: 1075
Flags: W
VStem: -0 922<-615 1775>
LayerCount: 2
Fore
SplineSet
-0 -615 m 1
 0 1775 l 5
 1075 1775 l 5
 1075 -615 l 1
 -0 -615 l 1
EndSplineSet
EndChar

StartChar: lfblock
Encoding: 9612 9612 571
Width: 1075
Flags: W
VStem: -0 461<-615 1775>
LayerCount: 2
Fore
SplineSet
-0 -615 m 1
 0 1775 l 5
 538 1775 l 5
 538 -615 l 1
 -0 -615 l 1
EndSplineSet
EndChar

StartChar: rtblock
Encoding: 9616 9616 572
Width: 1075
Flags: W
VStem: 461 461<-615 1775>
LayerCount: 2
Fore
SplineSet
538 -615 m 1
 538 1775 l 5
 1075 1775 l 5
 1075 -615 l 1
 538 -615 l 1
EndSplineSet
EndChar

StartChar: shadelight
Encoding: 9617 9617 573
Width: 1075
Flags: W
HStem: -514 100<153 230 461 540 769 846> -315 100<0 77 307 385 616 693> -115 99<153 230 461 540 769 846> 83 100<0 77 307 385 616 693> 283 99<153 230 461 540 769 846> 482 99<0 77 307 385 616 693> 681 100<153 230 461 540 769 846> 881 99<0 77 307 385 616 693> 1080 99<153 230 461 540 769 846> 1278 100<0 77 307 385 616 693> 1477 100<153 230 461 540 769 846> 1677 98<0 77 307 385 616 693>
VStem: 0 77<-315 -215 83 183 482 581 881 980 1278 1378 1677 1775> 153 77<-514 -414 -115 -16 283 382 681 781 1080 1179 1477 1577> 307 78<-315 -215 83 183 482 581 881 980 1278 1378 1677 1775> 461 79<-514 -414 -115 -16 283 382 681 781 1080 1179 1477 1577> 616 77<-315 -215 83 183 482 581 881 980 1278 1378 1677 1775> 769 77<-514 -414 -115 -16 283 382 681 781 1080 1179 1477 1577>
LayerCount: 2
Fore
SplineSet
0 1378 m 1
 90 1378 l 1
 90 1278 l 1
 0 1278 l 1
 0 1378 l 1
358 1378 m 1
 449 1378 l 1
 449 1278 l 1
 358 1278 l 1
 358 1378 l 1
719 1378 m 1
 808 1378 l 1
 808 1278 l 1
 719 1278 l 1
 719 1378 l 1
179 1179 m 1
 269 1179 l 1
 269 1080 l 1
 179 1080 l 1
 179 1179 l 1
538 1179 m 1
 630 1179 l 1
 630 1080 l 1
 538 1080 l 1
 538 1179 l 1
897 1179 m 1
 987 1179 l 1
 987 1080 l 1
 897 1080 l 1
 897 1179 l 1
719 980 m 1
 808 980 l 1
 808 881 l 1
 719 881 l 1
 719 980 l 1
358 980 m 1
 449 980 l 1
 449 881 l 1
 358 881 l 1
 358 980 l 1
0 980 m 1
 90 980 l 1
 90 881 l 1
 0 881 l 1
 0 980 l 1
897 781 m 1
 987 781 l 1
 987 681 l 1
 897 681 l 1
 897 781 l 1
538 781 m 1
 630 781 l 1
 630 681 l 1
 538 681 l 1
 538 781 l 1
179 781 m 1
 269 781 l 1
 269 681 l 1
 179 681 l 1
 179 781 l 1
0 581 m 1
 90 581 l 1
 90 482 l 1
 0 482 l 1
 0 581 l 1
358 581 m 1
 449 581 l 1
 449 482 l 1
 358 482 l 1
 358 581 l 1
719 581 m 1
 808 581 l 1
 808 482 l 1
 719 482 l 1
 719 581 l 1
897 382 m 1
 987 382 l 1
 987 283 l 1
 897 283 l 1
 897 382 l 1
538 382 m 1
 630 382 l 1
 630 283 l 1
 538 283 l 1
 538 382 l 1
179 382 m 1
 269 382 l 1
 269 283 l 1
 179 283 l 1
 179 382 l 1
0 183 m 1
 90 183 l 1
 90 83 l 1
 0 83 l 1
 0 183 l 1
358 183 m 1
 449 183 l 1
 449 83 l 1
 358 83 l 1
 358 183 l 1
719 183 m 1
 808 183 l 1
 808 83 l 1
 719 83 l 1
 719 183 l 1
179 -16 m 1
 269 -16 l 1
 269 -115 l 1
 179 -115 l 1
 179 -16 l 1
538 -16 m 1
 630 -16 l 1
 630 -115 l 1
 538 -115 l 1
 538 -16 l 1
897 -16 m 1
 987 -16 l 1
 987 -115 l 1
 897 -115 l 1
 897 -16 l 1
719 -215 m 1
 808 -215 l 1
 808 -315 l 1
 719 -315 l 1
 719 -215 l 1
358 -215 m 1
 449 -215 l 1
 449 -315 l 1
 358 -315 l 1
 358 -215 l 1
0 -215 m 1
 90 -215 l 1
 90 -315 l 1
 0 -315 l 1
 0 -215 l 1
179 -414 m 1
 269 -414 l 1
 269 -514 l 1
 179 -514 l 1
 179 -414 l 1
538 -414 m 1
 630 -414 l 1
 630 -514 l 1
 538 -514 l 1
 538 -414 l 1
897 -414 m 1
 987 -414 l 1
 987 -514 l 1
 897 -514 l 1
 897 -414 l 1
179 1577 m 1
 269 1577 l 1
 269 1477 l 1
 179 1477 l 1
 179 1577 l 1
538 1577 m 1
 630 1577 l 1
 630 1477 l 1
 538 1477 l 1
 538 1577 l 1
897 1577 m 1
 987 1577 l 1
 987 1477 l 1
 897 1477 l 1
 897 1577 l 1
0 1775 m 1
 90 1775 l 1
 90 1677 l 1
 0 1677 l 1
 0 1775 l 1
358 1775 m 1
 449 1775 l 1
 449 1677 l 1
 358 1677 l 1
 358 1775 l 1
719 1775 m 1
 808 1775 l 1
 808 1677 l 1
 719 1677 l 1
 719 1775 l 1
EndSplineSet
EndChar

StartChar: shademedium
Encoding: 9618 9618 574
Width: 1075
Flags: W
HStem: -514 100<0 77 153 230 307 384 461 539 616 692 769 846> -315 100<77 153 230 307 384 461 539 616 692 769 846 922> -115 99<0 77 153 230 307 384 461 539 616 692 769 846> 83 100<77 153 230 307 384 461 539 616 692 769 846 922> 283 99<0 77 153 230 307 384 461 539 616 692 769 846> 482 99<77 153 230 307 384 461 539 616 692 769 846 922> 681 100<0 77 153 230 307 384 461 539 616 692 769 846> 881 99<77 153 230 307 384 461 539 616 692 769 846 922> 1080 99<0 77 153 230 307 384 461 539 616 692 769 846> 1278 100<77 153 230 307 384 461 539 616 692 769 846 922> 1477 100<0 77 153 230 307 384 461 539 616 692 769 846> 1677 98<77 153 230 307 384 461 539 616 692 769 846 922>
VStem: 0 77<-514 -414 -115 -16 283 382 681 781 1080 1179 1477 1577> 77 76<-315 -215 83 183 482 581 881 980 1278 1378 1677 1775> 153 77<-514 -414 -115 -16 283 382 681 781 1080 1179 1477 1577> 230 77<-315 -215 83 183 482 581 881 980 1278 1378 1677 1775> 307 77<-514 -414 -115 -16 283 382 681 781 1080 1179 1477 1577> 384 77<-315 -215 83 183 482 581 881 980 1278 1378 1677 1775> 461 78<-514 -414 -115 -16 283 382 681 781 1080 1179 1477 1577> 539 77<-315 -215 83 183 482 581 881 980 1278 1378 1677 1775> 616 76<-514 -414 -115 -16 283 382 681 781 1080 1179 1477 1577> 692 77<-315 -215 83 183 482 581 881 980 1278 1378 1677 1775> 769 77<-514 -414 -115 -16 283 382 681 781 1080 1179 1477 1577> 846 76<-315 -215 83 183 482 581 881 980 1278 1378 1677 1775>
LayerCount: 2
Fore
SplineSet
90 1378 m 1
 179 1378 l 1
 179 1278 l 1
 90 1278 l 1
 90 1378 l 1
269 1378 m 1
 358 1378 l 1
 358 1278 l 1
 269 1278 l 1
 269 1378 l 1
448 1378 m 1
 538 1378 l 1
 538 1278 l 1
 448 1278 l 1
 448 1378 l 1
629 1378 m 1
 719 1378 l 1
 719 1278 l 1
 629 1278 l 1
 629 1378 l 1
807 1378 m 1
 897 1378 l 1
 897 1278 l 1
 807 1278 l 1
 807 1378 l 1
987 1378 m 1
 1075 1378 l 1
 1075 1278 l 1
 987 1278 l 1
 987 1378 l 1
0 1179 m 1
 90 1179 l 1
 90 1080 l 1
 0 1080 l 1
 0 1179 l 1
179 1179 m 1
 269 1179 l 1
 269 1080 l 1
 179 1080 l 1
 179 1179 l 1
358 1179 m 1
 448 1179 l 1
 448 1080 l 1
 358 1080 l 1
 358 1179 l 1
538 1179 m 1
 629 1179 l 1
 629 1080 l 1
 538 1080 l 1
 538 1179 l 1
719 1179 m 1
 807 1179 l 1
 807 1080 l 1
 719 1080 l 1
 719 1179 l 1
897 1179 m 1
 987 1179 l 1
 987 1080 l 1
 897 1080 l 1
 897 1179 l 1
90 980 m 1
 179 980 l 1
 179 881 l 1
 90 881 l 1
 90 980 l 1
269 980 m 1
 358 980 l 1
 358 881 l 1
 269 881 l 1
 269 980 l 1
448 980 m 1
 538 980 l 1
 538 881 l 1
 448 881 l 1
 448 980 l 1
629 980 m 1
 719 980 l 1
 719 881 l 1
 629 881 l 1
 629 980 l 1
807 980 m 1
 897 980 l 1
 897 881 l 1
 807 881 l 1
 807 980 l 1
987 980 m 1
 1075 980 l 1
 1075 881 l 1
 987 881 l 1
 987 980 l 1
0 781 m 1
 90 781 l 1
 90 681 l 1
 0 681 l 1
 0 781 l 1
179 781 m 1
 269 781 l 1
 269 681 l 1
 179 681 l 1
 179 781 l 1
358 781 m 1
 448 781 l 1
 448 681 l 1
 358 681 l 1
 358 781 l 1
538 781 m 1
 629 781 l 1
 629 681 l 1
 538 681 l 1
 538 781 l 1
719 781 m 1
 807 781 l 1
 807 681 l 1
 719 681 l 1
 719 781 l 1
897 781 m 1
 987 781 l 1
 987 681 l 1
 897 681 l 1
 897 781 l 1
90 581 m 1
 179 581 l 1
 179 482 l 1
 90 482 l 1
 90 581 l 1
269 581 m 1
 358 581 l 1
 358 482 l 1
 269 482 l 1
 269 581 l 1
448 581 m 1
 538 581 l 1
 538 482 l 1
 448 482 l 1
 448 581 l 1
629 581 m 1
 719 581 l 1
 719 482 l 1
 629 482 l 1
 629 581 l 1
807 581 m 1
 897 581 l 1
 897 482 l 1
 807 482 l 1
 807 581 l 1
987 581 m 1
 1075 581 l 1
 1075 482 l 1
 987 482 l 1
 987 581 l 1
0 382 m 1
 90 382 l 1
 90 283 l 1
 0 283 l 1
 0 382 l 1
358 382 m 1
 448 382 l 1
 448 283 l 1
 358 283 l 1
 358 382 l 1
538 382 m 1
 629 382 l 1
 629 283 l 1
 538 283 l 1
 538 382 l 1
719 382 m 1
 807 382 l 1
 807 283 l 1
 719 283 l 1
 719 382 l 1
897 382 m 1
 987 382 l 1
 987 283 l 1
 897 283 l 1
 897 382 l 1
179 382 m 1
 269 382 l 1
 269 283 l 1
 179 283 l 1
 179 382 l 1
987 183 m 1
 1075 183 l 1
 1075 83 l 1
 987 83 l 1
 987 183 l 1
807 183 m 1
 897 183 l 1
 897 83 l 1
 807 83 l 1
 807 183 l 1
629 183 m 1
 719 183 l 1
 719 83 l 1
 629 83 l 1
 629 183 l 1
448 183 m 1
 538 183 l 1
 538 83 l 1
 448 83 l 1
 448 183 l 1
269 183 m 1
 358 183 l 1
 358 83 l 1
 269 83 l 1
 269 183 l 1
90 183 m 1
 179 183 l 1
 179 83 l 1
 90 83 l 1
 90 183 l 1
0 -16 m 1
 90 -16 l 1
 90 -115 l 1
 0 -115 l 1
 0 -16 l 1
179 -16 m 1
 269 -16 l 1
 269 -115 l 1
 179 -115 l 1
 179 -16 l 1
358 -16 m 1
 448 -16 l 1
 448 -115 l 1
 358 -115 l 1
 358 -16 l 1
538 -16 m 1
 629 -16 l 1
 629 -115 l 1
 538 -115 l 1
 538 -16 l 1
719 -16 m 1
 807 -16 l 1
 807 -115 l 1
 719 -115 l 1
 719 -16 l 1
897 -16 m 1
 987 -16 l 1
 987 -115 l 1
 897 -115 l 1
 897 -16 l 1
987 -215 m 1
 1075 -215 l 1
 1075 -315 l 1
 987 -315 l 1
 987 -215 l 1
807 -215 m 1
 897 -215 l 1
 897 -315 l 1
 807 -315 l 1
 807 -215 l 1
629 -215 m 1
 719 -215 l 1
 719 -315 l 1
 629 -315 l 1
 629 -215 l 1
448 -215 m 1
 538 -215 l 1
 538 -315 l 1
 448 -315 l 1
 448 -215 l 1
269 -215 m 1
 358 -215 l 1
 358 -315 l 1
 269 -315 l 1
 269 -215 l 1
90 -215 m 1
 179 -215 l 1
 179 -315 l 1
 90 -315 l 1
 90 -215 l 1
0 -414 m 1
 90 -414 l 1
 90 -514 l 1
 0 -514 l 1
 0 -414 l 1
179 -414 m 1
 269 -414 l 1
 269 -514 l 1
 179 -514 l 1
 179 -414 l 1
358 -414 m 1
 448 -414 l 1
 448 -514 l 1
 358 -514 l 1
 358 -414 l 1
538 -414 m 1
 629 -414 l 1
 629 -514 l 1
 538 -514 l 1
 538 -414 l 1
719 -414 m 1
 807 -414 l 1
 807 -514 l 1
 719 -514 l 1
 719 -414 l 1
897 -414 m 1
 987 -414 l 1
 987 -514 l 1
 897 -514 l 1
 897 -414 l 1
0 1577 m 1
 90 1577 l 1
 90 1477 l 1
 0 1477 l 1
 0 1577 l 1
179 1577 m 1
 269 1577 l 1
 269 1477 l 1
 179 1477 l 1
 179 1577 l 1
358 1577 m 1
 448 1577 l 1
 448 1477 l 1
 358 1477 l 1
 358 1577 l 1
538 1577 m 1
 629 1577 l 1
 629 1477 l 1
 538 1477 l 1
 538 1577 l 1
719 1577 m 1
 807 1577 l 1
 807 1477 l 1
 719 1477 l 1
 719 1577 l 1
897 1577 m 1
 987 1577 l 1
 987 1477 l 1
 897 1477 l 1
 897 1577 l 1
90 1775 m 1
 179 1775 l 1
 179 1677 l 1
 90 1677 l 1
 90 1775 l 1
269 1775 m 1
 358 1775 l 1
 358 1677 l 1
 269 1677 l 1
 269 1775 l 1
448 1775 m 1
 538 1775 l 1
 538 1677 l 1
 448 1677 l 1
 448 1775 l 1
629 1775 m 1
 719 1775 l 1
 719 1677 l 1
 629 1677 l 1
 629 1775 l 1
807 1775 m 1
 897 1775 l 1
 897 1677 l 1
 807 1677 l 1
 807 1775 l 1
987 1775 m 1
 1075 1775 l 1
 1075 1677 l 1
 987 1677 l 1
 987 1775 l 1
EndSplineSet
EndChar

StartChar: shadedark
Encoding: 9619 9619 575
Width: 1075
Flags: W
HStem: -615 300<0 77 153 230 307 384 461 539 616 692 769 846> -615 101<77 153 230 307 384 461 539 616 692 769 846 922> -414 299<77 153 230 307 384 461 539 616 692 769 846 922> -215 299<0 77 153 230 307 384 461 539 616 692 769 846> -16 299<77 153 230 307 384 461 539 616 692 769 846 922> 183 299<0 77 153 230 307 384 461 539 616 692 769 846> 382 299<77 153 230 307 384 461 539 616 692 769 846 922> 581 299<0 77 153 230 307 384 461 539 616 692 769 846> 781 299<77 153 230 307 384 461 539 616 692 769 846 922> 980 299<0 77 153 230 307 384 461 539 616 692 769 846> 1179 299<77 153 230 307 384 461 539 616 692 769 846 922> 1378 299<0 77 153 230 307 384 461 539 616 692 769 846> 1577 198<77 153 230 307 384 461 539 616 692 769 846 922>
VStem: 0 77<-514 -414 -115 -16 283 382 681 781 1080 1179 1478 1577> 77 76<-315 -215 84 183 482 581 881 980 1279 1378 1677 1775> 153 77<-514 -414 -115 -16 283 382 681 781 1080 1179 1478 1577> 230 77<-315 -215 84 183 482 581 880 980 1279 1378 1677 1775> 307 77<-514 -414 -115 -16 283 382 681 781 1080 1179 1478 1577> 384 77<-315 -215 84 183 482 581 880 980 1279 1378 1677 1775> 461 78<-514 -414 -115 -16 283 382 681 781 1080 1179 1478 1577> 539 77<-315 -215 84 183 482 581 880 980 1279 1378 1677 1775> 616 76<-514 -414 -115 -16 283 382 681 781 1080 1179 1478 1577> 692 77<-315 -215 84 183 482 581 880 980 1279 1378 1677 1775> 769 77<-514 -414 -115 -16 283 382 681 781 1080 1179 1478 1577> 846 76<-315 -215 84 183 482 581 880 980 1279 1378 1677 1775>
LayerCount: 2
Fore
SplineSet
1075 1577 m 1x000fff80
 987 1577 l 1
 987 1478 l 1
 1075 1478 l 1
 1075 1179 l 1
 987 1179 l 1
 987 1080 l 1
 1075 1080 l 1
 1075 781 l 1
 987 781 l 1
 987 681 l 1
 1075 681 l 1
 1075 382 l 1
 987 382 l 1
 987 283 l 1
 1075 283 l 1
 1075 -16 l 1
 987 -16 l 1
 987 -115 l 1
 1075 -115 l 1
 1075 -414 l 1
 987 -414 l 1
 987 -514 l 1
 1075 -514 l 1
 1075 -615 l 1x6aafff80
 0 -615 l 1
 0 -315 l 1
 90 -315 l 1
 90 -215 l 1
 0 -215 l 1
 0 83 l 1
 90 83 l 1
 90 183 l 1
 0 183 l 1
 0 482 l 1
 90 482 l 1
 90 581 l 1
 0 581 l 1
 0 881 l 1
 90 881 l 1
 90 980 l 1
 0 980 l 1
 0 1279 l 1
 90 1279 l 1
 90 1378 l 1
 0 1378 l 1
 0 1677 l 1
 90 1677 l 1x9557ff80
 90 1775 l 1
 179 1775 l 1x000fff80
 179 1677 l 1
 269 1677 l 1x0017ff80
 269 1775 l 1
 358 1775 l 1x000fff80
 358 1677 l 1
 448 1677 l 1x0017ff80
 448 1775 l 1
 538 1775 l 1x000fff80
 538 1677 l 1
 629 1677 l 1x0017ff80
 629 1775 l 1
 719 1775 l 1x000fff80
 719 1677 l 1
 807 1677 l 1x0017ff80
 807 1775 l 1
 897 1775 l 1x000fff80
 897 1677 l 1
 987 1677 l 1x0017ff80
 987 1775 l 1
 1075 1775 l 1
 1075 1577 l 1x000fff80
90 1179 m 1
 90 1080 l 1
 179 1080 l 1
 179 1179 l 1
 90 1179 l 1
269 1179 m 1
 269 1080 l 1
 358 1080 l 1
 358 1179 l 1
 269 1179 l 1
448 1179 m 1
 448 1080 l 1
 538 1080 l 1
 538 1179 l 1
 448 1179 l 1
629 1179 m 1
 629 1080 l 1
 719 1080 l 1
 719 1179 l 1
 629 1179 l 1
807 1179 m 1
 807 1080 l 1
 897 1080 l 1
 897 1179 l 1
 807 1179 l 1
987 980 m 1x0147ff80
 897 980 l 1
 897 880 l 1
 987 880 l 1
 987 980 l 1x0147ff80
807 980 m 1
 719 980 l 1
 719 880 l 1
 807 880 l 1
 807 980 l 1
629 980 m 1
 538 980 l 1
 538 880 l 1
 629 880 l 1
 629 980 l 1
448 980 m 1
 358 980 l 1
 358 880 l 1
 448 880 l 1
 448 980 l 1
269 980 m 1
 179 980 l 1
 179 880 l 1
 269 880 l 1
 269 980 l 1
90 781 m 1x0287ff80
 90 681 l 1
 179 681 l 1
 179 781 l 1
 90 781 l 1x0287ff80
269 781 m 1
 269 681 l 1
 358 681 l 1
 358 781 l 1
 269 781 l 1
448 781 m 1
 448 681 l 1
 538 681 l 1
 538 781 l 1
 448 781 l 1
629 781 m 1
 629 681 l 1
 719 681 l 1
 719 781 l 1
 629 781 l 1
807 781 m 1
 807 681 l 1
 897 681 l 1
 897 781 l 1
 807 781 l 1
269 581 m 1x0507ff80
 179 581 l 1
 179 482 l 1
 269 482 l 1
 269 581 l 1x0507ff80
358 581 m 1
 358 482 l 1
 448 482 l 1
 448 581 l 1
 358 581 l 1
538 581 m 1
 538 482 l 1
 629 482 l 1
 629 581 l 1
 538 581 l 1
719 581 m 1
 719 482 l 1
 807 482 l 1
 807 581 l 1
 719 581 l 1
897 581 m 1
 897 482 l 1
 987 482 l 1
 987 581 l 1
 897 581 l 1
90 382 m 1x0a07ff80
 90 283 l 1
 179 283 l 1
 179 382 l 1
 90 382 l 1x0a07ff80
448 382 m 1
 448 283 l 1
 538 283 l 1
 538 382 l 1
 448 382 l 1
358 283 m 1
 358 382 l 1
 269 382 l 1
 269 283 l 1
 358 283 l 1
629 382 m 1
 629 283 l 1
 719 283 l 1
 719 382 l 1
 629 382 l 1
807 382 m 1
 807 283 l 1
 897 283 l 1
 897 382 l 1
 807 382 l 1
987 84 m 1x1407ff80
 987 183 l 1
 897 183 l 1
 897 84 l 1
 987 84 l 1x1407ff80
807 84 m 1
 807 183 l 1
 719 183 l 1
 719 84 l 1
 807 84 l 1
629 84 m 1
 629 183 l 1
 538 183 l 1
 538 84 l 1
 629 84 l 1
448 84 m 1
 448 183 l 1
 358 183 l 1
 358 84 l 1
 448 84 l 1
269 84 m 1
 269 183 l 1
 179 183 l 1
 179 84 l 1
 269 84 l 1
90 -16 m 1x2807ff80
 90 -115 l 1
 179 -115 l 1
 179 -16 l 1
 90 -16 l 1x2807ff80
269 -16 m 1
 269 -115 l 1
 358 -115 l 1
 358 -16 l 1
 269 -16 l 1
448 -16 m 1
 448 -115 l 1
 538 -115 l 1
 538 -16 l 1
 448 -16 l 1
629 -16 m 1
 629 -115 l 1
 719 -115 l 1
 719 -16 l 1
 629 -16 l 1
807 -16 m 1
 807 -115 l 1
 897 -115 l 1
 897 -16 l 1
 807 -16 l 1
987 -315 m 1x9007ff80
 987 -215 l 1
 897 -215 l 1
 897 -315 l 1
 987 -315 l 1x9007ff80
807 -315 m 1
 807 -215 l 1
 719 -215 l 1
 719 -315 l 1
 807 -315 l 1
629 -315 m 1
 629 -215 l 1
 538 -215 l 1
 538 -315 l 1
 629 -315 l 1
448 -315 m 1
 448 -215 l 1
 358 -215 l 1
 358 -315 l 1
 448 -315 l 1
269 -315 m 1
 269 -215 l 1
 179 -215 l 1
 179 -315 l 1
 269 -315 l 1
90 -414 m 1x6007ff80
 90 -514 l 1
 179 -514 l 1
 179 -414 l 1
 90 -414 l 1x6007ff80
269 -414 m 1
 269 -514 l 1
 358 -514 l 1
 358 -414 l 1
 269 -414 l 1
448 -414 m 1
 448 -514 l 1
 538 -514 l 1
 538 -414 l 1
 448 -414 l 1
629 -414 m 1
 629 -514 l 1
 719 -514 l 1
 719 -414 l 1
 629 -414 l 1
807 -414 m 1
 807 -514 l 1
 897 -514 l 1
 897 -414 l 1
 807 -414 l 1
987 1378 m 1x0057ff80
 897 1378 l 1
 897 1279 l 1
 987 1279 l 1
 987 1378 l 1x0057ff80
807 1378 m 1
 719 1378 l 1
 719 1279 l 1
 807 1279 l 1
 807 1378 l 1
629 1378 m 1
 538 1378 l 1
 538 1279 l 1
 629 1279 l 1
 629 1378 l 1
448 1378 m 1
 358 1378 l 1
 358 1279 l 1
 448 1279 l 1
 448 1378 l 1
269 1378 m 1
 179 1378 l 1
 179 1279 l 1
 269 1279 l 1
 269 1378 l 1
897 1577 m 1x002fff80
 807 1577 l 1
 807 1478 l 1
 897 1478 l 1
 897 1577 l 1x002fff80
719 1577 m 1
 629 1577 l 1
 629 1478 l 1
 719 1478 l 1
 719 1577 l 1
538 1577 m 1
 448 1577 l 1
 448 1478 l 1
 538 1478 l 1
 538 1577 l 1
358 1577 m 1
 269 1577 l 1
 269 1478 l 1
 358 1478 l 1
 358 1577 l 1
179 1577 m 1
 90 1577 l 1
 90 1478 l 1
 179 1478 l 1
 179 1577 l 1
EndSplineSet
EndChar

StartChar: blacksquare
Encoding: 9632 9632 576
Width: 1075
Flags: W
HStem: 116.375 992.245<0 922>
VStem: 0 922<116.375 1108.62>
LayerCount: 2
Fore
SplineSet
0 1294 m 5
 1075 1294 l 5
 1075 136 l 5
 0 136 l 5
 0 1294 l 5
EndSplineSet
EndChar

StartChar: whitesquare
Encoding: 9633 9633 577
Width: 1075
Flags: W
HStem: 116 192.35<187.15 733.85> 916.65 192.35<187.15 733.85>
VStem: 0 187.15<308.35 916.65> 733.85 188.15<308.35 916.65>
LayerCount: 2
Fore
SplineSet
0 1294 m 1
 1075 1294 l 1
 1075 136 l 1
 0 136 l 1
 0 1294 l 1
219 1070 m 1
 219 360 l 1
 856 360 l 1
 856 1070 l 1
 219 1070 l 1
EndSplineSet
EndChar

StartChar: blacksmallsquare
Encoding: 9642 9642 578
Width: 1075
Flags: W
HStem: 400.365 472.271<224.175 696.825>
VStem: 224.175 472.65<400.365 872.635>
LayerCount: 2
Fore
SplineSet
813 467 m 5
 262 467 l 5
 262 1018 l 5
 813 1018 l 5
 813 467 l 5
EndSplineSet
EndChar

StartChar: whitesmallsquare
Encoding: 9643 9643 579
Width: 1075
Flags: W
HStem: 400.365 113.926<341.925 579.075> 758.709 113.926<341.925 579.075>
VStem: 224.175 117.75<514.291 758.709> 579.075 117.75<514.291 758.709>
LayerCount: 2
Fore
SplineSet
813 467 m 1
 262 467 l 1
 262 1018 l 1
 813 1018 l 1
 813 467 l 1
676 600 m 1
 676 885 l 1
 399 885 l 1
 399 600 l 1
 676 600 l 1
EndSplineSet
EndChar

StartChar: blackrectangle
Encoding: 9644 9644 580
Width: 1075
Flags: W
HStem: 395 231<0 922>
LayerCount: 2
Fore
SplineSet
0 730 m 1
 1075 730 l 5
 1075 461 l 5
 0 461 l 1
 0 730 l 1
EndSplineSet
EndChar

StartChar: triagup
Encoding: 9650 9650 581
Width: 1075
Flags: W
LayerCount: 2
Fore
SplineSet
0 133 m 5
 537 1066 l 5
 1075 133 l 5
 0 133 l 5
EndSplineSet
EndChar

StartChar: triagrt
Encoding: 9658 9658 582
Width: 1075
Flags: W
LayerCount: 2
Fore
SplineSet
74 -73 m 1
 72 1003 l 1
 1004 465 l 1
 74 -73 l 1
EndSplineSet
EndChar

StartChar: triagdn
Encoding: 9660 9660 583
Width: 1075
Flags: W
LayerCount: 2
Fore
SplineSet
1075 1066 m 5
 539 133 l 5
 0 1066 l 5
 1075 1066 l 5
EndSplineSet
EndChar

StartChar: triaglf
Encoding: 9668 9668 584
Width: 1075
Flags: W
LayerCount: 2
Fore
SplineSet
73 465 m 5
 1003 1004 l 5
 1003 -73 l 5
 73 465 l 5
EndSplineSet
EndChar

StartChar: lozenge
Encoding: 9674 9674 585
Width: 1075
Flags: W
DStem2: 261 710 89 709 0.489251 -0.872143<0 400.76> 89 709 261 710 0.486669 0.873586<84.5807 485.336> 501 1287 458 1059 0.499203 -0.866485<176.093 577.838> 458 361 501 135 0.501808 0.864979<0 401.737>
LayerCount: 2
Fore
SplineSet
585 1501 m 1
 973 827 l 1
 585 158 l 1
 480 158 l 1
 104 827 l 1
 480 1501 l 1
 585 1501 l 1
535 1235 m 1
 305 828 l 1
 535 421 l 1
 767 828 l 1
 535 1235 l 1
EndSplineSet
EndChar

StartChar: whitecircle
Encoding: 9675 9675 586
Width: 1075
Flags: W
HStem: 221 150<334.35 586.595> 784 150<333.91 587.132>
VStem: 104 150<452.439 703.668> 668 150<451.815 701.975>
LayerCount: 2
Fore
SplineSet
538 1089 m 0
 774 1089 954 898 954 674 c 0
 954 440 768 258 538 258 c 0
 301 258 122 445 122 674 c 0
 122 890 293 1089 538 1089 c 0
538 915 m 0
 398 915 297 803 297 674 c 0
 297 529 414 433 538 433 c 256
 673 433 779 540 779 674 c 0
 779 797 681 915 538 915 c 0
EndSplineSet
EndChar

StartChar: blackcircle
Encoding: 9679 9679 587
Width: 1075
Flags: W
HStem: 221 713<292.824 631.094>
VStem: 104 714<407.906 745.646>
LayerCount: 2
Fore
SplineSet
538 1089 m 0
 774 1089 954 898 954 674 c 0
 954 440 768 258 538 258 c 0
 301 258 122 445 122 674 c 0
 122 890 293 1089 538 1089 c 0
EndSplineSet
EndChar

StartChar: bulletinverse
Encoding: 9688 9688 588
Width: 1075
Flags: W
HStem: 93.0996 233.28<349.727 573.114> 653.62 233.28<348.385 573.674>
VStem: 63 234<377.921 601.629> 624 233<379.634 603.318>
LayerCount: 2
Fore
SplineSet
74 109 m 1
 74 1035 l 1
 1000 1035 l 1
 1000 109 l 1
 74 109 l 1
537 763 m 256
 434 763 347 682 347 572 c 0
 347 460 438 381 537 381 c 0
 642 381 728 465 728 572 c 0
 728 678 644 763 537 763 c 256
EndSplineSet
EndChar

StartChar: whitecircleinverse
Encoding: 9689 9689 589
Width: 1075
Flags: W
HStem: 110 111<289.809 635.959> 371 413<335.607 588.433> 934 111<293.797 632.866>
VStem: 0 105<406.695 749.753> 255 413<448.029 702.431> 818 104<402.264 747.094>
LayerCount: 2
Fore
SplineSet
0 129 m 1
 0 1219 l 1
 1075 1219 l 1
 1075 129 l 1
 0 129 l 1
538 1089 m 0
 315 1089 123 910 123 673 c 0
 123 442 305 258 538 258 c 0
 761 258 954 431 954 673 c 0
 954 903 772 1089 538 1089 c 0
539 915 m 0
 673 915 779 806 779 673 c 0
 779 536 670 433 539 433 c 0
 407 433 298 536 298 673 c 0
 298 811 410 915 539 915 c 0
EndSplineSet
EndChar

StartChar: whitebullet
Encoding: 9702 9702 590
Width: 1075
Flags: W
HStem: 406 113<368.896 552.757> 754 113<368.685 552.223>
VStem: 230 113<545.062 727.979> 579 112<546.84 727.446>
LayerCount: 2
Fore
SplineSet
806 743 m 0
 806 582 677 474 537 474 c 256
 389 474 269 592 269 743 c 0
 269 892 388 1011 537 1011 c 0
 690 1011 806 891 806 743 c 0
676 743 m 0
 676 822 611 880 537 880 c 256
 466 880 400 825 400 743 c 0
 400 660 466 606 537 606 c 256
 614 606 676 666 676 743 c 0
EndSplineSet
EndChar

StartChar: smileface
Encoding: 9786 9786 591
Width: 1075
Flags: W
HStem: 124 126<298.564 622.839> 338 54<371.617 548.201> 608 114<255.697 366.296 555.643 665.674> 919 126<293.127 624.394>
VStem: -0 127<417.754 749.129> 254 114<609.589 720.417> 554 113<609.487 720.519> 795 126<419.528 752.828>
LayerCount: 2
Fore
SplineSet
1074 681 m 0
 1074 382 839 145 537 145 c 0
 236 145 0 384 0 681 c 0
 0 992 248 1219 537 1219 c 0
 839 1219 1074 981 1074 681 c 0
927 681 m 0
 927 899 757 1072 537 1072 c 0
 318 1072 149 898 149 681 c 0
 149 455 329 292 537 292 c 0
 749 292 927 458 927 681 c 0
430 777 m 256
 430 740 400 709 362 709 c 256
 325 709 297 742 297 777 c 256
 297 810 323 842 362 842 c 256
 402 842 430 811 430 777 c 256
778 777 m 256
 778 740 751 709 714 709 c 256
 674 709 646 740 646 777 c 256
 646 812 673 842 714 842 c 256
 751 842 778 812 778 777 c 256
327 535 m 1
 372 560 l 1
 410 493 465 458 537 458 c 256
 610 458 665 493 702 560 c 1
 748 535 l 1
 700 441 629 395 537 395 c 0
 424 395 362 468 327 535 c 1
EndSplineSet
EndChar

StartChar: invsmileface
Encoding: 9787 9787 592
Width: 1075
Flags: W
HStem: 124 171<330.15 591.942> 738 307<261.901 501.505 421.958 661.515>
VStem: -0 226<494.273 736.313> 343 236<622.894 736.048> 695 226<493.852 734.781>
LayerCount: 2
Fore
SplineSet
1074 681 m 0
 1074 382 839 145 537 145 c 0
 236 145 0 384 0 681 c 0
 0 992 248 1219 537 1219 c 0
 839 1219 1074 981 1074 681 c 0
400 793 m 256
 400 828 371 861 332 861 c 256
 292 861 264 827 264 793 c 256
 264 758 293 725 332 725 c 256
 370 725 400 756 400 793 c 256
811 793 m 256
 811 829 784 861 744 861 c 256
 704 861 676 829 676 793 c 256
 676 756 705 725 744 725 c 256
 783 725 811 756 811 793 c 256
290 509 m 1
 330 431 404 344 537 344 c 0
 671 344 743 430 785 509 c 1
 732 539 l 1
 687 459 623 418 537 418 c 256
 452 418 388 459 343 539 c 1
 290 509 l 1
EndSplineSet
EndChar

StartChar: compass
Encoding: 9788 9788 593
Width: 1075
Flags: W
HStem: 448 46<0 162 760 922> 722 47<486 563.283>
VStem: 162 48<494 578.675> 436 50<10 173 769 932> 710 50<363.517 448 492 580.419>
DStem2: 125 839 95 802 0.707613 -0.7066<4.91579 197.993 796.168 991.33> 95 139 127 106 0.708621 0.705589<0 194.565 792.769 988.636>
LayerCount: 2
Fore
SplineSet
509 1087 m 1
 567 1087 l 1
 567 897 l 1
 648 897 707 861 763 818 c 1
 927 978 l 1
 966 938 l 1
 805 776 l 1
 856 708 887 641 887 574 c 1
 1075 574 l 1
 1075 523 l 1
 887 523 l 1
 878 453 852 385 806 327 c 1
 966 160 l 1
 925 123 l 1
 763 283 l 1
 698 234 649 212 567 202 c 1
 567 12 l 1
 509 12 l 1
 509 202 l 1
 435 213 371 240 314 280 c 1
 149 124 l 1
 111 163 l 1
 271 325 l 1
 224 384 198 449 189 523 c 1
 0 523 l 1
 0 576 l 1
 189 576 l 1
 189 651 223 716 270 774 c 1
 111 936 l 1
 146 979 l 1
 313 819 l 1
 379 864 446 890 509 897 c 1
 509 1087 l 1
537 842 m 256
 369 842 245 708 245 550 c 0
 245 388 371 258 537 258 c 256
 705 258 828 391 828 550 c 0
 828 713 699 842 537 842 c 256
EndSplineSet
EndChar

StartChar: female
Encoding: 9792 9792 594
Width: 1075
Flags: W
HStem: 343 69<175 426 499 747> 577 81<346.207 426 499 579.178> 1069 84<343.449 581.435>
VStem: 183 79<741.948 982.372> 426 73<80 343 412 577> 661 80<741.559 986.112>
LayerCount: 2
Fore
SplineSet
497 673 m 1
 335 697 214 834 214 1006 c 0
 214 1210 370 1345 539 1345 c 0
 709 1345 864 1207 864 1006 c 0
 864 821 733 693 582 673 c 1
 582 481 l 1
 871 481 l 1
 871 400 l 1
 582 400 l 1
 582 94 l 1
 497 94 l 1
 497 400 l 1
 205 400 l 1
 205 481 l 1
 497 481 l 1
 497 673 l 1
538 1247 m 0
 410 1247 306 1142 306 1008 c 256
 306 871 411 768 538 768 c 256
 663 768 771 868 771 1008 c 256
 771 1147 664 1247 538 1247 c 0
EndSplineSet
EndChar

StartChar: male
Encoding: 9794 9794 595
Width: 1075
Flags: W
HStem: 250 75<211.388 439.888> 750 75<207.521 441.935>
VStem: 42 76<417.863 660.889> 531 75<414.96 660.222>
DStem2: 474 782 525 740 0.693164 0.72078<5.0786 360.117>
LayerCount: 2
Fore
SplineSet
553 912 m 1
 846 1217 l 1
 785 1247 602 1311 602 1317 c 1
 627 1345 l 9
 1008 1345 l 0
 1027 1327 l 0
 1027 925 l 273
 1000 901 l 1
 994 901 927 1102 899 1162 c 1
 613 863 l 1
 676 800 707 726 707 639 c 0
 707 441 558 292 377 292 c 256
 189 292 49 445 49 624 c 0
 49 810 192 962 379 962 c 0
 433 962 490 946 553 912 c 1
379 875 m 0
 244 875 138 767 138 628 c 256
 138 484 252 379 379 379 c 256
 503 379 620 476 620 628 c 0
 620 774 507 875 379 875 c 0
EndSplineSet
EndChar

StartChar: spade
Encoding: 9824 9824 596
Width: 1075
Flags: W
HStem: 152 28<168 272.283 656.397 754>
VStem: 456 14<417.894 503>
LayerCount: 2
Fore
SplineSet
538 1259 m 1
 621 915 964 860 964 615 c 0
 964 500 876 419 772 419 c 0
 681 419 607 475 548 587 c 1
 548 285 715 210 880 210 c 1
 885 178 l 1
 189 178 l 1
 196 210 l 1
 466 210 532 390 532 587 c 1
 477 468 395 419 304 419 c 0
 199 419 111 504 111 611 c 0
 111 870 459 898 538 1259 c 1
EndSplineSet
EndChar

StartChar: club
Encoding: 9827 9827 597
Width: 1075
Flags: W
HStem: 151 25<150 211.374 718.551 773> 355 416<78.7852 299.617 619.973 842.203>
VStem: 252 415<744.613 993.475> 453 15<445.978 533>
LayerCount: 2
Fore
SplineSet
909 177 m 1xd0
 170 177 l 1
 175 206 l 1
 199 210 529 238 529 581 c 0
 529 590 529 603 529 622 c 1xd0
 463 488 356 414 242 414 c 0
 118 414 0 507 0 658 c 0
 0 817 121 899 209 899 c 0
 245 899 293 884 353 854 c 1
 304 936 294 965 294 1014 c 0
 294 1143 392 1249 536 1249 c 0
 676 1249 778 1144 778 1016 c 0xe0
 778 964 758 910 718 854 c 1
 800 892 812 899 860 899 c 0
 974 899 1075 802 1075 662 c 0
 1075 518 965 414 836 414 c 0
 655 414 564 593 546 622 c 1
 546 285 734 240 902 206 c 1
 909 177 l 1xd0
EndSplineSet
EndChar

StartChar: heart
Encoding: 9829 9829 598
Width: 1075
Flags: W
LayerCount: 2
Fore
SplineSet
540 143 m 1
 445 496 93 718 93 952 c 0
 93 1079 186 1165 304 1165 c 0
 398 1165 488 1113 540 961 c 1
 582 1113 680 1166 771 1166 c 0
 895 1166 982 1070 982 962 c 0
 982 691 632 496 540 143 c 1
EndSplineSet
EndChar

StartChar: diamond
Encoding: 9830 9830 599
Width: 1075
Flags: W
LayerCount: 2
Fore
SplineSet
537 1246 m 1
 624 1039 788 833 939 700 c 1
 812 602 635 367 537 152 c 1
 458 332 266 602 138 700 c 1
 291 833 424 1008 537 1246 c 1
EndSplineSet
EndChar

StartChar: musicalnote
Encoding: 9834 9834 600
Width: 1075
Flags: W
HStem: 135.78 236.52<235.114 404.073> 1026.22 20G<419 480>
VStem: 183 297<213.517 321.525> 419 61<357.72 767.58 964.41 1046.22> 626 67<401.088 670.848>
LayerCount: 2
Fore
SplineSet
489 418 m 1xd8
 489 1220 l 1
 560 1220 l 1
 560 1125 l 1
 706 945 l 2
 759 870 808 764 808 644 c 0
 808 547 778 462 719 388 c 1
 674 388 l 1
 712 470 730 549 730 623 c 256
 730 786 633 884 560 895 c 1
 560 418 l 2xd8
 560 264 460 159 322 159 c 0
 254 159 214 191 214 252 c 0xe8
 214 346 295 435 404 435 c 0
 429 435 457 430 489 418 c 1xd8
EndSplineSet
EndChar

StartChar: musicalnotedbl
Encoding: 9835 9835 601
Width: 1075
Flags: W
HStem: 71 235<87.9738 255.579> 147 235<593.354 761.757> 1025 20G<760.793 839>
VStem: 272 61<292 611 714 807> 779 60<368 732 835 928>
DStem2: 272 900 333 807 0.968822 0.247759<36.0566 498.13> 333 714 333 611 0.965113 0.261835<0 435.153>
LayerCount: 2
Fore
SplineSet
979 430 m 2xb8
 979 261 863 172 742 172 c 0
 651 172 634 228 634 265 c 0
 634 358 714 446 824 446 c 0x78
 855 446 883 439 909 430 c 1
 909 854 l 1
 389 713 l 1
 389 341 l 2
 389 172 273 83 151 83 c 0
 60 83 42 139 42 177 c 0
 42 269 123 357 234 357 c 0
 265 357 295 351 318 341 c 1
 318 1050 l 1
 979 1219 l 1
 979 430 l 2xb8
389 833 m 1
 909 974 l 1
 909 1082 l 1
 389 941 l 1
 389 833 l 1
EndSplineSet
EndChar

StartChar: arrowboth
Encoding: 8596 8596 602
Width: 1075
VWidth: 1708
Flags: W
LayerCount: 2
Fore
SplineSet
448 960 m 29
 127 600 l 29
 448 240 l 29
77 -99 m 5
 77 1224 l 5
 999 1224 l 5
 999 -99 l 5
 77 -99 l 5
628 960 m 29
 949 600 l 29
 628 240 l 29
949 600 m 29
 127 600 l 29
EndSplineSet
EndChar

StartChar: arrowbothv
Encoding: 8597 8597 603
Width: 1075
VWidth: 1708
Flags: W
LayerCount: 2
Fore
SplineSet
898 690 m 29
 538 1061 l 29
 178 690 l 29
77 87 m 5
 77 1113 l 5
 999 1113 l 5
 999 87 l 5
 77 87 l 5
898 510 m 29
 538 139 l 29
 178 510 l 29
538 139 m 29
 538 1061 l 29
EndSplineSet
EndChar

StartChar: updownarrowbar
Encoding: 8616 8616 604
Width: 1075
VWidth: 1708
Flags: W
LayerCount: 2
Fore
SplineSet
127 58 m 25
 949 58 l 25
898 690 m 25
 538 1061 l 25
 178 690 l 25
77 -443 m 1
 77 1113 l 1
 999 1113 l 1
 999 -443 l 1
 77 -443 l 1
898 510 m 25
 538 139 l 25
 178 510 l 25
538 139 m 25
 538 1061 l 25
EndSplineSet
EndChar

StartChar: nsuperior
Encoding: 8319 8319 605
Width: 1075
VWidth: 1947
Flags: MW
LayerCount: 2
Back
SplineSet
327 1425 m 5
 1198 1425 l 5
 1015 544 l 5
 143 544 l 5
 327 1425 l 5
EndSplineSet
Fore
SplineSet
769 390 m 25
 918 1103 l 18
 948.91 1257.55 894.57 1319 710 1319 c 10
 691 1319 l 18
 536 1319 401 1140 377 1026 c 10
 360 942 l 25
485 1545 m 25
 244 390 l 25
EndSplineSet
EndChar

StartChar: radical
Encoding: 8730 8730 606
Width: 1075
VWidth: 1708
Flags: MW
LayerCount: 2
Back
SplineSet
-67 -25 m 5
 285 1633 l 5
 1310 1633 l 5
 958 -25 l 5
 -67 -25 l 5
EndSplineSet
Fore
SplineSet
1246 1755 m 25
 484 37 l 25
 430 995 l 25
 -13 995 l 25
EndSplineSet
EndChar

StartChar: intersection
Encoding: 8745 8745 608
Width: 1075
VWidth: 1708
Flags: MW
LayerCount: 2
Back
SplineSet
-115 0 m 5
 234 1638 l 5
 1312 1638 l 5
 960 0 l 5
 -115 0 l 5
EndSplineSet
Fore
SplineSet
31.1006 -183 m 25
 296 1063 l 18
 336.58 1253.88 492 1333 700 1333 c 10
 718 1333 l 18
 903 1333 1045.66 1247.65 1007 1063 c 10
 746.101 -183 l 25
EndSplineSet
EndChar

StartChar: infinity
Encoding: 8734 8734 609
Width: 1075
Flags: MW
LayerCount: 2
Fore
SplineSet
830 843 m 3
 975 843 1020 720 998 618 c 0
 978 522 873 392 734 392 c 3
 608 392 534 512 557 618 c 0
 578 717 714 843 830 843 c 3
373 843 m 3
 231 843 136 719 115 618 c 0
 96 526 131 392 277 392 c 3
 431 392 534 512 557 618 c 0
 578 717 527 843 373 843 c 3
EndSplineSet
EndChar

StartChar: almostequal
Encoding: 8776 8776 610
Width: 1075
VWidth: 1947
Flags: MW
LayerCount: 2
Fore
SplineSet
99 340 m 17
 168 450 249 517 362 517 c 10
 377 517 l 18
 406 517 462.412 498.947 483 473 c 2
 556 381 l 2
 575 356 630 341 657 341 c 10
 672 341 l 18
 753 341 861 399 935 517 c 9
197 800 m 17
 264 900 387 977 460 977 c 10
 475 977 l 18
 504 977 559 960 580 933 c 2
 654 841 l 2
 673 816 728 801 755 801 c 10
 770 801 l 18
 851 801 983 886 1033 977 c 9
EndSplineSet
EndChar

StartChar: equivalence
Encoding: 8801 8801 611
Width: 1075
Flags: MW
LayerCount: 2
Fore
SplineSet
146.306 980 m 25
 1121.31 980 l 25
65.5342 600 m 29
 1040.53 600 l 29
-15.2373 220 m 25
 959.763 220 l 25
EndSplineSet
EndChar

StartChar: lessequal
Encoding: 8804 8804 612
Width: 1075
VWidth: 1708
Flags: MW
LayerCount: 2
Back
SplineSet
358 1612 m 5
 1176 1612 l 5
 803 -150 l 5
 -16 -150 l 5
 358 1612 l 5
EndSplineSet
Fore
SplineSet
-61 619 m 25
 1044 67 l 25
1290 1290 m 25
 256 877 l 25
 1110 465 l 25
EndSplineSet
EndChar

StartChar: greaterequal
Encoding: 8805 8805 613
Width: 1075
VWidth: 1708
Flags: MW
LayerCount: 2
Back
SplineSet
351 1612 m 5
 1169 1612 l 5
 802 -150 l 5
 -17 -150 l 5
 351 1612 l 5
EndSplineSet
Fore
SplineSet
1176 619 m 25
 -144 75 l 25
75 1308 m 25
 967 877 l 25
 -105 447 l 25
EndSplineSet
EndChar

StartChar: revlogicalnot
Encoding: 8976 8976 614
Width: 1075
VWidth: 1947
Flags: MW
LayerCount: 2
Back
SplineSet
105 1024 m 5
 1130 1024 l 5
 965.29 246 l 5
 -59.71 246 l 5
 105 1024 l 5
EndSplineSet
Fore
SplineSet
1191 600 m 25
 198 600 l 25
 91.042 99 l 25
EndSplineSet
EndChar

StartChar: integraltp
Encoding: 8992 8992 615
Width: 1075
Flags: MW
LayerCount: 2
Fore
SplineSet
538 -615 m 25
 538 1414 l 18
 538 1489.5 588.5 1548 677 1548 c 2
 687 1548 l 2
 770 1548 817 1489.5 817 1414 c 9
 817 1308 l 25
EndSplineSet
EndChar

StartChar: integralbt
Encoding: 8993 8993 616
Width: 1075
Flags: MW
LayerCount: 2
Fore
SplineSet
538 1775 m 29
 538 -324 l 18
 538 -399.5 487.5 -458 399 -458 c 2
 389 -458 l 2
 229 -458 182 -399.5 182 -324 c 9
 182 -218 l 25
EndSplineSet
EndChar

StartChar: exclam
Encoding: -1 33 617
Width: 922
Flags: MW
LayerCount: 2
Fore
SplineSet
573 95 m 0
 558 24 489 -23 423 -23 c 0
 368 -23 321 14 321 71 c 0
 321 79 322 87 324 95 c 0
 337 156 401 213 473 213 c 0
 530 213 576 177 576 120 c 0
 576 112 575 104 573 95 c 0
716 1418 m 0
 771 1418 831 1378 834 1303 c 0
 834 1290 836 1289 833 1273 c 2
 613 384 l 1
 402 384 l 1
 553 1274 l 2
 576 1383 663 1418 716 1418 c 0
EndSplineSet
EndChar
